*
*
G04 PADS 9.5 Build Number: 522968 generated Gerber (RS-274-X) file*
G04 PC Version=2.1*
*
%IN "PCB_#30857_ESP32-WROOM-"*%
*
%MOIN*%
*
%FSLAX35Y35*%
*
*
*
*
G04 PC Standard Apertures*
*
*
G04 Thermal Relief Aperture macro.*
%AMTER*
1,1,$1,0,0*
1,0,$1-$2,0,0*
21,0,$3,$4,0,0,45*
21,0,$3,$4,0,0,135*
%
*
*
G04 Annular Aperture macro.*
%AMANN*
1,1,$1,0,0*
1,0,$2,0,0*
%
*
*
G04 Odd Aperture macro.*
%AMODD*
1,1,$1,0,0*
1,0,$1-0.005,0,0*
%
*
*
G04 PC Custom Aperture Macros*
*
*
*
*
*
*
G04 PC Aperture Table*
*
%ADD010C,0.001*%
%ADD044C,0.01*%
%ADD045C,0.02*%
%ADD046C,0.015*%
%ADD047C,0.012*%
%ADD051C,0.025*%
%ADD109C,0.005*%
%ADD120C,0.01575*%
%ADD121R,0.06693X0.03543*%
%ADD122R,0.03543X0.06693*%
%ADD166C,0.03*%
*
*
*
*
G04 PC Circuitry*
G04 Layer Name PCB_#30857_ESP32-WROOM- - circuitry*
%LPD*%
*
G54D10*
G01X2062334Y1624639D02*
X2062291Y1624940D01*
X2062167Y1625188*
X2061965Y1625309*
X2061671Y1625351*
X2061457Y1625309*
X2061290Y1625267*
X2061127Y1625145*
X2060998Y1624930*
X2060910Y1624933*
X2060825Y1625105*
X2060825D02*
X2060704Y1625225D01*
X2060494Y1625309*
X2060287Y1625351*
X2060122Y1625310*
X2059912Y1625225*
X2059651Y1624965*
X2059566Y1625000*
Y1625307*
X2059264*
Y1623086*
X2059566*
Y1624509*
X2059567Y1624521*
X2059612Y1624700*
X2059622Y1624720*
X2059845Y1624988*
X2059870Y1625004*
X2060182Y1625093*
X2060208*
X2060387Y1625049*
X2060403Y1625042*
X2060536Y1624953*
X2060553Y1624933*
X2060643Y1624755*
X2060648Y1624732*
Y1623086*
X2060950*
Y1624375*
Y1624382*
X2060995Y1624695*
X2061004Y1624718*
X2061138Y1624896*
X2061148Y1624906*
X2061327Y1625040*
X2061347Y1625049*
X2061570Y1625094*
X2061590*
X2061813Y1625049*
X2061843Y1625030*
X2061977Y1624852*
X2061985Y1624837*
X2062029Y1624704*
X2062029D02*
X2062032Y1624688D01*
Y1623086*
X2062334*
Y1624639*
X2058584D02*
X2058541Y1624940D01*
X2058417Y1625188*
X2058215Y1625309*
X2057921Y1625351*
X2057707Y1625309*
X2057540Y1625267*
X2057377Y1625145*
X2057248Y1624930*
X2057160Y1624933*
X2057075Y1625105*
X2057075D02*
X2056954Y1625225D01*
X2056744Y1625309*
X2056537Y1625351*
X2056372Y1625310*
X2056162Y1625225*
X2055901Y1624965*
X2055816Y1625000*
Y1625307*
X2055514*
Y1623086*
X2055816*
Y1624509*
X2055817Y1624521*
X2055862Y1624700*
X2055872Y1624720*
X2056095Y1624988*
X2056120Y1625004*
X2056432Y1625093*
X2056458*
X2056637Y1625049*
X2056653Y1625042*
X2056786Y1624953*
X2056803Y1624933*
X2056893Y1624755*
X2056898Y1624732*
Y1623086*
X2057200*
Y1624375*
Y1624382*
X2057245Y1624695*
X2057254Y1624718*
X2057388Y1624896*
X2057398Y1624906*
X2057577Y1625040*
X2057597Y1625049*
X2057820Y1625094*
X2057840*
X2058063Y1625049*
X2058093Y1625030*
X2058227Y1624852*
X2058235Y1624837*
X2058279Y1624704*
X2058279D02*
X2058282Y1624688D01*
Y1623086*
X2058584*
Y1624639*
X2054923Y1624152D02*
X2054880Y1624535D01*
X2054669Y1624830*
X2054371Y1625043*
X2054033Y1625128*
X2053741Y1625086*
X2053483Y1624914*
X2053405Y1624956*
X2053406Y1624963*
X2053540Y1625812*
X2053589Y1625854*
X2054744*
Y1626156*
X2053318*
X2053023Y1624597*
X2053347Y1624561*
X2053554Y1624768*
X2053575Y1624780*
X2053888Y1624870*
X2053909Y1624871*
X2054221Y1624826*
X2054244Y1624817*
X2054423Y1624683*
X2054436Y1624669*
X2054569Y1624446*
X2054576Y1624427*
X2054621Y1624114*
Y1624100*
X2054576Y1623788*
X2054569Y1623769*
X2054436Y1623546*
X2054428Y1623536*
X2054249Y1623358*
X2054221Y1623344*
X2053909Y1623299*
X2053892*
X2053669Y1623344*
X2053656Y1623348*
X2053477Y1623438*
X2053455Y1623460*
X2053366Y1623639*
X2053363Y1623645*
X2053287Y1623875*
X2052982Y1623841*
X2053055Y1623548*
X2053266Y1623252*
X2053561Y1623084*
X2053901Y1623042*
X2054160Y1623085*
X2054372Y1623127*
X2054538Y1623252*
X2054710Y1623424*
X2054880Y1623721*
X2054923Y1624152*
X2052200Y1623388D02*
X2051898D01*
Y1623086*
X2052200*
Y1623388*
X2051173Y1624152D02*
X2051130Y1624535D01*
X2050919Y1624830*
X2050621Y1625043*
X2050283Y1625128*
X2049991Y1625086*
X2049733Y1624914*
X2049655Y1624956*
X2049656Y1624963*
X2049790Y1625812*
X2049839Y1625854*
X2050994*
Y1626156*
X2049568*
X2049273Y1624597*
X2049597Y1624561*
X2049804Y1624768*
X2049825Y1624780*
X2050138Y1624870*
X2050159Y1624871*
X2050471Y1624826*
X2050494Y1624817*
X2050673Y1624683*
X2050686Y1624669*
X2050819Y1624446*
X2050826Y1624427*
X2050871Y1624114*
Y1624100*
X2050826Y1623788*
X2050819Y1623769*
X2050686Y1623546*
X2050678Y1623536*
X2050499Y1623358*
X2050471Y1623344*
X2050159Y1623299*
X2050142*
X2049919Y1623344*
X2049906Y1623348*
X2049727Y1623438*
X2049705Y1623460*
X2049616Y1623639*
X2049613Y1623645*
X2049537Y1623875*
X2049232Y1623841*
X2049305Y1623548*
X2049516Y1623252*
X2049811Y1623084*
X2050151Y1623042*
X2050410Y1623085*
X2050622Y1623127*
X2050788Y1623252*
X2050960Y1623424*
X2051130Y1623721*
X2051173Y1624152*
X2048628Y1623388D02*
X2047116D01*
X2047077Y1623469*
X2047255Y1623692*
X2047264Y1623701*
X2047442Y1623834*
X2047708Y1624056*
X2048062Y1624366*
X2048282Y1624629*
X2048411Y1624802*
X2048497Y1625016*
X2048583Y1625360*
X2048541Y1625694*
X2048333Y1625943*
X2048035Y1626114*
X2047649Y1626200*
X2047266Y1626157*
X2046972Y1625989*
X2046760Y1625693*
X2046687Y1625401*
X2046987Y1625367*
X2047022Y1625546*
X2047031Y1625566*
X2047165Y1625744*
X2047175Y1625754*
X2047354Y1625888*
X2047375Y1625898*
X2047643Y1625942*
X2047661*
X2047885Y1625897*
X2047905Y1625888*
X2048083Y1625754*
X2048089Y1625750*
X2048223Y1625616*
X2048236Y1625590*
X2048281Y1625367*
Y1625348*
X2048236Y1625124*
X2048230Y1625108*
X2048096Y1624885*
X2048091Y1624878*
X2047823Y1624566*
X2047819Y1624561*
X2047416Y1624203*
X2047107Y1623938*
X2047107D02*
X2046758Y1623502D01*
X2046673Y1623290*
X2046639Y1623086*
X2048628*
Y1623388*
X2012552Y1685617D02*
X2012509Y1685918D01*
X2012385Y1686166*
X2012183Y1686287*
X2011889Y1686329*
X2011675Y1686286*
X2011508Y1686244*
X2011345Y1686122*
X2011216Y1685908*
X2011128Y1685911*
X2011043Y1686082*
X2010922Y1686203*
X2010712Y1686287*
X2010505Y1686328*
X2010505D02*
X2010340Y1686287D01*
X2010130Y1686203*
X2009869Y1685943*
X2009784Y1685978*
Y1686285*
X2009482*
Y1684064*
X2009784*
Y1685487*
X2009785Y1685499*
X2009830Y1685678*
X2009840Y1685697*
X2010063Y1685965*
X2010088Y1685981*
X2010400Y1686071*
X2010426*
X2010605Y1686026*
X2010621Y1686020*
X2010754Y1685930*
X2010771Y1685911*
X2010861Y1685732*
X2010866Y1685710*
Y1684064*
X2011168*
Y1685353*
Y1685360*
X2011213Y1685673*
X2011222Y1685695*
X2011356Y1685874*
X2011366Y1685884*
X2011545Y1686018*
X2011565Y1686027*
X2011788Y1686072*
X2011808*
X2012031Y1686027*
X2012061Y1686008*
X2012195Y1685829*
X2012203Y1685815*
X2012247Y1685681*
X2012250Y1685665*
Y1684064*
X2012552*
Y1685617*
X2008802D02*
X2008759Y1685918D01*
X2008635Y1686166*
X2008433Y1686287*
X2008139Y1686329*
X2007925Y1686286*
X2007758Y1686244*
X2007595Y1686122*
X2007466Y1685908*
X2007378Y1685911*
X2007293Y1686082*
X2007172Y1686203*
X2006962Y1686287*
X2006755Y1686328*
X2006755D02*
X2006590Y1686287D01*
X2006380Y1686203*
X2006119Y1685943*
X2006034Y1685978*
Y1686285*
X2005732*
Y1684064*
X2006034*
Y1685487*
X2006035Y1685499*
X2006080Y1685678*
X2006090Y1685697*
X2006313Y1685965*
X2006338Y1685981*
X2006650Y1686071*
X2006676*
X2006855Y1686026*
X2006871Y1686020*
X2007004Y1685930*
X2007021Y1685911*
X2007111Y1685732*
X2007116Y1685710*
Y1684064*
X2007418*
Y1685353*
Y1685360*
X2007463Y1685673*
X2007472Y1685695*
X2007606Y1685874*
X2007616Y1685884*
X2007795Y1686018*
X2007815Y1686027*
X2008038Y1686072*
X2008058*
X2008281Y1686027*
X2008311Y1686008*
X2008445Y1685829*
X2008453Y1685815*
X2008497Y1685681*
X2008500Y1685665*
Y1684064*
X2008802*
Y1685617*
X2005141Y1686016D02*
X2005054Y1686320D01*
X2004879Y1686802*
X2004753Y1686969*
X2004590Y1687092*
X2004163Y1687177*
X2003867Y1687135*
X2003616Y1687010*
X2003449Y1686800*
X2003319Y1686498*
X2003232Y1686104*
X2003187Y1685574*
Y1685181*
X2003275Y1684830*
X2003362Y1684525*
X2003487Y1684316*
X2003783Y1684105*
X2004166Y1684020*
X2004462Y1684062*
X2004712Y1684187*
X2004880Y1684397*
X2005009Y1684699*
X2005097Y1685093*
X2005141Y1685578*
Y1686016*
X2004839Y1685933D02*
Y1685219D01*
Y1685211*
X2004794Y1684943*
Y1684941*
X2004749Y1684718*
X2004745Y1684706*
X2004655Y1684527*
X2004642Y1684510*
X2004419Y1684332*
X2004397Y1684322*
X2004174Y1684277*
X2004154*
X2003931Y1684322*
X2003910Y1684332*
X2003687Y1684510*
X2003673Y1684527*
X2003584Y1684706*
X2003579Y1684718*
X2003535Y1684941*
Y1684943*
X2003490Y1685211*
X2003489Y1685219*
Y1685933*
X2003490Y1685940*
X2003534Y1686253*
X2003535Y1686256*
X2003579Y1686479*
X2003584Y1686491*
X2003673Y1686670*
X2003687Y1686687*
X2003910Y1686865*
X2003931Y1686875*
X2004154Y1686920*
X2004172*
X2004440Y1686875*
X2004471Y1686857*
X2004650Y1686634*
X2004652Y1686631*
X2004742Y1686497*
X2004749Y1686479*
X2004794Y1686256*
Y1686253*
X2004839Y1685940*
Y1685933*
X2002418Y1684365D02*
X2002116D01*
Y1684064*
X2002418*
Y1684365*
X2001390Y1684953D02*
X2001348Y1685205D01*
X2001264Y1685414*
X2001099Y1685580*
X2000838Y1685710*
X2000835Y1685798*
X2001053Y1685928*
X2001177Y1686052*
X2001260Y1686219*
X2001301Y1686383*
X2001259Y1686716*
X2001050Y1686967*
X2000798Y1687135*
X2000414Y1687178*
X2000030Y1687135*
X1999778Y1686967*
X1999569Y1686716*
X1999527Y1686426*
X1999569Y1686218*
X1999652Y1686052*
X1999776Y1685928*
X1999993Y1685798*
X1999993D02*
X1999984Y1685707D01*
X1999727Y1685622*
X1999565Y1685460*
X1999481Y1685207*
X1999438Y1684953*
X1999524Y1684568*
X1999692Y1684273*
X2000029Y1684062*
X2000414Y1684019*
X2000799Y1684062*
X2001136Y1684273*
X2001305Y1684568*
X2001390Y1684953*
X2000998Y1686368D02*
X2000954Y1686189D01*
X2000947Y1686173*
X2000858Y1686039*
X2000858D02*
X2000838Y1686023D01*
X2000660Y1685933*
X2000647Y1685929*
X2000424Y1685884*
X2000404*
X2000181Y1685929*
X2000169Y1685933*
X1999990Y1686023*
X1999971Y1686039*
X1999971D02*
X1999882Y1686173D01*
X1999874Y1686191*
X1999829Y1686415*
X1999830Y1686437*
X1999830D02*
X1999875Y1686615D01*
X1999882Y1686631*
X1999971Y1686765*
X1999990Y1686782*
X2000169Y1686871*
X2000181Y1686875*
X2000404Y1686920*
X2000424*
X2000647Y1686875*
X2000660Y1686871*
X2000838Y1686782*
X2000861Y1686759*
X2000950Y1686581*
X2000954Y1686570*
X2000998Y1686392*
Y1686368*
X2001089Y1684951D02*
Y1684943D01*
X2001044Y1684675*
X2001035Y1684653*
X2000901Y1684475*
X2000891Y1684465*
X2000712Y1684331*
X2000690Y1684321*
X2000422Y1684277*
X2000414Y1684276*
X2000236*
X2000208Y1684285*
X2000077Y1684372*
X1999901Y1684460*
X1999882Y1684477*
X1999792Y1684611*
X1999784Y1684632*
X1999740Y1684944*
X1999739Y1684951*
X1999740Y1684961*
X1999785Y1685184*
X1999791Y1685200*
X1999925Y1685423*
X1999938Y1685438*
X2000116Y1685572*
X2000138Y1685581*
X2000406Y1685625*
X2000422*
X2000690Y1685581*
X2000712Y1685572*
X2000891Y1685438*
X2000904Y1685423*
X2001037Y1685200*
X2001044Y1685184*
X2001088Y1684961*
X2001089Y1684951*
X1998311Y1687178D02*
X1998121D01*
X1998002Y1686979*
X1997994Y1686969*
X1997771Y1686746*
X1997763Y1686740*
X1997496Y1686561*
X1997493Y1686560*
X1997205Y1686395*
Y1686103*
X1997575Y1686289*
X1997929Y1686554*
X1998009Y1686514*
Y1684064*
X1998311*
Y1687178*
X1997300Y1686151D02*
Y1686449D01*
X1997400Y1686201D02*
Y1686507D01*
X1997500Y1686251D02*
Y1686564D01*
X1997600Y1686307D02*
Y1686631D01*
X1997700Y1686382D02*
Y1686698D01*
X1997800Y1686457D02*
Y1686775D01*
X1997900Y1686532D02*
Y1686875D01*
X1998000Y1686542D02*
Y1686976D01*
X1998100Y1684064D02*
Y1687143D01*
X1998200Y1684064D02*
Y1687178D01*
X1998300Y1684064D02*
Y1687178D01*
X1999500Y1684675D02*
Y1685265D01*
X1999600Y1684434D02*
Y1685495D01*
Y1686156D02*
Y1686753D01*
X1999700Y1684268D02*
Y1685595D01*
Y1686004D02*
Y1686873D01*
X1999800Y1684205D02*
Y1684599D01*
Y1685215D02*
Y1685646D01*
Y1685914D02*
Y1686982D01*
X1999900Y1684143D02*
Y1684460D01*
Y1685382D02*
Y1685679D01*
Y1685854D02*
Y1686146D01*
Y1686658D02*
Y1687048D01*
X2000000Y1684080D02*
Y1684410D01*
Y1685484D02*
Y1685717D01*
Y1685793D02*
Y1686018D01*
Y1686787D02*
Y1687115D01*
X2000100Y1684054D02*
Y1684356D01*
Y1685559D02*
Y1685968D01*
Y1686837D02*
Y1687143D01*
X2000200Y1684043D02*
Y1684290D01*
Y1685591D02*
Y1685925D01*
Y1686879D02*
Y1687154D01*
X2000300Y1684032D02*
Y1684276D01*
Y1685608D02*
Y1685905D01*
Y1686899D02*
Y1687165D01*
X2000400Y1684021D02*
Y1684276D01*
Y1685624D02*
Y1685885D01*
Y1686919D02*
Y1687176D01*
X2000500Y1684029D02*
Y1684290D01*
Y1685613D02*
Y1685899D01*
Y1686905D02*
Y1687168D01*
X2000600Y1684040D02*
Y1684306D01*
Y1685596D02*
Y1685919D01*
Y1686885D02*
Y1687157D01*
X2000700Y1684051D02*
Y1684324D01*
Y1685578D02*
Y1685953D01*
Y1686851D02*
Y1687146D01*
X2000800Y1684063D02*
Y1684397D01*
Y1685506D02*
Y1686003D01*
Y1686801D02*
Y1687134D01*
X2000900Y1684125D02*
Y1684474D01*
Y1685428D02*
Y1685679D01*
Y1685837D02*
Y1686103D01*
Y1686681D02*
Y1687067D01*
X2001000Y1684188D02*
Y1684607D01*
Y1685262D02*
Y1685629D01*
Y1685897D02*
Y1687001D01*
X2001100Y1684250D02*
Y1685579D01*
Y1685976D02*
Y1686907D01*
X2001200Y1684385D02*
Y1685479D01*
Y1686099D02*
Y1686787D01*
X2001300Y1684560D02*
Y1685325D01*
Y1686379D02*
Y1686390D01*
X2002200Y1684064D02*
Y1684365D01*
X2002300Y1684064D02*
Y1684365D01*
X2002400Y1684064D02*
Y1684365D01*
X2003200Y1685130D02*
Y1685725D01*
X2003300Y1684743D02*
Y1686412D01*
X2003400Y1684462D02*
Y1686687D01*
X2003500Y1684307D02*
Y1685150D01*
Y1686012D02*
Y1686865D01*
X2003600Y1684236D02*
Y1684673D01*
Y1686524D02*
Y1686990D01*
X2003700Y1684164D02*
Y1684500D01*
Y1686697D02*
Y1687052D01*
X2003800Y1684101D02*
Y1684420D01*
Y1686777D02*
Y1687102D01*
X2003900Y1684079D02*
Y1684340D01*
Y1686857D02*
Y1687140D01*
X2004000Y1684057D02*
Y1684308D01*
Y1686889D02*
Y1687154D01*
X2004100Y1684035D02*
Y1684288D01*
Y1686909D02*
Y1687168D01*
X2004200Y1684025D02*
Y1684282D01*
Y1686916D02*
Y1687170D01*
X2004300Y1684039D02*
Y1684302D01*
Y1686899D02*
Y1687150D01*
X2004400Y1684053D02*
Y1684322D01*
Y1686882D02*
Y1687130D01*
X2004500Y1684081D02*
Y1684397D01*
Y1686821D02*
Y1687110D01*
X2004600Y1684131D02*
Y1684477D01*
Y1686696D02*
Y1687084D01*
X2004700Y1684181D02*
Y1684616D01*
Y1686559D02*
Y1687009D01*
X2004800Y1684297D02*
Y1684980D01*
Y1686211D02*
Y1686907D01*
X2004900Y1684444D02*
Y1686743D01*
X2005000Y1684677D02*
Y1686468D01*
X2005100Y1685128D02*
Y1686159D01*
X2005800Y1684064D02*
Y1686285D01*
X2005900Y1684064D02*
Y1686285D01*
X2006000Y1684064D02*
Y1686285D01*
X2006100Y1685709D02*
Y1685931D01*
X2006200Y1685829D02*
Y1686023D01*
X2006300Y1685949D02*
Y1686123D01*
X2006400Y1685999D02*
Y1686211D01*
X2006500Y1686028D02*
Y1686251D01*
X2006600Y1686056D02*
Y1686290D01*
X2006700Y1686065D02*
Y1686315D01*
X2006800Y1686040D02*
Y1686319D01*
X2006900Y1686000D02*
Y1686299D01*
X2007000Y1685933D02*
Y1686272D01*
X2007100Y1685754D02*
Y1686232D01*
X2007200Y1684064D02*
Y1686175D01*
X2007300Y1684064D02*
Y1686068D01*
X2007400Y1684064D02*
Y1685889D01*
X2007500Y1685732D02*
Y1685964D01*
X2007600Y1685866D02*
Y1686126D01*
X2007700Y1685947D02*
Y1686201D01*
X2007800Y1686021D02*
Y1686255D01*
X2007900Y1686044D02*
Y1686280D01*
X2008000Y1686064D02*
Y1686301D01*
X2008100Y1686063D02*
Y1686321D01*
X2008200Y1686043D02*
Y1686320D01*
X2008300Y1686019D02*
Y1686306D01*
X2008400Y1685890D02*
Y1686292D01*
X2008500Y1684064D02*
Y1686247D01*
X2008600Y1684064D02*
Y1686187D01*
X2008700Y1684064D02*
Y1686036D01*
X2008800Y1684064D02*
Y1685629D01*
X2009500Y1684064D02*
Y1686285D01*
X2009600Y1684064D02*
Y1686285D01*
X2009700Y1684064D02*
Y1686285D01*
X2009800Y1685558D02*
Y1685941D01*
X2009900Y1685769D02*
Y1685973D01*
X2010000Y1685889D02*
Y1686073D01*
X2010100Y1685985D02*
Y1686173D01*
X2010200Y1686013D02*
Y1686231D01*
X2010300Y1686042D02*
Y1686271D01*
X2010400Y1686071D02*
Y1686302D01*
X2010500Y1686053D02*
Y1686327D01*
X2010600Y1686028D02*
Y1686309D01*
X2010700Y1685967D02*
Y1686289D01*
X2010800Y1685854D02*
Y1686252D01*
X2010900Y1684064D02*
Y1686212D01*
X2011000Y1684064D02*
Y1686125D01*
X2011100Y1684064D02*
Y1685968D01*
X2011200Y1685582D02*
Y1685891D01*
X2011300Y1685799D02*
Y1686048D01*
X2011400Y1685909D02*
Y1686164D01*
X2011500Y1685984D02*
Y1686239D01*
X2011600Y1686034D02*
Y1686268D01*
X2011700Y1686054D02*
Y1686291D01*
X2011800Y1686073D02*
Y1686311D01*
X2011900Y1686053D02*
Y1686327D01*
X2012000Y1686033D02*
Y1686313D01*
X2012100Y1685956D02*
Y1686299D01*
X2012200Y1685822D02*
Y1686277D01*
X2012300Y1684064D02*
Y1686217D01*
X2012400Y1684064D02*
Y1686136D01*
X2012500Y1684064D02*
Y1685936D01*
X2046700Y1623086D02*
Y1623357D01*
Y1625399D02*
Y1625452D01*
X2046800Y1623086D02*
Y1623554D01*
Y1625388D02*
Y1625749D01*
X2046900Y1623086D02*
Y1623679D01*
Y1625377D02*
Y1625889D01*
X2047000Y1623086D02*
Y1623804D01*
Y1625435D02*
Y1626005D01*
X2047100Y1623086D02*
Y1623390D01*
Y1623498D02*
Y1623929D01*
Y1625658D02*
Y1626062D01*
X2047200Y1623086D02*
Y1623388D01*
Y1623623D02*
Y1624018D01*
Y1625773D02*
Y1626120D01*
X2047300Y1623086D02*
Y1623388D01*
Y1623728D02*
Y1624104D01*
Y1625848D02*
Y1626161D01*
X2047400Y1623086D02*
Y1623388D01*
Y1623803D02*
Y1624189D01*
Y1625902D02*
Y1626172D01*
X2047500Y1623086D02*
Y1623388D01*
Y1623882D02*
Y1624278D01*
Y1625918D02*
Y1626183D01*
X2047600Y1623086D02*
Y1623388D01*
Y1623966D02*
Y1624367D01*
Y1625935D02*
Y1626194D01*
X2047700Y1623086D02*
Y1623388D01*
Y1624049D02*
Y1624456D01*
Y1625934D02*
Y1626188D01*
X2047800Y1623086D02*
Y1623388D01*
Y1624136D02*
Y1624544D01*
Y1625914D02*
Y1626166D01*
X2047900Y1623086D02*
Y1623388D01*
Y1624224D02*
Y1624655D01*
Y1625892D02*
Y1626144D01*
X2048000Y1623086D02*
Y1623388D01*
Y1624311D02*
Y1624772D01*
Y1625817D02*
Y1626122D01*
X2048100Y1623086D02*
Y1623388D01*
Y1624411D02*
Y1624891D01*
Y1625739D02*
Y1626077D01*
X2048200Y1623086D02*
Y1623388D01*
Y1624531D02*
Y1625058D01*
Y1625639D02*
Y1626020D01*
X2048300Y1623086D02*
Y1623388D01*
Y1624653D02*
Y1625962D01*
X2048400Y1623086D02*
Y1623388D01*
Y1624787D02*
Y1625863D01*
X2048500Y1623086D02*
Y1623388D01*
Y1625029D02*
Y1625743D01*
X2048600Y1623086D02*
Y1623388D01*
X2049300Y1623568D02*
Y1623848D01*
Y1624595D02*
Y1624739D01*
X2049400Y1623415D02*
Y1623859D01*
Y1624583D02*
Y1625268D01*
X2049500Y1623275D02*
Y1623871D01*
Y1624572D02*
Y1625796D01*
X2049600Y1623205D02*
Y1623684D01*
Y1624564D02*
Y1626156D01*
X2049700Y1623147D02*
Y1623470D01*
Y1624664D02*
Y1624906D01*
Y1625244D02*
Y1626156D01*
X2049800Y1623090D02*
Y1623401D01*
Y1624764D02*
Y1624959D01*
Y1625835D02*
Y1626156D01*
X2049900Y1623073D02*
Y1623351D01*
Y1624802D02*
Y1625025D01*
Y1625854D02*
Y1626156D01*
X2050000Y1623061D02*
Y1623328D01*
Y1624830D02*
Y1625087D01*
Y1625854D02*
Y1626156D01*
X2050100Y1623048D02*
Y1623308D01*
Y1624859D02*
Y1625102D01*
Y1625854D02*
Y1626156D01*
X2050200Y1623050D02*
Y1623305D01*
Y1624865D02*
Y1625116D01*
Y1625854D02*
Y1626156D01*
X2050300Y1623067D02*
Y1623319D01*
Y1624851D02*
Y1625124D01*
Y1625854D02*
Y1626156D01*
X2050400Y1623083D02*
Y1623333D01*
Y1624837D02*
Y1625099D01*
Y1625854D02*
Y1626156D01*
X2050500Y1623103D02*
Y1623358D01*
Y1624813D02*
Y1625074D01*
Y1625854D02*
Y1626156D01*
X2050600Y1623123D02*
Y1623458D01*
Y1624738D02*
Y1625049D01*
Y1625854D02*
Y1626156D01*
X2050700Y1623186D02*
Y1623570D01*
Y1624645D02*
Y1624987D01*
Y1625854D02*
Y1626156D01*
X2050800Y1623264D02*
Y1623737D01*
Y1624478D02*
Y1624916D01*
Y1625854D02*
Y1626156D01*
X2050900Y1623364D02*
Y1624844D01*
Y1625854D02*
Y1626156D01*
X2051000Y1623494D02*
Y1624717D01*
X2051100Y1623669D02*
Y1624577D01*
X2051900Y1623086D02*
Y1623388D01*
X2052000Y1623086D02*
Y1623388D01*
X2052100Y1623086D02*
Y1623388D01*
X2053000Y1623768D02*
Y1623843D01*
X2053100Y1623485D02*
Y1623854D01*
Y1624589D02*
Y1625003D01*
X2053200Y1623345D02*
Y1623865D01*
Y1624578D02*
Y1625532D01*
X2053300Y1623233D02*
Y1623834D01*
Y1624567D02*
Y1626060D01*
X2053400Y1623176D02*
Y1623570D01*
Y1624614D02*
Y1626156D01*
X2053500Y1623119D02*
Y1623426D01*
Y1624714D02*
Y1624925D01*
Y1625560D02*
Y1626156D01*
X2053600Y1623079D02*
Y1623376D01*
Y1624787D02*
Y1624992D01*
Y1625854D02*
Y1626156D01*
X2053700Y1623067D02*
Y1623338D01*
Y1624816D02*
Y1625059D01*
Y1625854D02*
Y1626156D01*
X2053800Y1623054D02*
Y1623318D01*
Y1624845D02*
Y1625095D01*
Y1625854D02*
Y1626156D01*
X2053900Y1623042D02*
Y1623298D01*
Y1624872D02*
Y1625109D01*
Y1625854D02*
Y1626156D01*
X2054000Y1623058D02*
Y1623312D01*
Y1624858D02*
Y1625123D01*
Y1625854D02*
Y1626156D01*
X2054100Y1623075D02*
Y1623326D01*
Y1624844D02*
Y1625111D01*
Y1625854D02*
Y1626156D01*
X2054200Y1623093D02*
Y1623341D01*
Y1624829D02*
Y1625086D01*
Y1625854D02*
Y1626156D01*
X2054300Y1623113D02*
Y1623408D01*
Y1624775D02*
Y1625061D01*
Y1625854D02*
Y1626156D01*
X2054400Y1623149D02*
Y1623508D01*
Y1624700D02*
Y1625023D01*
Y1625854D02*
Y1626156D01*
X2054500Y1623224D02*
Y1623653D01*
Y1624561D02*
Y1624951D01*
Y1625854D02*
Y1626156D01*
X2054600Y1623314D02*
Y1623955D01*
Y1624259D02*
Y1624880D01*
Y1625854D02*
Y1626156D01*
X2054700Y1623414D02*
Y1624787D01*
Y1625854D02*
Y1626156D01*
X2054800Y1623582D02*
Y1624647D01*
X2054900Y1623925D02*
Y1624356D01*
X2055600Y1623086D02*
Y1625307D01*
X2055700Y1623086D02*
Y1625307D01*
X2055800Y1623086D02*
Y1625307D01*
X2055900Y1624753D02*
Y1624964D01*
X2056000Y1624873D02*
Y1625064D01*
X2056100Y1624992D02*
Y1625164D01*
X2056200Y1625026D02*
Y1625241D01*
X2056300Y1625055D02*
Y1625281D01*
X2056400Y1625084D02*
Y1625317D01*
X2056500Y1625083D02*
Y1625342D01*
X2056600Y1625058D02*
Y1625338D01*
X2056700Y1625010D02*
Y1625318D01*
X2056800Y1624939D02*
Y1625287D01*
X2056900Y1623086D02*
Y1625247D01*
X2057000Y1623086D02*
Y1625179D01*
X2057100Y1623086D02*
Y1625054D01*
X2057200Y1624380D02*
Y1624906D01*
X2057300Y1624778D02*
Y1625016D01*
X2057400Y1624907D02*
Y1625162D01*
X2057500Y1624982D02*
Y1625237D01*
X2057600Y1625050D02*
Y1625282D01*
X2057700Y1625070D02*
Y1625307D01*
X2057800Y1625090D02*
Y1625327D01*
X2057900Y1625082D02*
Y1625347D01*
X2058000Y1625062D02*
Y1625340D01*
X2058100Y1625021D02*
Y1625326D01*
X2058200Y1624888D02*
Y1625311D01*
X2058300Y1623086D02*
Y1625258D01*
X2058400Y1623086D02*
Y1625198D01*
X2058500Y1623086D02*
Y1625022D01*
X2059300Y1623086D02*
Y1625307D01*
X2059400Y1623086D02*
Y1625307D01*
X2059500Y1623086D02*
Y1625307D01*
X2059600Y1624652D02*
Y1624953D01*
X2059700Y1624813D02*
Y1625014D01*
X2059800Y1624933D02*
Y1625114D01*
X2059900Y1625012D02*
Y1625214D01*
X2060000Y1625041D02*
Y1625261D01*
X2060100Y1625069D02*
Y1625301D01*
X2060200Y1625095D02*
Y1625329D01*
X2060300Y1625070D02*
Y1625348D01*
X2060400Y1625043D02*
Y1625328D01*
X2060500Y1624977D02*
Y1625307D01*
X2060600Y1624840D02*
Y1625267D01*
X2060700Y1623086D02*
Y1625227D01*
X2060800Y1623086D02*
Y1625129D01*
X2060900Y1623086D02*
Y1624954D01*
X2061000Y1624711D02*
Y1624933D01*
X2061100Y1624845D02*
Y1625100D01*
X2061200Y1624945D02*
Y1625199D01*
X2061300Y1625020D02*
Y1625269D01*
X2061400Y1625060D02*
Y1625294D01*
X2061500Y1625080D02*
Y1625317D01*
X2061600Y1625092D02*
Y1625337D01*
X2061700Y1625072D02*
Y1625347D01*
X2061800Y1625052D02*
Y1625333D01*
X2061900Y1624955D02*
Y1625319D01*
X2062000Y1624792D02*
Y1625288D01*
X2062100Y1623086D02*
Y1625228D01*
X2062200Y1623086D02*
Y1625122D01*
X2062300Y1623086D02*
Y1624875D01*
*
G04 PC Custom Flashes*
G04 Layer Name PCB_#30857_ESP32-WROOM- - flashes*
%LPD*%
*
*
G04 PC Circuitry*
G04 Layer Name PCB_#30857_ESP32-WROOM- - circuitry*
%LPD*%
*
G54D10*
X1968504Y1675019D02*
X1968507D01*
X2039370D02*
X2039373D01*
X2039370Y1574803D02*
X2039373D01*
X2039370Y1675019D02*
X2039373D01*
G54D44*
X1968504Y1675197D02*
X2039370D01*
Y1574803*
X1968504*
Y1675197*
G54D45*
X2008754Y1627819D03*
X1984254Y1638819D03*
Y1641319D03*
X1990754D03*
Y1638819D03*
G54D46*
X2008254Y1602569D03*
X1984004Y1616008D03*
X2011004Y1614869D03*
Y1619219D03*
G54D47*
X1992759Y1589712D03*
Y1594528D03*
X2001164Y1590619D03*
X2003754Y1593939D03*
X2007854Y1591009D03*
X2005004Y1587819D03*
X1985129Y1601944D03*
X1993129Y1600319D03*
X1992046Y1601662D03*
X1996129Y1595444D03*
X1999715Y1601127D03*
X2000428Y1602732D03*
X1998254Y1597694D03*
X1997574Y1602197D03*
X2007027Y1597025D03*
X2005243Y1599343D03*
X2004304Y1602619D03*
X2004629Y1600944D03*
X1982504Y1606694D03*
X1981004Y1609694D03*
X1983129Y1605069D03*
X1982237Y1610936D03*
X1979629Y1612444D03*
X1981254Y1607944D03*
X2011404Y1608019D03*
X2011624Y1605943D03*
X2015504Y1605819D03*
X2013754D03*
X2016254Y1611319D03*
X2014004Y1611119D03*
X2031754Y1605319D03*
X2031972Y1608195D03*
X2032066Y1610723D03*
X2031996Y1613016D03*
X1978491Y1624668D03*
X1978670Y1620388D03*
X1977421Y1621815D03*
X1979740Y1623241D03*
X1978135Y1618604D03*
X1980275Y1618069D03*
X2013404Y1619019D03*
X2020004Y1620069D03*
X2018754Y1621819D03*
X2021004D03*
X2014104Y1615019D03*
X2015804D03*
X2019504Y1617819D03*
X2015204Y1619919D03*
X2017204D03*
X2032004Y1620069D03*
X2032020Y1615285D03*
X2032066Y1617718D03*
X1979383Y1628057D03*
X1977600Y1628592D03*
X1979918Y1626273D03*
X1979205Y1632516D03*
X1983842Y1633051D03*
X2013564Y1624933D03*
X2034344Y1631539D03*
X1992754Y1636569D03*
X1995754Y1644069D03*
X1996504Y1636719D03*
X1998754Y1642819D03*
G54D51*
X2005504Y1605319D02*
X2008254Y1602569D01*
X1984004Y1616008D02*
X1988004D01*
X2008004Y1619219D02*
X2011004D01*
X2008004Y1614869D02*
X2011004D01*
G54D109*
X1980754Y1586944D02*
Y1607444D01*
X1981254Y1607944*
X1980754Y1586944D02*
X1985879Y1581819D01*
X2037010*
X2038120Y1580709*
X1978629Y1584944D02*
Y1609228D01*
X1980470Y1611069*
X1982237*
Y1610936*
X1978629Y1584944D02*
X1984254Y1579319D01*
X2018210*
X2021476Y1576053*
Y1574803*
X1979629Y1585444D02*
Y1608319D01*
X1981004Y1609694*
X1979629Y1585444D02*
X1984754Y1580319D01*
X2022210*
X2026476Y1576053*
Y1574803*
X1984754Y1588819D02*
Y1601569D01*
X1985129Y1601944*
X1984754Y1588819D02*
X1988004Y1585569D01*
X2027980*
X2038120Y1595709*
X1981754Y1604319D02*
Y1605944D01*
X1982504Y1606694*
X1981754Y1604319D02*
X1982754Y1603319D01*
Y1587694*
X1986879Y1583569*
X2029379*
X2031519Y1585709*
X2039370*
X1983129Y1605069D02*
X1983754Y1604444D01*
Y1588194*
X1987379Y1584569*
X2028635*
X2034775Y1590709*
X2038120*
X2015504Y1605819D02*
Y1602319D01*
X2018504Y1599319*
X2029754*
X2033504Y1603069*
Y1628569*
X2035644Y1630709*
X2039370*
X2013754Y1605819D02*
Y1602569D01*
X2018254Y1598069*
X2030254*
X2034504Y1602319*
Y1624819*
X2035394Y1625709*
X2039370*
X1982754Y1642569D02*
X1991754D01*
Y1637569*
X1982754*
Y1642569*
X2006857Y1608069D02*
X2009254D01*
Y1601922*
X2008775Y1601444*
X2007607*
X2004754Y1604297*
Y1605965*
X2006857Y1608069*
X1982754Y1642517D02*
X1991754D01*
X1982754Y1642067D02*
X1991754D01*
X1982754Y1641617D02*
X1991754D01*
X1982754Y1641167D02*
X1991754D01*
X1982754Y1640717D02*
X1991754D01*
X1982754Y1640267D02*
X1991754D01*
X1982754Y1639817D02*
X1991754D01*
X1982754Y1639367D02*
X1991754D01*
X1982754Y1638917D02*
X1991754D01*
X1982754Y1638467D02*
X1991754D01*
X1982754Y1638017D02*
X1991754D01*
X2006531Y1607742D02*
X2009254D01*
X2006081Y1607292D02*
X2009254D01*
X2005631Y1606842D02*
X2009254D01*
X2005181Y1606392D02*
X2009254D01*
X2004754Y1605942D02*
X2009254D01*
X2004754Y1605492D02*
X2009254D01*
X2004754Y1605042D02*
X2009254D01*
X2004754Y1604592D02*
X2009254D01*
X2004909Y1604142D02*
X2009254D01*
X2005359Y1603692D02*
X2009254D01*
X2005809Y1603242D02*
X2009254D01*
X2006259Y1602792D02*
X2009254D01*
X2006709Y1602342D02*
X2009254D01*
X2007159Y1601892D02*
X2009224D01*
X2015354Y1611119D02*
G75*
G03X2015354I-1350J0D01*
G01X1980555Y1632516D02*
G03X1980555I-1350J0D01*
G01X1985192Y1633051D02*
G03X1985192I-1350J0D01*
G01X1994109Y1589712D02*
G03X1994109I-1350J0D01*
G01Y1594528D02*
G03X1994109I-1350J0D01*
G01X2002514Y1590619D02*
G03X2002514I-1350J0D01*
G01X1997479Y1595444D02*
G03X1997479I-1350J0D01*
G01X1999604Y1597694D02*
G03X1999604I-1350J0D01*
G01X2009204Y1591009D02*
G03X2009204I-1350J0D01*
G01X2038120Y1576203D02*
Y1577919D01*
G03X2037970Y1578069I-150J-0*
G01X2035004*
X2034754Y1578319D02*
G03X2035004Y1578069I250J-0D01*
G01X2034754Y1578319D02*
Y1580669D01*
G03X2034604Y1580819I-150J-0*
G01X2023487*
G03X2023381Y1580563I-0J-150*
G01X2024346Y1579597*
G03X2024452Y1579553I106J106*
G01X2029064*
X2029314Y1579303D02*
G03X2029064Y1579553I-250J0D01*
G01X2029314Y1579303D02*
Y1576203D01*
G03X2029464Y1576053I150J0*
G01X2037970*
G03X2038120Y1576203I-0J150*
G01X2034754Y1582969D02*
Y1584559D01*
G03X2034604Y1584709I-150J-0*
G01X2031995*
G03X2031889Y1584665I0J-150*
G01X2030299Y1583075*
G03X2030405Y1582819I106J-106*
G01X2034604*
G03X2034754Y1582969I-0J150*
G01X2038120Y1643719D02*
Y1650419D01*
G03X2037970Y1650569I-150J-0*
G01X1969904*
G03X1969754Y1650419I-0J-150*
G01Y1643953*
G03X1969904Y1643803I150J0*
G01X1972834*
X1973084Y1643553D02*
G03X1972834Y1643803I-250J0D01*
G01X1973084Y1643553D02*
Y1577819D01*
X1972834Y1577569D02*
G03X1973084Y1577819I-0J250D01*
G01X1972834Y1577569D02*
X1969904D01*
G03X1969754Y1577419I-0J-150*
G01Y1576203*
G03X1969904Y1576053I150J0*
G01X1983104*
G03X1983254Y1576203I-0J150*
G01Y1578842*
G03X1983210Y1578948I-150J0*
G01X1977922Y1584237*
X1977629Y1584944D02*
G03X1977922Y1584237I1000J-0D01*
G01X1977629Y1584944D02*
Y1609228D01*
X1977922Y1609935D02*
G03X1977629Y1609228I707J-707D01*
G01X1977922Y1609935D02*
X1979011Y1611024D01*
G03X1978977Y1611261I-106J106*
G01X1980964Y1612241D02*
G03X1978977Y1611261I-1335J203D01*
G01X1980964Y1612241D02*
G03X1981112Y1612069I148J-22D01*
G01X1981460*
G03X1981537Y1612090I-0J150*
G01X1982460Y1609604D02*
G03X1981537Y1612090I-223J1332D01*
G01X1982460Y1609604D02*
G03X1982337Y1609480I25J-148D01*
G01X1982196Y1609060D02*
G03X1982337Y1609480I-1192J634D01*
G01X1982196Y1609060D02*
G03X1982221Y1608885I133J-70D01*
G01X1982588Y1608152D02*
G03X1982221Y1608885I-1334J-208D01*
G01X1982588Y1608152D02*
G03X1982713Y1608027I148J24D01*
G01X1983811Y1606357D02*
G03X1982713Y1608027I-1307J337D01*
G01X1983811Y1606357D02*
G03X1983874Y1606195I146J-37D01*
G01X1984474Y1605183D02*
G03X1983874Y1606195I-1345J-114D01*
G01X1984474Y1605183D02*
G03X1984510Y1605098I150J13D01*
G01X1984754Y1604444D02*
G03X1984510Y1605098I-1000J-0D01*
G01X1984754Y1604444D02*
Y1603427D01*
G03X1984926Y1603278I150J-0*
G01X1985826Y1600788D02*
G03X1984926Y1603278I-697J1156D01*
G01X1985826Y1600788D02*
G03X1985754Y1600659I78J-129D01*
G01Y1589295*
G03X1985798Y1589189I150J0*
G01X1988374Y1586613*
G03X1988480Y1586569I106J106*
G01X2003984*
G03X2004086Y1586829I0J150*
G01X2005922D02*
G03X2004086I-918J990D01*
G01X2005922D02*
G03X2006024Y1586569I102J-110D01*
G01X2027504*
G03X2027610Y1586613I-0J150*
G01X2034710Y1593713*
G03X2034754Y1593819I-106J106*
G01Y1600792*
G03X2034498Y1600898I-150J0*
G01X2030961Y1597362*
X2030254Y1597069D02*
G03X2030961Y1597362I-0J1000D01*
G01X2030254Y1597069D02*
X2018254D01*
X2017547Y1597362D02*
G03X2018254Y1597069I707J707D01*
G01X2017547Y1597362D02*
X2013047Y1601862D01*
X2012754Y1602569D02*
G03X2013047Y1601862I1000J-0D01*
G01X2012754Y1602569D02*
Y1604807D01*
G03X2012506Y1604921I-150J0*
G01X2010526Y1605157D02*
G03X2012506Y1604921I1098J786D01*
G01X2010526Y1605157D02*
G03X2010254Y1605070I-122J-87D01*
G01Y1601922*
X2009961Y1601215D02*
G03X2010254Y1601922I-707J707D01*
G01X2009961Y1601215D02*
X2009483Y1600737D01*
X2008775Y1600444D02*
G03X2009483Y1600737I0J1000D01*
G01X2008775Y1600444D02*
X2007607D01*
X2006900Y1600737D02*
G03X2007607Y1600444I707J707D01*
G01X2006900Y1600737D02*
X2006178Y1601459D01*
G03X2005928Y1601312I-106J-106*
G01X2005940Y1600620D02*
G03X2005928Y1601312I-1311J324D01*
G01X2005940Y1600620D02*
G03X2006001Y1600460I145J-36D01*
G01X2003933Y1599666D02*
G03X2006001Y1600460I1310J-323D01*
G01X2003933Y1599666D02*
G03X2003871Y1599826I-146J36D01*
G01X2003393Y1601486D02*
G03X2003871Y1599826I1236J-542D01*
G01X2003393Y1601486D02*
G03X2003360Y1601653I-138J60D01*
G01X2003240Y1603450D02*
G03X2003360Y1601653I1064J-831D01*
G01X2003240Y1603450D02*
G03X2003122Y1603692I-118J92D01*
G01X2001690*
G03X2001564Y1603461I0J-150*
G01X2001107Y1601565D02*
G03X2001564Y1603461I-679J1167D01*
G01X2001107Y1601565D02*
G03X2001036Y1601404I75J-130D01*
G01X1998387Y1600880D02*
G03X2001036Y1601404I1328J247D01*
G01X1998387Y1600880D02*
G03X1998173Y1600987I-147J-28D01*
G01X1996977Y1603407D02*
G03X1998173Y1600987I597J-1210D01*
G01X1996977Y1603407D02*
G03X1996911Y1603692I-66J135D01*
G01X1988896*
X1987305Y1604351D02*
G03X1988896Y1603692I1591J1591D01*
G01X1987305Y1604351D02*
X1986413Y1605243D01*
X1985754Y1606834D02*
G03X1986413Y1605243I2250J-0D01*
G01X1985754Y1606834D02*
Y1613858D01*
G03X1985604Y1614008I-150J-0*
G01X1984004*
Y1618008D02*
G03Y1614008I-0J-2000D01*
G01Y1618008D02*
X1985604D01*
G03X1985754Y1618158I-0J150*
G01Y1636419*
G03X1985604Y1636569I-150J-0*
G01X1982754*
X1981754Y1637569D02*
G03X1982754Y1636569I1000J-0D01*
G01X1981754Y1637569D02*
Y1642569D01*
X1982754Y1643569D02*
G03X1981754Y1642569I-0J-1000D01*
G01X1982754Y1643569D02*
X1991754D01*
X1992754Y1642569D02*
G03X1991754Y1643569I-1000J-0D01*
G01X1992754Y1642569D02*
Y1638061D01*
G03X1992889Y1637912I150J0*
G01X1991411Y1636434D02*
G03X1992889Y1637912I1343J135D01*
G01X1991411Y1636434D02*
G03X1991261Y1636569I-150J-15D01*
G01X1990404*
G03X1990254Y1636419I-0J-150*
G01Y1616008*
Y1608342*
G03X1990404Y1608192I150J-0*
G01X2004881*
X2005404Y1608130D02*
G03X2004881Y1608192I-523J-2188D01*
G01X2005404Y1608130D02*
G03X2005545Y1608170I35J146D01*
G01X2005710Y1608335*
G03X2005754Y1608441I-106J106*
G01Y1614869*
Y1619219*
Y1627069*
X2006413Y1628660D02*
G03X2005754Y1627069I1591J-1591D01*
G01X2006413Y1628660D02*
X2007163Y1629410D01*
X2010345Y1626228D02*
G03X2007163Y1629410I-1591J1591D01*
G01X2010345Y1626228D02*
X2010298Y1626181D01*
G03X2010254Y1626075I106J-106*
G01Y1621369*
G03X2010404Y1621219I150J-0*
G01X2011004*
Y1617219D02*
G03Y1621219I-0J2000D01*
G01Y1617219D02*
X2010404D01*
G03X2010254Y1617069I-0J-150*
G01Y1617019*
G03X2010404Y1616869I150J-0*
G01X2011004*
Y1612869D02*
G03Y1616869I-0J2000D01*
G01Y1612869D02*
X2010404D01*
G03X2010254Y1612719I-0J-150*
G01Y1609137*
G03X2010504Y1609025I150J-0*
G01X2012467Y1607187D02*
G03X2010504Y1609025I-1063J832D01*
G01X2012467Y1607187D02*
G03X2012489Y1606979I118J-93D01*
G01X2012638Y1606834D02*
G03X2012489Y1606979I-1014J-891D01*
G01X2012638Y1606834D02*
G03X2012851Y1606822I112J99D01*
G01X2014541Y1606915D02*
G03X2012851Y1606822I-787J-1096D01*
G01X2014541Y1606915D02*
G03X2014716I88J122D01*
G01X2016539Y1604952D02*
G03X2014716Y1606915I-1035J867D01*
G01X2016539Y1604952D02*
G03X2016504Y1604856I115J-96D01*
G01Y1602795*
G03X2016548Y1602689I150J0*
G01X2018874Y1600363*
G03X2018980Y1600319I106J106*
G01X2029278*
G03X2029384Y1600363I-0J150*
G01X2032460Y1603439*
G03X2032504Y1603545I-106J106*
G01Y1628569*
X2032797Y1629276D02*
G03X2032504Y1628569I707J-707D01*
G01X2032797Y1629276D02*
X2034710Y1631189D01*
G03X2034754Y1631295I-106J106*
G01Y1643319*
X2035004Y1643569D02*
G03X2034754Y1643319I-0J-250D01*
G01X2035004Y1643569D02*
X2037970D01*
G03X2038120Y1643719I-0J150*
G01X2015354Y1611119D02*
G03X2015354I-1350J0D01*
G01X1979090Y1617423D02*
G03X1979931Y1619375I1185J646D01*
G01X1979090Y1617423D02*
G03X1978876Y1617476I-132J-72D01*
G01X1977362Y1619711D02*
G03X1978876Y1617476I773J-1107D01*
G01X1977362Y1619711D02*
G03X1977415Y1619890I-86J123D01*
G01X1977320Y1620341D02*
G03X1977415Y1619890I1350J47D01*
G01X1977320Y1620341D02*
G03X1977196Y1620484I-149J-5D01*
G01X1978167Y1622940D02*
G03X1977196Y1620484I-746J-1125D01*
G01X1978167Y1622940D02*
G03X1978399Y1623083I83J125D01*
G01X1978391Y1623195D02*
G03X1978399Y1623083I1349J46D01*
G01X1978391Y1623195D02*
G03X1978266Y1623337I-150J-6D01*
G01X1978429Y1626017D02*
G03X1978266Y1623337I62J-1349D01*
G01X1978429Y1626017D02*
G03X1978572Y1626177I-7J150D01*
G01X1978663Y1626772D02*
G03X1978572Y1626177I1255J-499D01*
G01X1978663Y1626772D02*
G03X1978610Y1626950I-139J55D01*
G01X1978276Y1627284D02*
G03X1978610Y1626950I1107J773D01*
G01X1978276Y1627284D02*
G03X1978098Y1627337I-123J-86D01*
G01X1978706Y1629365D02*
G03X1978098Y1627337I-1106J-773D01*
G01X1978706Y1629365D02*
G03X1978885Y1629312I123J86D01*
G01X1980638Y1627558D02*
G03X1978885Y1629312I-1255J499D01*
G01X1980638Y1627558D02*
G03X1980691Y1627380I139J-55D01*
G01X1979981Y1624925D02*
G03X1980691Y1627380I-63J1348D01*
G01X1979981Y1624925D02*
G03X1979838Y1624764I7J-150D01*
G01X1979841Y1624715D02*
G03X1979838Y1624764I-1350J-47D01*
G01X1979841Y1624715D02*
G03X1979965Y1624573I149J5D01*
G01X1978994Y1622116D02*
G03X1979965Y1624573I746J1125D01*
G01X1978994Y1622116D02*
G03X1978762Y1621974I-83J-125D01*
G01X1978770Y1621862D02*
G03X1978762Y1621974I-1349J-47D01*
G01X1978770Y1621862D02*
G03X1978895Y1621719I150J5D01*
G01X1979771Y1619607D02*
G03X1978895Y1621719I-1101J781D01*
G01X1979771Y1619607D02*
G03X1979931Y1619375I122J-87D01*
G01X1980555Y1632516D02*
G03X1980555I-1350J0D01*
G01X1985192Y1633051D02*
G03X1985192I-1350J0D01*
G01X1994109Y1589712D02*
G03X1994109I-1350J0D01*
G01Y1594528D02*
G03X1994109I-1350J0D01*
G01X1991782Y1600230D02*
G03X1993501Y1601616I1347J89D01*
G01X1991782Y1600230D02*
G03X1991674Y1600364I-150J-10D01*
G01X1993393Y1601751D02*
G03X1991674Y1600364I-1347J-89D01*
G01X1993393Y1601751D02*
G03X1993501Y1601616I149J10D01*
G01X2002514Y1590619D02*
G03X2002514I-1350J0D01*
G01X1997479Y1595444D02*
G03X1997479I-1350J0D01*
G01X1999604Y1597694D02*
G03X1999604I-1350J0D01*
G01X2009204Y1591009D02*
G03X2009204I-1350J0D01*
G01X1969754Y1650007D02*
X2038120D01*
X1969754Y1649557D02*
X2038120D01*
X1969754Y1649107D02*
X2038120D01*
X1969754Y1648657D02*
X2038120D01*
X1969754Y1648207D02*
X2038120D01*
X1969754Y1647757D02*
X2038120D01*
X1969754Y1647307D02*
X2038120D01*
X1969754Y1646857D02*
X2038120D01*
X1969754Y1646407D02*
X2038120D01*
X1969754Y1645957D02*
X2038120D01*
X1969754Y1645507D02*
X2038120D01*
X1969754Y1645057D02*
X2038120D01*
X1969754Y1644607D02*
X2038120D01*
X1969754Y1644157D02*
X2038120D01*
X1973031Y1643707D02*
X2038119D01*
X1969759Y1650457D02*
X2038115D01*
X1992479Y1643257D02*
X2034754D01*
X1992725Y1642807D02*
X2034754D01*
X1992754Y1642357D02*
X2034754D01*
X1992754Y1641907D02*
X2034754D01*
X1992754Y1641457D02*
X2034754D01*
X1992754Y1641007D02*
X2034754D01*
X1992754Y1640557D02*
X2034754D01*
X1992754Y1640107D02*
X2034754D01*
X1992754Y1639657D02*
X2034754D01*
X1992754Y1639207D02*
X2034754D01*
X1992754Y1638757D02*
X2034754D01*
X1992754Y1638307D02*
X2034754D01*
X1993156Y1637857D02*
X2034754D01*
X1993812Y1637407D02*
X2034754D01*
X1994047Y1636957D02*
X2034754D01*
X1994103Y1636507D02*
X2034754D01*
X1994003Y1636057D02*
X2034754D01*
X1993702Y1635607D02*
X2034754D01*
X1990254Y1635157D02*
X2034754D01*
X1990254Y1634707D02*
X2034754D01*
X1990254Y1634257D02*
X2034754D01*
X1990254Y1633807D02*
X2034754D01*
X1990254Y1633357D02*
X2034754D01*
X1990254Y1632907D02*
X2034754D01*
X1990254Y1632457D02*
X2034754D01*
X1990254Y1632007D02*
X2034754D01*
X1990254Y1631557D02*
X2034754D01*
X2034107Y1600507D02*
X2034754D01*
X2033657Y1600057D02*
X2034754D01*
X2033207Y1599607D02*
X2034754D01*
X2032757Y1599157D02*
X2034754D01*
X2032307Y1598707D02*
X2034754D01*
X2031857Y1598257D02*
X2034754D01*
X2031407Y1597807D02*
X2034754D01*
X2030957Y1597357D02*
X2034754D01*
X1999351Y1596907D02*
X2034754D01*
X1998796Y1596457D02*
X2034754D01*
X1997356Y1596007D02*
X2034754D01*
X1997474Y1595557D02*
X2034754D01*
X1997436Y1595107D02*
X2034754D01*
X1997226Y1594657D02*
X2034754D01*
X1996671Y1594207D02*
X2034754D01*
X1993868Y1593757D02*
X2034741D01*
X1990254Y1631107D02*
X2034628D01*
X1993336Y1593307D02*
X2034304D01*
X1990254Y1630657D02*
X2034178D01*
X1985754Y1592857D02*
X2033854D01*
X1990254Y1630207D02*
X2033728D01*
X1985754Y1592407D02*
X2033404D01*
X2009896Y1629757D02*
X2033278D01*
X2008814Y1591957D02*
X2032954D01*
X2010441Y1629307D02*
X2032828D01*
X2010750Y1628857D02*
X2032546D01*
X2009108Y1591507D02*
X2032504D01*
X2010926Y1628407D02*
X2032504D01*
X2011000Y1627957D02*
X2032504D01*
X2010982Y1627507D02*
X2032504D01*
X2010871Y1627057D02*
X2032504D01*
X2010650Y1626607D02*
X2032504D01*
X2010279Y1626157D02*
X2032504D01*
X2010254Y1625707D02*
X2032504D01*
X2010254Y1625257D02*
X2032504D01*
X2010254Y1624807D02*
X2032504D01*
X2010254Y1624357D02*
X2032504D01*
X2010254Y1623907D02*
X2032504D01*
X2010254Y1623457D02*
X2032504D01*
X2010254Y1623007D02*
X2032504D01*
X2010254Y1622557D02*
X2032504D01*
X2010254Y1622107D02*
X2032504D01*
X2010254Y1621657D02*
X2032504D01*
X2011217Y1621207D02*
X2032504D01*
X2012282Y1620757D02*
X2032504D01*
X2012682Y1620307D02*
X2032504D01*
X2012899Y1619857D02*
X2032504D01*
X2012995Y1619407D02*
X2032504D01*
X2012987Y1618957D02*
X2032504D01*
X2012873Y1618507D02*
X2032504D01*
X2012632Y1618057D02*
X2032504D01*
X2012189Y1617607D02*
X2032504D01*
X2010283Y1617157D02*
X2032504D01*
X2011791Y1616707D02*
X2032504D01*
X2012443Y1616257D02*
X2032504D01*
X2012770Y1615807D02*
X2032504D01*
X2012943Y1615357D02*
X2032504D01*
X2013004Y1614907D02*
X2032504D01*
X2012961Y1614457D02*
X2032504D01*
X2012809Y1614007D02*
X2032504D01*
X2012514Y1613557D02*
X2032504D01*
X2011951Y1613107D02*
X2032504D01*
X2010254Y1612657D02*
X2032504D01*
X2014802Y1612207D02*
X2032504D01*
X2015193Y1611757D02*
X2032504D01*
X2015341Y1611307D02*
X2032504D01*
X2015328Y1610857D02*
X2032504D01*
X2015151Y1610407D02*
X2032504D01*
X2014692Y1609957D02*
X2032504D01*
X2010254Y1609507D02*
X2032504D01*
X2012266Y1609057D02*
X2032504D01*
X2012619Y1608607D02*
X2032504D01*
X2012747Y1608157D02*
X2032504D01*
X2012718Y1607707D02*
X2032504D01*
X2012519Y1607257D02*
X2032504D01*
X2016423Y1606807D02*
X2032504D01*
X2016742Y1606357D02*
X2032504D01*
X2016851Y1605907D02*
X2032504D01*
X2016805Y1605457D02*
X2032504D01*
X2016583Y1605007D02*
X2032504D01*
X2016504Y1604557D02*
X2032504D01*
X2016504Y1604107D02*
X2032504D01*
X2016504Y1603657D02*
X2032504D01*
X2016504Y1603207D02*
X2032228D01*
X2009203Y1591057D02*
X2032054D01*
X2016509Y1602757D02*
X2031778D01*
X2009143Y1590607D02*
X2031604D01*
X2016929Y1602307D02*
X2031328D01*
X2008902Y1590157D02*
X2031154D01*
X2017379Y1601857D02*
X2030878D01*
X2008213Y1589707D02*
X2030704D01*
X2017829Y1601407D02*
X2030428D01*
X1994030Y1589257D02*
X2030254D01*
X2018279Y1600957D02*
X2029978D01*
X2005923Y1588807D02*
X2029804D01*
X2018729Y1600507D02*
X2029528D01*
X2006242Y1588357D02*
X2029354D01*
X2006351Y1587907D02*
X2028904D01*
X2006305Y1587457D02*
X2028454D01*
X2006083Y1587007D02*
X2028004D01*
X1999561Y1597357D02*
X2017551D01*
X1999599Y1597807D02*
X2017101D01*
X2006046Y1598257D02*
X2016651D01*
X2006434Y1598707D02*
X2016201D01*
X2006580Y1599157D02*
X2015751D01*
X2006567Y1599607D02*
X2015301D01*
X2006389Y1600057D02*
X2014851D01*
X2009127Y1600507D02*
X2014401D01*
X2009703Y1600957D02*
X2013951D01*
X2010111Y1601407D02*
X2013501D01*
X2010254Y1609957D02*
X2013316D01*
X2010254Y1612207D02*
X2013206D01*
X2010252Y1601857D02*
X2013051D01*
X2010254Y1610407D02*
X2012857D01*
X2012669Y1606807D02*
X2012832D01*
X2010254Y1611757D02*
X2012815D01*
X2010254Y1602307D02*
X2012789D01*
X2010254Y1604557D02*
X2012754D01*
X2010254Y1604107D02*
X2012754D01*
X2010254Y1603657D02*
X2012754D01*
X2010254Y1603207D02*
X2012754D01*
X2010254Y1602757D02*
X2012754D01*
X2010254Y1610857D02*
X2012679D01*
X2010254Y1611307D02*
X2012667D01*
X2010254Y1605007D02*
X2010650D01*
X2010277Y1609057D02*
X2010542D01*
X1990254Y1629757D02*
X2007612D01*
X2002160Y1589707D02*
X2007495D01*
X2005957Y1600507D02*
X2007256D01*
X1990254Y1629307D02*
X2007061D01*
X2001338Y1591957D02*
X2006893D01*
X2002433Y1590157D02*
X2006806D01*
X2005979Y1600957D02*
X2006680D01*
X1990254Y1628857D02*
X2006611D01*
X2002180Y1591507D02*
X2006599D01*
X2002514Y1590607D02*
X2006565D01*
X2002441Y1591057D02*
X2006505D01*
X2005932Y1601407D02*
X2006230D01*
X1990254Y1628407D02*
X2006195D01*
X1990254Y1627957D02*
X2005937D01*
X1990254Y1627507D02*
X2005797D01*
X1990254Y1627057D02*
X2005754D01*
X1990254Y1626607D02*
X2005754D01*
X1990254Y1626157D02*
X2005754D01*
X1990254Y1625707D02*
X2005754D01*
X1990254Y1625257D02*
X2005754D01*
X1990254Y1624807D02*
X2005754D01*
X1990254Y1624357D02*
X2005754D01*
X1990254Y1623907D02*
X2005754D01*
X1990254Y1623457D02*
X2005754D01*
X1990254Y1623007D02*
X2005754D01*
X1990254Y1622557D02*
X2005754D01*
X1990254Y1622107D02*
X2005754D01*
X1990254Y1621657D02*
X2005754D01*
X1990254Y1621207D02*
X2005754D01*
X1990254Y1620757D02*
X2005754D01*
X1990254Y1620307D02*
X2005754D01*
X1990254Y1619857D02*
X2005754D01*
X1990254Y1619407D02*
X2005754D01*
X1990254Y1618957D02*
X2005754D01*
X1990254Y1618507D02*
X2005754D01*
X1990254Y1618057D02*
X2005754D01*
X1990254Y1617607D02*
X2005754D01*
X1990254Y1617157D02*
X2005754D01*
X1990254Y1616707D02*
X2005754D01*
X1990254Y1616257D02*
X2005754D01*
X1990254Y1615807D02*
X2005754D01*
X1990254Y1615357D02*
X2005754D01*
X1990254Y1614907D02*
X2005754D01*
X1990254Y1614457D02*
X2005754D01*
X1990254Y1614007D02*
X2005754D01*
X1990254Y1613557D02*
X2005754D01*
X1990254Y1613107D02*
X2005754D01*
X1990254Y1612657D02*
X2005754D01*
X1990254Y1612207D02*
X2005754D01*
X1990254Y1611757D02*
X2005754D01*
X1990254Y1611307D02*
X2005754D01*
X1990254Y1610857D02*
X2005754D01*
X1990254Y1610407D02*
X2005754D01*
X1990254Y1609957D02*
X2005754D01*
X1990254Y1609507D02*
X2005754D01*
X1990254Y1609057D02*
X2005754D01*
X1990254Y1608607D02*
X2005754D01*
X2005274Y1608157D02*
X2005530D01*
X1999481Y1598257D02*
X2004441D01*
X1993761Y1588807D02*
X2004085D01*
X1999146Y1598707D02*
X2004052D01*
X1987979Y1587007D02*
X2003925D01*
X1994276Y1599607D02*
X2003919D01*
X1993817Y1599157D02*
X2003906D01*
X1986629Y1588357D02*
X2003766D01*
X1987529Y1587457D02*
X2003703D01*
X1987079Y1587907D02*
X2003657D01*
X2000539Y1600057D02*
X2003611D01*
X2001035Y1601407D02*
X2003361D01*
X2000914Y1600507D02*
X2003351D01*
X2001054Y1600957D02*
X2003279D01*
X2001595Y1603657D02*
X2003217D01*
X2001457Y1601857D02*
X2003189D01*
X2001691Y1603207D02*
X2003089D01*
X2001710Y1602307D02*
X2002990D01*
X2001778Y1602757D02*
X2002961D01*
X1985754Y1591957D02*
X2000989D01*
X1994109Y1589707D02*
X2000168D01*
X1985754Y1591507D02*
X2000148D01*
X1994034Y1590157D02*
X1999895D01*
X1992876Y1591057D02*
X1999887D01*
X1993770Y1590607D02*
X1999814D01*
X1994453Y1600057D02*
X1998890D01*
X1994466Y1600507D02*
X1998515D01*
X1998110Y1600957D02*
X1998347D01*
X1997021Y1596457D02*
X1997712D01*
X1985754Y1598707D02*
X1997362D01*
X1985754Y1596907D02*
X1997157D01*
X1994318Y1600957D02*
X1997039D01*
X1985754Y1598257D02*
X1997027D01*
X1984754Y1603657D02*
X1997007D01*
X1985754Y1597357D02*
X1996946D01*
X1985754Y1597807D02*
X1996909D01*
X1985604Y1603207D02*
X1996679D01*
X1993927Y1601407D02*
X1996479D01*
X1992834Y1602757D02*
X1996346D01*
X1993381Y1601857D02*
X1996268D01*
X1993231Y1602307D02*
X1996229D01*
X1994071Y1594207D02*
X1995587D01*
X1985754Y1596457D02*
X1995237D01*
X1994103Y1594657D02*
X1995032D01*
X1985754Y1596007D02*
X1994902D01*
X1993978Y1595107D02*
X1994821D01*
X1993632Y1595557D02*
X1994784D01*
X1985754Y1591057D02*
X1992643D01*
X1985754Y1599157D02*
X1992441D01*
X1985754Y1593307D02*
X1992182D01*
X1985754Y1599607D02*
X1991982D01*
X1985754Y1595557D02*
X1991886D01*
X1990254Y1635607D02*
X1991806D01*
X1985754Y1600057D02*
X1991804D01*
X1986179Y1588807D02*
X1991757D01*
X1985754Y1590607D02*
X1991748D01*
X1985754Y1593757D02*
X1991650D01*
X1985754Y1595107D02*
X1991540D01*
X1990254Y1636057D02*
X1991504D01*
X1985759Y1589257D02*
X1991488D01*
X1985754Y1590157D02*
X1991484D01*
X1985754Y1594207D02*
X1991448D01*
X1985754Y1594657D02*
X1991415D01*
X1985754Y1589707D02*
X1991409D01*
X1990283Y1636507D02*
X1991382D01*
X1985754Y1600507D02*
X1991345D01*
X1986206Y1602757D02*
X1991257D01*
X1986051Y1600957D02*
X1990894D01*
X1986429Y1602307D02*
X1990860D01*
X1986368Y1601407D02*
X1990720D01*
X1986476Y1601857D02*
X1990710D01*
X1984754Y1604107D02*
X1987593D01*
X1984747Y1604557D02*
X1987098D01*
X1984580Y1605007D02*
X1986648D01*
X1984422Y1605457D02*
X1986224D01*
X1984187Y1605907D02*
X1985953D01*
X1983811Y1606357D02*
X1985805D01*
X1983849Y1606807D02*
X1985754D01*
X1973084Y1636057D02*
X1985754D01*
X1973084Y1635607D02*
X1985754D01*
X1973084Y1635157D02*
X1985754D01*
X1973084Y1634707D02*
X1985754D01*
X1984447Y1634257D02*
X1985754D01*
X1984960Y1633807D02*
X1985754D01*
X1985156Y1633357D02*
X1985754D01*
X1985184Y1632907D02*
X1985754D01*
X1985054Y1632457D02*
X1985754D01*
X1984699Y1632007D02*
X1985754D01*
X1980156Y1631557D02*
X1985754D01*
X1973084Y1631107D02*
X1985754D01*
X1973084Y1630657D02*
X1985754D01*
X1973084Y1630207D02*
X1985754D01*
X1978281Y1629757D02*
X1985754D01*
X1979892Y1629307D02*
X1985754D01*
X1980470Y1628857D02*
X1985754D01*
X1980687Y1628407D02*
X1985754D01*
X1980729Y1627957D02*
X1985754D01*
X1980627Y1627507D02*
X1985754D01*
X1981017Y1627057D02*
X1985754D01*
X1981226Y1626607D02*
X1985754D01*
X1981263Y1626157D02*
X1985754D01*
X1981144Y1625707D02*
X1985754D01*
X1980807Y1625257D02*
X1985754D01*
X1979841Y1624807D02*
X1985754D01*
X1980500Y1624357D02*
X1985754D01*
X1980914Y1623907D02*
X1985754D01*
X1981072Y1623457D02*
X1985754D01*
X1981069Y1623007D02*
X1985754D01*
X1980904Y1622557D02*
X1985754D01*
X1980472Y1622107D02*
X1985754D01*
X1979129Y1621657D02*
X1985754D01*
X1979743Y1621207D02*
X1985754D01*
X1979968Y1620757D02*
X1985754D01*
X1980017Y1620307D02*
X1985754D01*
X1979911Y1619857D02*
X1985754D01*
X1980455Y1619407D02*
X1985754D01*
X1981292Y1618957D02*
X1985754D01*
X1981552Y1618507D02*
X1985754D01*
X1980392Y1613557D02*
X1985754D01*
X1980805Y1613107D02*
X1985754D01*
X1980962Y1612657D02*
X1985754D01*
X1982690Y1612207D02*
X1985754D01*
X1983308Y1611757D02*
X1985754D01*
X1983534Y1611307D02*
X1985754D01*
X1983584Y1610857D02*
X1985754D01*
X1983479Y1610407D02*
X1985754D01*
X1983167Y1609957D02*
X1985754D01*
X1982344Y1609507D02*
X1985754D01*
X1982195Y1609057D02*
X1985754D01*
X1982430Y1608607D02*
X1985754D01*
X1982587Y1608157D02*
X1985754D01*
X1983396Y1607707D02*
X1985754D01*
X1983731Y1607257D02*
X1985754D01*
X1973084Y1636507D02*
X1985725D01*
X1981625Y1618057D02*
X1985715D01*
X1973084Y1614007D02*
X1985613D01*
X1973084Y1578457D02*
X1983254D01*
X1973084Y1578007D02*
X1983254D01*
X1969847Y1577557D02*
X1983254D01*
X1969754Y1577107D02*
X1983254D01*
X1969754Y1576657D02*
X1983254D01*
X1969754Y1576207D02*
X1983254D01*
X1973084Y1578907D02*
X1983239D01*
X1973084Y1634257D02*
X1983237D01*
X1980455Y1632007D02*
X1982985D01*
X1981543Y1617607D02*
X1982803D01*
X1973084Y1579357D02*
X1982801D01*
X1973084Y1614457D02*
X1982740D01*
X1979597Y1633807D02*
X1982724D01*
X1980553Y1632457D02*
X1982629D01*
X1980260Y1633357D02*
X1982527D01*
X1980497Y1632907D02*
X1982499D01*
X1981270Y1617157D02*
X1982367D01*
X1973084Y1579807D02*
X1982351D01*
X1973084Y1614907D02*
X1982334D01*
X1973084Y1616707D02*
X1982130D01*
X1973084Y1615357D02*
X1982113D01*
X1973084Y1643257D02*
X1982029D01*
X1973084Y1616257D02*
X1982020D01*
X1973084Y1615807D02*
X1982014D01*
X1973084Y1636957D02*
X1981963D01*
X1973084Y1580257D02*
X1981901D01*
X1980962Y1612207D02*
X1981784D01*
X1973084Y1642807D02*
X1981783D01*
X1973084Y1637407D02*
X1981767D01*
X1973084Y1642357D02*
X1981754D01*
X1973084Y1641907D02*
X1981754D01*
X1973084Y1641457D02*
X1981754D01*
X1973084Y1641007D02*
X1981754D01*
X1973084Y1640557D02*
X1981754D01*
X1973084Y1640107D02*
X1981754D01*
X1973084Y1639657D02*
X1981754D01*
X1973084Y1639207D02*
X1981754D01*
X1973084Y1638757D02*
X1981754D01*
X1973084Y1638307D02*
X1981754D01*
X1973084Y1637857D02*
X1981754D01*
X1973084Y1580707D02*
X1981451D01*
X1973084Y1581157D02*
X1981001D01*
X1973084Y1581607D02*
X1980551D01*
X1973084Y1582057D02*
X1980101D01*
X1979794Y1619407D02*
X1980094D01*
X1973084Y1582507D02*
X1979651D01*
X1973084Y1617157D02*
X1979279D01*
X1973084Y1582957D02*
X1979201D01*
X1978816Y1622107D02*
X1979007D01*
X1973084Y1611307D02*
X1978900D01*
X1978786Y1629307D02*
X1978873D01*
X1973084Y1613557D02*
X1978866D01*
X1973084Y1610857D02*
X1978844D01*
X1973084Y1633807D02*
X1978813D01*
X1973084Y1583407D02*
X1978751D01*
X1973084Y1626607D02*
X1978610D01*
X1973084Y1626157D02*
X1978572D01*
X1973084Y1627057D02*
X1978476D01*
X1973084Y1611757D02*
X1978466D01*
X1973084Y1613107D02*
X1978453D01*
X1973084Y1610407D02*
X1978394D01*
X1978054Y1623007D02*
X1978389D01*
X1973084Y1583857D02*
X1978301D01*
X1973084Y1612207D02*
X1978300D01*
X1973084Y1612657D02*
X1978296D01*
X1973084Y1631557D02*
X1978254D01*
X1973084Y1633357D02*
X1978149D01*
X1973084Y1632007D02*
X1977954D01*
X1973084Y1609957D02*
X1977944D01*
X1973084Y1632907D02*
X1977913D01*
X1973084Y1623457D02*
X1977894D01*
X1973084Y1584307D02*
X1977857D01*
X1973084Y1632457D02*
X1977856D01*
X1973084Y1609507D02*
X1977669D01*
X1973084Y1584757D02*
X1977646D01*
X1973084Y1625707D02*
X1977629D01*
X1973084Y1609057D02*
X1977629D01*
X1973084Y1608607D02*
X1977629D01*
X1973084Y1608157D02*
X1977629D01*
X1973084Y1607707D02*
X1977629D01*
X1973084Y1607257D02*
X1977629D01*
X1973084Y1606807D02*
X1977629D01*
X1973084Y1606357D02*
X1977629D01*
X1973084Y1605907D02*
X1977629D01*
X1973084Y1605457D02*
X1977629D01*
X1973084Y1605007D02*
X1977629D01*
X1973084Y1604557D02*
X1977629D01*
X1973084Y1604107D02*
X1977629D01*
X1973084Y1603657D02*
X1977629D01*
X1973084Y1603207D02*
X1977629D01*
X1973084Y1602757D02*
X1977629D01*
X1973084Y1602307D02*
X1977629D01*
X1973084Y1601857D02*
X1977629D01*
X1973084Y1601407D02*
X1977629D01*
X1973084Y1600957D02*
X1977629D01*
X1973084Y1600507D02*
X1977629D01*
X1973084Y1600057D02*
X1977629D01*
X1973084Y1599607D02*
X1977629D01*
X1973084Y1599157D02*
X1977629D01*
X1973084Y1598707D02*
X1977629D01*
X1973084Y1598257D02*
X1977629D01*
X1973084Y1597807D02*
X1977629D01*
X1973084Y1597357D02*
X1977629D01*
X1973084Y1596907D02*
X1977629D01*
X1973084Y1596457D02*
X1977629D01*
X1973084Y1596007D02*
X1977629D01*
X1973084Y1595557D02*
X1977629D01*
X1973084Y1595107D02*
X1977629D01*
X1973084Y1594657D02*
X1977629D01*
X1973084Y1594207D02*
X1977629D01*
X1973084Y1593757D02*
X1977629D01*
X1973084Y1593307D02*
X1977629D01*
X1973084Y1592857D02*
X1977629D01*
X1973084Y1592407D02*
X1977629D01*
X1973084Y1591957D02*
X1977629D01*
X1973084Y1591507D02*
X1977629D01*
X1973084Y1591057D02*
X1977629D01*
X1973084Y1590607D02*
X1977629D01*
X1973084Y1590157D02*
X1977629D01*
X1973084Y1589707D02*
X1977629D01*
X1973084Y1589257D02*
X1977629D01*
X1973084Y1588807D02*
X1977629D01*
X1973084Y1588357D02*
X1977629D01*
X1973084Y1587907D02*
X1977629D01*
X1973084Y1587457D02*
X1977629D01*
X1973084Y1587007D02*
X1977629D01*
X1973084Y1586557D02*
X1977629D01*
X1973084Y1586107D02*
X1977629D01*
X1973084Y1585657D02*
X1977629D01*
X1973084Y1585207D02*
X1977629D01*
X1973084Y1619857D02*
X1977424D01*
X1973084Y1623907D02*
X1977376D01*
X1973084Y1620307D02*
X1977322D01*
X1973084Y1625257D02*
X1977277D01*
X1973084Y1617607D02*
X1977225D01*
X1973084Y1624357D02*
X1977178D01*
X1973084Y1624807D02*
X1977149D01*
X1973084Y1619407D02*
X1977049D01*
X1973084Y1629757D02*
X1976918D01*
X1973084Y1618057D02*
X1976900D01*
X1973084Y1618957D02*
X1976832D01*
X1973084Y1627507D02*
X1976796D01*
X1973084Y1623007D02*
X1976789D01*
X1973084Y1618507D02*
X1976788D01*
X1973084Y1620757D02*
X1976582D01*
X1973084Y1629307D02*
X1976455D01*
X1973084Y1627957D02*
X1976408D01*
X1973084Y1622557D02*
X1976294D01*
X1973084Y1628857D02*
X1976276D01*
X1973084Y1628407D02*
X1976262D01*
X1973084Y1621207D02*
X1976216D01*
X1973084Y1622107D02*
X1976103D01*
X1973084Y1621657D02*
X1976080D01*
X2031532Y1584307D02*
X2034754D01*
X2031082Y1583857D02*
X2034754D01*
X2030632Y1583407D02*
X2034754D01*
X2030256Y1582957D02*
X2034753D01*
X2029314Y1577557D02*
X2038120D01*
X2029314Y1577107D02*
X2038120D01*
X2029314Y1576657D02*
X2038120D01*
X2029314Y1576207D02*
X2038120D01*
X2029314Y1578007D02*
X2038091D01*
X2023686Y1580257D02*
X2034754D01*
X2024136Y1579807D02*
X2034754D01*
X2029308Y1579357D02*
X2034754D01*
X2029314Y1578907D02*
X2034754D01*
X2029314Y1578457D02*
X2034754D01*
X2023342Y1580707D02*
X2034749D01*
X1968504Y1685889D02*
X1993664D01*
X1968504D02*
X1973504Y1686889D01*
Y1684889*
X1968504Y1685889*
X2039370D02*
X2014210D01*
X2039370D02*
X2034370Y1684889D01*
Y1686889*
X2039370Y1685889*
X1968504Y1677019D02*
Y1687889D01*
X2039370Y1677019D02*
Y1687889D01*
X2054344Y1574803D02*
Y1620036D01*
Y1574803D02*
X2053344Y1579803D01*
X2055344*
X2054344Y1574803*
Y1675019D02*
Y1629786D01*
Y1675019D02*
X2055344Y1670019D01*
X2053344*
X2054344Y1675019*
X2041370Y1574803D02*
X2056344D01*
X2041370Y1675019D02*
X2056344D01*
G54D120*
X1970459Y1576662D03*
X1977004Y1582319D03*
X1977662Y1576724D03*
X1974880D03*
X1973754Y1582569D03*
Y1579819D03*
X1976254Y1579569D03*
X1978754D03*
X1975254Y1584569D03*
X2031754Y1583444D03*
Y1576819D03*
X2033254Y1578819D03*
X2030254D03*
X2034004Y1583678D03*
X2037254Y1576819D03*
X2034754D03*
X1973717Y1593447D03*
X1973754Y1588319D03*
X1993629Y1587194D03*
X2000004Y1587569D03*
X1996194Y1592319D03*
X1997754Y1589569D03*
X1994879Y1590319D03*
X1996254Y1587694D03*
X2002754Y1588694D03*
X2021629Y1587694D03*
X2020754Y1592069D03*
X2024379Y1592194D03*
X2028254Y1588569D03*
X2031754Y1592194D03*
X2025129Y1587694D03*
X2028879Y1592319D03*
X2018504Y1602069D03*
X2021004Y1601069D03*
X2020754Y1603569D03*
X2017754Y1604569D03*
X2023404Y1603419D03*
X2031004Y1603069D03*
X2029004Y1601319D03*
X2026504D03*
X2023754Y1601069D03*
X1980879Y1614444D03*
X1992504Y1612553D03*
X2000754D03*
X2003504D03*
X2000754Y1609803D03*
X1995254Y1612553D03*
Y1609803D03*
X1998004Y1612553D03*
X2022254Y1605669D03*
X2018004Y1608819D03*
X2019504Y1610819D03*
X2017754Y1612569D03*
X2019304Y1606619D03*
X2024754Y1605669D03*
X1983129Y1623444D03*
X1992504Y1618053D03*
X2000754Y1615303D03*
X2003504Y1618053D03*
X2000754Y1620803D03*
X1998004Y1618053D03*
X1995254Y1615303D03*
X2000754Y1618303D03*
X1995254Y1620803D03*
Y1618053D03*
X2030254Y1621569D03*
X2027004D03*
X2028754Y1619569D03*
X1975754Y1634319D03*
X1973754Y1628319D03*
X1984879Y1624819D03*
X2003254Y1634319D03*
Y1631819D03*
X2010254Y1630319D03*
X2013004Y1632569D03*
X2008004Y1633319D03*
X2010504Y1632819D03*
X2021004Y1630819D03*
X2022754Y1625319D03*
X2023004Y1632569D03*
X2016504Y1633069D03*
X2020004Y1633319D03*
X2018004Y1630819D03*
X2015004D03*
X2025254Y1634569D03*
X2031254Y1634319D03*
X2029004Y1632319D03*
X2026504Y1629819D03*
X2025504Y1625819D03*
X2031904Y1624919D03*
X2028204Y1625019D03*
X2031704Y1628619D03*
X2030104Y1626719D03*
X1973694Y1635049D03*
X1977379Y1635944D03*
X1980629Y1635553D03*
X1973754Y1643178D03*
X1983504Y1644319D03*
X1988504D03*
X1991004D03*
X1986004D03*
X2003004Y1639319D03*
Y1636819D03*
X2000504Y1644319D03*
X2003004D03*
X2012254Y1636569D03*
X2012504Y1639069D03*
X2010004Y1638569D03*
X2012254Y1641569D03*
X2009504Y1641319D03*
X2008004Y1636819D03*
X2010004Y1635319D03*
X2005504Y1644069D03*
X2003754Y1641819D03*
X2021004Y1637569D03*
X2021754Y1635069D03*
X2023504Y1639569D03*
X2023254Y1642069D03*
X2018254Y1639069D03*
X2019004Y1635819D03*
X2020754Y1640069D03*
X2016504Y1636569D03*
X2015254Y1638819D03*
X2014254Y1634819D03*
X2020504Y1643319D03*
X2018004Y1642069D03*
X2015004Y1641569D03*
X2027504Y1636319D03*
X2023754Y1636819D03*
X2026254Y1638819D03*
X2028504Y1640569D03*
X2026004Y1641819D03*
X2028504Y1643219D03*
X2033504Y1635819D03*
X2032254Y1641569D03*
X2031004Y1643819D03*
X2025504Y1644569D03*
X2030754Y1639319D03*
X2034214Y1637959D03*
X2034004Y1643053D03*
X1971504Y1649319D03*
X1973504Y1646819D03*
X1974254Y1649319D03*
X1977254D03*
X1980604D03*
X1980754Y1645819D03*
X1982504Y1647569D03*
X1977504Y1645069D03*
X1978754Y1647319D03*
X1976004Y1647069D03*
X1987504Y1646819D03*
X1984604Y1649319D03*
X1988204D03*
X1991604D03*
X1990004Y1647069D03*
X1985004Y1646819D03*
X1992504D03*
X1997254Y1649319D03*
X2000254D03*
X2003504D03*
X1998004Y1645569D03*
X1994504Y1649319D03*
X2003004Y1646819D03*
X2000254D03*
X1995254Y1646569D03*
X2008754Y1647819D03*
X2010754Y1649319D03*
X2013254Y1648569D03*
X2013004Y1646069D03*
X2010504D03*
X2007504Y1645569D03*
X2006754Y1649319D03*
X2005504Y1647069D03*
X2022504Y1644819D03*
X2015754Y1649319D03*
X2019504Y1649569D03*
X2017754Y1647819D03*
X2015754Y1646319D03*
X2030004Y1649319D03*
X2027004D03*
X2024254D03*
Y1646819D03*
X2030004Y1646319D03*
X2032754Y1649319D03*
X2033004Y1645319D03*
X2027004Y1646819D03*
X2036254Y1649319D03*
X2034504Y1647569D03*
G54D121*
X2039370Y1645709D03*
X1968504Y1630709D03*
X2039370D03*
X1968504Y1625709D03*
X2039370D03*
X1968504Y1620709D03*
X2039370D03*
X1968504Y1615709D03*
Y1610709D03*
X2039370D03*
X1968504Y1605709D03*
X2039370D03*
X1968504Y1600709D03*
Y1645709D03*
X2039370Y1600709D03*
X1968504Y1595709D03*
X2039370D03*
X1968504Y1590709D03*
X2039370D03*
X1968504Y1585709D03*
X2039370D03*
X1968504Y1580709D03*
X2039384D03*
X2039370Y1640709D03*
X1968504Y1635709D03*
X2039370D03*
X1968504Y1640709D03*
X2039370Y1615709D03*
G54D122*
X1996476Y1574803D03*
X2001476D03*
X2006476D03*
X1981476D03*
X2011476D03*
X2016476D03*
X2021476D03*
X2026476D03*
X1986476D03*
X1991476D03*
G54D166*
X2005504Y1605319D02*
X2006004D01*
X2008004Y1607319*
Y1614869*
X1988004Y1639319D02*
Y1616008D01*
Y1606834*
X1988896Y1605942*
X2004881*
X2005504Y1605319*
X2008004Y1619219D02*
Y1627069D01*
X2008754Y1627819*
X2008004Y1614869D02*
Y1619219D01*
G74*
X0Y0D02*
M02*
