*
*
G04 PADS 9.5 Build Number: 522968 generated Gerber (RS-274-X) file*
G04 PC Version=2.1*
*
%IN "PCB_#30857_ESP32-WROOM-"*%
*
%MOIN*%
*
%FSLAX35Y35*%
*
*
*
*
G04 PC Standard Apertures*
*
*
G04 Thermal Relief Aperture macro.*
%AMTER*
1,1,$1,0,0*
1,0,$1-$2,0,0*
21,0,$3,$4,0,0,45*
21,0,$3,$4,0,0,135*
%
*
*
G04 Annular Aperture macro.*
%AMANN*
1,1,$1,0,0*
1,0,$2,0,0*
%
*
*
G04 Odd Aperture macro.*
%AMODD*
1,1,$1,0,0*
1,0,$1-0.005,0,0*
%
*
*
G04 PC Custom Aperture Macros*
*
*
*
*
*
*
G04 PC Aperture Table*
*
%ADD010C,0.001*%
%ADD014R,0.02X0.02*%
%ADD036R,0.03937X0.04331*%
%ADD044C,0.01*%
%ADD048C,0.006*%
%ADD109C,0.005*%
%ADD115R,0.03543X0.03543*%
%ADD133C,0.02362*%
%ADD174R,0.00787X0.0315*%
%ADD175R,0.0315X0.00787*%
%ADD186R,0.118X0.024*%
%ADD187O,0.118X0.024*%
%ADD188R,0.01181X0.01575*%
%ADD189R,0.01575X0.01181*%
%ADD190R,0.02756X0.01575*%
*
*
*
*
G04 PC Circuitry*
G04 Layer Name PCB_#30857_ESP32-WROOM- - circuitry*
%LPD*%
*
G54D10*
G01X2062334Y1624639D02*
X2062291Y1624940D01*
X2062167Y1625188*
X2061965Y1625309*
X2061671Y1625351*
X2061457Y1625309*
X2061290Y1625267*
X2061127Y1625145*
X2060998Y1624930*
X2060910Y1624933*
X2060825Y1625105*
X2060825D02*
X2060704Y1625225D01*
X2060494Y1625309*
X2060287Y1625351*
X2060122Y1625310*
X2059912Y1625225*
X2059651Y1624965*
X2059566Y1625000*
Y1625307*
X2059264*
Y1623086*
X2059566*
Y1624509*
X2059567Y1624521*
X2059612Y1624700*
X2059622Y1624720*
X2059845Y1624988*
X2059870Y1625004*
X2060182Y1625093*
X2060208*
X2060387Y1625049*
X2060403Y1625042*
X2060536Y1624953*
X2060553Y1624933*
X2060643Y1624755*
X2060648Y1624732*
Y1623086*
X2060950*
Y1624375*
Y1624382*
X2060995Y1624695*
X2061004Y1624718*
X2061138Y1624896*
X2061148Y1624906*
X2061327Y1625040*
X2061347Y1625049*
X2061570Y1625094*
X2061590*
X2061813Y1625049*
X2061843Y1625030*
X2061977Y1624852*
X2061985Y1624837*
X2062029Y1624704*
X2062029D02*
X2062032Y1624688D01*
Y1623086*
X2062334*
Y1624639*
X2058584D02*
X2058541Y1624940D01*
X2058417Y1625188*
X2058215Y1625309*
X2057921Y1625351*
X2057707Y1625309*
X2057540Y1625267*
X2057377Y1625145*
X2057248Y1624930*
X2057160Y1624933*
X2057075Y1625105*
X2057075D02*
X2056954Y1625225D01*
X2056744Y1625309*
X2056537Y1625351*
X2056372Y1625310*
X2056162Y1625225*
X2055901Y1624965*
X2055816Y1625000*
Y1625307*
X2055514*
Y1623086*
X2055816*
Y1624509*
X2055817Y1624521*
X2055862Y1624700*
X2055872Y1624720*
X2056095Y1624988*
X2056120Y1625004*
X2056432Y1625093*
X2056458*
X2056637Y1625049*
X2056653Y1625042*
X2056786Y1624953*
X2056803Y1624933*
X2056893Y1624755*
X2056898Y1624732*
Y1623086*
X2057200*
Y1624375*
Y1624382*
X2057245Y1624695*
X2057254Y1624718*
X2057388Y1624896*
X2057398Y1624906*
X2057577Y1625040*
X2057597Y1625049*
X2057820Y1625094*
X2057840*
X2058063Y1625049*
X2058093Y1625030*
X2058227Y1624852*
X2058235Y1624837*
X2058279Y1624704*
X2058279D02*
X2058282Y1624688D01*
Y1623086*
X2058584*
Y1624639*
X2054923Y1624152D02*
X2054880Y1624535D01*
X2054669Y1624830*
X2054371Y1625043*
X2054033Y1625128*
X2053741Y1625086*
X2053483Y1624914*
X2053405Y1624956*
X2053406Y1624963*
X2053540Y1625812*
X2053589Y1625854*
X2054744*
Y1626156*
X2053318*
X2053023Y1624597*
X2053347Y1624561*
X2053554Y1624768*
X2053575Y1624780*
X2053888Y1624870*
X2053909Y1624871*
X2054221Y1624826*
X2054244Y1624817*
X2054423Y1624683*
X2054436Y1624669*
X2054569Y1624446*
X2054576Y1624427*
X2054621Y1624114*
Y1624100*
X2054576Y1623788*
X2054569Y1623769*
X2054436Y1623546*
X2054428Y1623536*
X2054249Y1623358*
X2054221Y1623344*
X2053909Y1623299*
X2053892*
X2053669Y1623344*
X2053656Y1623348*
X2053477Y1623438*
X2053455Y1623460*
X2053366Y1623639*
X2053363Y1623645*
X2053287Y1623875*
X2052982Y1623841*
X2053055Y1623548*
X2053266Y1623252*
X2053561Y1623084*
X2053901Y1623042*
X2054160Y1623085*
X2054372Y1623127*
X2054538Y1623252*
X2054710Y1623424*
X2054880Y1623721*
X2054923Y1624152*
X2052200Y1623388D02*
X2051898D01*
Y1623086*
X2052200*
Y1623388*
X2051173Y1624152D02*
X2051130Y1624535D01*
X2050919Y1624830*
X2050621Y1625043*
X2050283Y1625128*
X2049991Y1625086*
X2049733Y1624914*
X2049655Y1624956*
X2049656Y1624963*
X2049790Y1625812*
X2049839Y1625854*
X2050994*
Y1626156*
X2049568*
X2049273Y1624597*
X2049597Y1624561*
X2049804Y1624768*
X2049825Y1624780*
X2050138Y1624870*
X2050159Y1624871*
X2050471Y1624826*
X2050494Y1624817*
X2050673Y1624683*
X2050686Y1624669*
X2050819Y1624446*
X2050826Y1624427*
X2050871Y1624114*
Y1624100*
X2050826Y1623788*
X2050819Y1623769*
X2050686Y1623546*
X2050678Y1623536*
X2050499Y1623358*
X2050471Y1623344*
X2050159Y1623299*
X2050142*
X2049919Y1623344*
X2049906Y1623348*
X2049727Y1623438*
X2049705Y1623460*
X2049616Y1623639*
X2049613Y1623645*
X2049537Y1623875*
X2049232Y1623841*
X2049305Y1623548*
X2049516Y1623252*
X2049811Y1623084*
X2050151Y1623042*
X2050410Y1623085*
X2050622Y1623127*
X2050788Y1623252*
X2050960Y1623424*
X2051130Y1623721*
X2051173Y1624152*
X2048628Y1623388D02*
X2047116D01*
X2047077Y1623469*
X2047255Y1623692*
X2047264Y1623701*
X2047442Y1623834*
X2047708Y1624056*
X2048062Y1624366*
X2048282Y1624629*
X2048411Y1624802*
X2048497Y1625016*
X2048583Y1625360*
X2048541Y1625694*
X2048333Y1625943*
X2048035Y1626114*
X2047649Y1626200*
X2047266Y1626157*
X2046972Y1625989*
X2046760Y1625693*
X2046687Y1625401*
X2046987Y1625367*
X2047022Y1625546*
X2047031Y1625566*
X2047165Y1625744*
X2047175Y1625754*
X2047354Y1625888*
X2047375Y1625898*
X2047643Y1625942*
X2047661*
X2047885Y1625897*
X2047905Y1625888*
X2048083Y1625754*
X2048089Y1625750*
X2048223Y1625616*
X2048236Y1625590*
X2048281Y1625367*
Y1625348*
X2048236Y1625124*
X2048230Y1625108*
X2048096Y1624885*
X2048091Y1624878*
X2047823Y1624566*
X2047819Y1624561*
X2047416Y1624203*
X2047107Y1623938*
X2047107D02*
X2046758Y1623502D01*
X2046673Y1623290*
X2046639Y1623086*
X2048628*
Y1623388*
X2012552Y1685617D02*
X2012509Y1685918D01*
X2012385Y1686166*
X2012183Y1686287*
X2011889Y1686329*
X2011675Y1686286*
X2011508Y1686244*
X2011345Y1686122*
X2011216Y1685908*
X2011128Y1685911*
X2011043Y1686082*
X2010922Y1686203*
X2010712Y1686287*
X2010505Y1686328*
X2010505D02*
X2010340Y1686287D01*
X2010130Y1686203*
X2009869Y1685943*
X2009784Y1685978*
Y1686285*
X2009482*
Y1684064*
X2009784*
Y1685487*
X2009785Y1685499*
X2009830Y1685678*
X2009840Y1685697*
X2010063Y1685965*
X2010088Y1685981*
X2010400Y1686071*
X2010426*
X2010605Y1686026*
X2010621Y1686020*
X2010754Y1685930*
X2010771Y1685911*
X2010861Y1685732*
X2010866Y1685710*
Y1684064*
X2011168*
Y1685353*
Y1685360*
X2011213Y1685673*
X2011222Y1685695*
X2011356Y1685874*
X2011366Y1685884*
X2011545Y1686018*
X2011565Y1686027*
X2011788Y1686072*
X2011808*
X2012031Y1686027*
X2012061Y1686008*
X2012195Y1685829*
X2012203Y1685815*
X2012247Y1685681*
X2012250Y1685665*
Y1684064*
X2012552*
Y1685617*
X2008802D02*
X2008759Y1685918D01*
X2008635Y1686166*
X2008433Y1686287*
X2008139Y1686329*
X2007925Y1686286*
X2007758Y1686244*
X2007595Y1686122*
X2007466Y1685908*
X2007378Y1685911*
X2007293Y1686082*
X2007172Y1686203*
X2006962Y1686287*
X2006755Y1686328*
X2006755D02*
X2006590Y1686287D01*
X2006380Y1686203*
X2006119Y1685943*
X2006034Y1685978*
Y1686285*
X2005732*
Y1684064*
X2006034*
Y1685487*
X2006035Y1685499*
X2006080Y1685678*
X2006090Y1685697*
X2006313Y1685965*
X2006338Y1685981*
X2006650Y1686071*
X2006676*
X2006855Y1686026*
X2006871Y1686020*
X2007004Y1685930*
X2007021Y1685911*
X2007111Y1685732*
X2007116Y1685710*
Y1684064*
X2007418*
Y1685353*
Y1685360*
X2007463Y1685673*
X2007472Y1685695*
X2007606Y1685874*
X2007616Y1685884*
X2007795Y1686018*
X2007815Y1686027*
X2008038Y1686072*
X2008058*
X2008281Y1686027*
X2008311Y1686008*
X2008445Y1685829*
X2008453Y1685815*
X2008497Y1685681*
X2008500Y1685665*
Y1684064*
X2008802*
Y1685617*
X2005141Y1686016D02*
X2005054Y1686320D01*
X2004879Y1686802*
X2004753Y1686969*
X2004590Y1687092*
X2004163Y1687177*
X2003867Y1687135*
X2003616Y1687010*
X2003449Y1686800*
X2003319Y1686498*
X2003232Y1686104*
X2003187Y1685574*
Y1685181*
X2003275Y1684830*
X2003362Y1684525*
X2003487Y1684316*
X2003783Y1684105*
X2004166Y1684020*
X2004462Y1684062*
X2004712Y1684187*
X2004880Y1684397*
X2005009Y1684699*
X2005097Y1685093*
X2005141Y1685578*
Y1686016*
X2004839Y1685933D02*
Y1685219D01*
Y1685211*
X2004794Y1684943*
Y1684941*
X2004749Y1684718*
X2004745Y1684706*
X2004655Y1684527*
X2004642Y1684510*
X2004419Y1684332*
X2004397Y1684322*
X2004174Y1684277*
X2004154*
X2003931Y1684322*
X2003910Y1684332*
X2003687Y1684510*
X2003673Y1684527*
X2003584Y1684706*
X2003579Y1684718*
X2003535Y1684941*
Y1684943*
X2003490Y1685211*
X2003489Y1685219*
Y1685933*
X2003490Y1685940*
X2003534Y1686253*
X2003535Y1686256*
X2003579Y1686479*
X2003584Y1686491*
X2003673Y1686670*
X2003687Y1686687*
X2003910Y1686865*
X2003931Y1686875*
X2004154Y1686920*
X2004172*
X2004440Y1686875*
X2004471Y1686857*
X2004650Y1686634*
X2004652Y1686631*
X2004742Y1686497*
X2004749Y1686479*
X2004794Y1686256*
Y1686253*
X2004839Y1685940*
Y1685933*
X2002418Y1684365D02*
X2002116D01*
Y1684064*
X2002418*
Y1684365*
X2001390Y1684953D02*
X2001348Y1685205D01*
X2001264Y1685414*
X2001099Y1685580*
X2000838Y1685710*
X2000835Y1685798*
X2001053Y1685928*
X2001177Y1686052*
X2001260Y1686219*
X2001301Y1686383*
X2001259Y1686716*
X2001050Y1686967*
X2000798Y1687135*
X2000414Y1687178*
X2000030Y1687135*
X1999778Y1686967*
X1999569Y1686716*
X1999527Y1686426*
X1999569Y1686218*
X1999652Y1686052*
X1999776Y1685928*
X1999993Y1685798*
X1999993D02*
X1999984Y1685707D01*
X1999727Y1685622*
X1999565Y1685460*
X1999481Y1685207*
X1999438Y1684953*
X1999524Y1684568*
X1999692Y1684273*
X2000029Y1684062*
X2000414Y1684019*
X2000799Y1684062*
X2001136Y1684273*
X2001305Y1684568*
X2001390Y1684953*
X2000998Y1686368D02*
X2000954Y1686189D01*
X2000947Y1686173*
X2000858Y1686039*
X2000858D02*
X2000838Y1686023D01*
X2000660Y1685933*
X2000647Y1685929*
X2000424Y1685884*
X2000404*
X2000181Y1685929*
X2000169Y1685933*
X1999990Y1686023*
X1999971Y1686039*
X1999971D02*
X1999882Y1686173D01*
X1999874Y1686191*
X1999829Y1686415*
X1999830Y1686437*
X1999830D02*
X1999875Y1686615D01*
X1999882Y1686631*
X1999971Y1686765*
X1999990Y1686782*
X2000169Y1686871*
X2000181Y1686875*
X2000404Y1686920*
X2000424*
X2000647Y1686875*
X2000660Y1686871*
X2000838Y1686782*
X2000861Y1686759*
X2000950Y1686581*
X2000954Y1686570*
X2000998Y1686392*
Y1686368*
X2001089Y1684951D02*
Y1684943D01*
X2001044Y1684675*
X2001035Y1684653*
X2000901Y1684475*
X2000891Y1684465*
X2000712Y1684331*
X2000690Y1684321*
X2000422Y1684277*
X2000414Y1684276*
X2000236*
X2000208Y1684285*
X2000077Y1684372*
X1999901Y1684460*
X1999882Y1684477*
X1999792Y1684611*
X1999784Y1684632*
X1999740Y1684944*
X1999739Y1684951*
X1999740Y1684961*
X1999785Y1685184*
X1999791Y1685200*
X1999925Y1685423*
X1999938Y1685438*
X2000116Y1685572*
X2000138Y1685581*
X2000406Y1685625*
X2000422*
X2000690Y1685581*
X2000712Y1685572*
X2000891Y1685438*
X2000904Y1685423*
X2001037Y1685200*
X2001044Y1685184*
X2001088Y1684961*
X2001089Y1684951*
X1998311Y1687178D02*
X1998121D01*
X1998002Y1686979*
X1997994Y1686969*
X1997771Y1686746*
X1997763Y1686740*
X1997496Y1686561*
X1997493Y1686560*
X1997205Y1686395*
Y1686103*
X1997575Y1686289*
X1997929Y1686554*
X1998009Y1686514*
Y1684064*
X1998311*
Y1687178*
X1997300Y1686151D02*
Y1686449D01*
X1997400Y1686201D02*
Y1686507D01*
X1997500Y1686251D02*
Y1686564D01*
X1997600Y1686307D02*
Y1686631D01*
X1997700Y1686382D02*
Y1686698D01*
X1997800Y1686457D02*
Y1686775D01*
X1997900Y1686532D02*
Y1686875D01*
X1998000Y1686542D02*
Y1686976D01*
X1998100Y1684064D02*
Y1687143D01*
X1998200Y1684064D02*
Y1687178D01*
X1998300Y1684064D02*
Y1687178D01*
X1999500Y1684675D02*
Y1685265D01*
X1999600Y1684434D02*
Y1685495D01*
Y1686156D02*
Y1686753D01*
X1999700Y1684268D02*
Y1685595D01*
Y1686004D02*
Y1686873D01*
X1999800Y1684205D02*
Y1684599D01*
Y1685215D02*
Y1685646D01*
Y1685914D02*
Y1686982D01*
X1999900Y1684143D02*
Y1684460D01*
Y1685382D02*
Y1685679D01*
Y1685854D02*
Y1686146D01*
Y1686658D02*
Y1687048D01*
X2000000Y1684080D02*
Y1684410D01*
Y1685484D02*
Y1685717D01*
Y1685793D02*
Y1686018D01*
Y1686787D02*
Y1687115D01*
X2000100Y1684054D02*
Y1684356D01*
Y1685559D02*
Y1685968D01*
Y1686837D02*
Y1687143D01*
X2000200Y1684043D02*
Y1684290D01*
Y1685591D02*
Y1685925D01*
Y1686879D02*
Y1687154D01*
X2000300Y1684032D02*
Y1684276D01*
Y1685608D02*
Y1685905D01*
Y1686899D02*
Y1687165D01*
X2000400Y1684021D02*
Y1684276D01*
Y1685624D02*
Y1685885D01*
Y1686919D02*
Y1687176D01*
X2000500Y1684029D02*
Y1684290D01*
Y1685613D02*
Y1685899D01*
Y1686905D02*
Y1687168D01*
X2000600Y1684040D02*
Y1684306D01*
Y1685596D02*
Y1685919D01*
Y1686885D02*
Y1687157D01*
X2000700Y1684051D02*
Y1684324D01*
Y1685578D02*
Y1685953D01*
Y1686851D02*
Y1687146D01*
X2000800Y1684063D02*
Y1684397D01*
Y1685506D02*
Y1686003D01*
Y1686801D02*
Y1687134D01*
X2000900Y1684125D02*
Y1684474D01*
Y1685428D02*
Y1685679D01*
Y1685837D02*
Y1686103D01*
Y1686681D02*
Y1687067D01*
X2001000Y1684188D02*
Y1684607D01*
Y1685262D02*
Y1685629D01*
Y1685897D02*
Y1687001D01*
X2001100Y1684250D02*
Y1685579D01*
Y1685976D02*
Y1686907D01*
X2001200Y1684385D02*
Y1685479D01*
Y1686099D02*
Y1686787D01*
X2001300Y1684560D02*
Y1685325D01*
Y1686379D02*
Y1686390D01*
X2002200Y1684064D02*
Y1684365D01*
X2002300Y1684064D02*
Y1684365D01*
X2002400Y1684064D02*
Y1684365D01*
X2003200Y1685130D02*
Y1685725D01*
X2003300Y1684743D02*
Y1686412D01*
X2003400Y1684462D02*
Y1686687D01*
X2003500Y1684307D02*
Y1685150D01*
Y1686012D02*
Y1686865D01*
X2003600Y1684236D02*
Y1684673D01*
Y1686524D02*
Y1686990D01*
X2003700Y1684164D02*
Y1684500D01*
Y1686697D02*
Y1687052D01*
X2003800Y1684101D02*
Y1684420D01*
Y1686777D02*
Y1687102D01*
X2003900Y1684079D02*
Y1684340D01*
Y1686857D02*
Y1687140D01*
X2004000Y1684057D02*
Y1684308D01*
Y1686889D02*
Y1687154D01*
X2004100Y1684035D02*
Y1684288D01*
Y1686909D02*
Y1687168D01*
X2004200Y1684025D02*
Y1684282D01*
Y1686916D02*
Y1687170D01*
X2004300Y1684039D02*
Y1684302D01*
Y1686899D02*
Y1687150D01*
X2004400Y1684053D02*
Y1684322D01*
Y1686882D02*
Y1687130D01*
X2004500Y1684081D02*
Y1684397D01*
Y1686821D02*
Y1687110D01*
X2004600Y1684131D02*
Y1684477D01*
Y1686696D02*
Y1687084D01*
X2004700Y1684181D02*
Y1684616D01*
Y1686559D02*
Y1687009D01*
X2004800Y1684297D02*
Y1684980D01*
Y1686211D02*
Y1686907D01*
X2004900Y1684444D02*
Y1686743D01*
X2005000Y1684677D02*
Y1686468D01*
X2005100Y1685128D02*
Y1686159D01*
X2005800Y1684064D02*
Y1686285D01*
X2005900Y1684064D02*
Y1686285D01*
X2006000Y1684064D02*
Y1686285D01*
X2006100Y1685709D02*
Y1685931D01*
X2006200Y1685829D02*
Y1686023D01*
X2006300Y1685949D02*
Y1686123D01*
X2006400Y1685999D02*
Y1686211D01*
X2006500Y1686028D02*
Y1686251D01*
X2006600Y1686056D02*
Y1686290D01*
X2006700Y1686065D02*
Y1686315D01*
X2006800Y1686040D02*
Y1686319D01*
X2006900Y1686000D02*
Y1686299D01*
X2007000Y1685933D02*
Y1686272D01*
X2007100Y1685754D02*
Y1686232D01*
X2007200Y1684064D02*
Y1686175D01*
X2007300Y1684064D02*
Y1686068D01*
X2007400Y1684064D02*
Y1685889D01*
X2007500Y1685732D02*
Y1685964D01*
X2007600Y1685866D02*
Y1686126D01*
X2007700Y1685947D02*
Y1686201D01*
X2007800Y1686021D02*
Y1686255D01*
X2007900Y1686044D02*
Y1686280D01*
X2008000Y1686064D02*
Y1686301D01*
X2008100Y1686063D02*
Y1686321D01*
X2008200Y1686043D02*
Y1686320D01*
X2008300Y1686019D02*
Y1686306D01*
X2008400Y1685890D02*
Y1686292D01*
X2008500Y1684064D02*
Y1686247D01*
X2008600Y1684064D02*
Y1686187D01*
X2008700Y1684064D02*
Y1686036D01*
X2008800Y1684064D02*
Y1685629D01*
X2009500Y1684064D02*
Y1686285D01*
X2009600Y1684064D02*
Y1686285D01*
X2009700Y1684064D02*
Y1686285D01*
X2009800Y1685558D02*
Y1685941D01*
X2009900Y1685769D02*
Y1685973D01*
X2010000Y1685889D02*
Y1686073D01*
X2010100Y1685985D02*
Y1686173D01*
X2010200Y1686013D02*
Y1686231D01*
X2010300Y1686042D02*
Y1686271D01*
X2010400Y1686071D02*
Y1686302D01*
X2010500Y1686053D02*
Y1686327D01*
X2010600Y1686028D02*
Y1686309D01*
X2010700Y1685967D02*
Y1686289D01*
X2010800Y1685854D02*
Y1686252D01*
X2010900Y1684064D02*
Y1686212D01*
X2011000Y1684064D02*
Y1686125D01*
X2011100Y1684064D02*
Y1685968D01*
X2011200Y1685582D02*
Y1685891D01*
X2011300Y1685799D02*
Y1686048D01*
X2011400Y1685909D02*
Y1686164D01*
X2011500Y1685984D02*
Y1686239D01*
X2011600Y1686034D02*
Y1686268D01*
X2011700Y1686054D02*
Y1686291D01*
X2011800Y1686073D02*
Y1686311D01*
X2011900Y1686053D02*
Y1686327D01*
X2012000Y1686033D02*
Y1686313D01*
X2012100Y1685956D02*
Y1686299D01*
X2012200Y1685822D02*
Y1686277D01*
X2012300Y1684064D02*
Y1686217D01*
X2012400Y1684064D02*
Y1686136D01*
X2012500Y1684064D02*
Y1685936D01*
X2046700Y1623086D02*
Y1623357D01*
Y1625399D02*
Y1625452D01*
X2046800Y1623086D02*
Y1623554D01*
Y1625388D02*
Y1625749D01*
X2046900Y1623086D02*
Y1623679D01*
Y1625377D02*
Y1625889D01*
X2047000Y1623086D02*
Y1623804D01*
Y1625435D02*
Y1626005D01*
X2047100Y1623086D02*
Y1623390D01*
Y1623498D02*
Y1623929D01*
Y1625658D02*
Y1626062D01*
X2047200Y1623086D02*
Y1623388D01*
Y1623623D02*
Y1624018D01*
Y1625773D02*
Y1626120D01*
X2047300Y1623086D02*
Y1623388D01*
Y1623728D02*
Y1624104D01*
Y1625848D02*
Y1626161D01*
X2047400Y1623086D02*
Y1623388D01*
Y1623803D02*
Y1624189D01*
Y1625902D02*
Y1626172D01*
X2047500Y1623086D02*
Y1623388D01*
Y1623882D02*
Y1624278D01*
Y1625918D02*
Y1626183D01*
X2047600Y1623086D02*
Y1623388D01*
Y1623966D02*
Y1624367D01*
Y1625935D02*
Y1626194D01*
X2047700Y1623086D02*
Y1623388D01*
Y1624049D02*
Y1624456D01*
Y1625934D02*
Y1626188D01*
X2047800Y1623086D02*
Y1623388D01*
Y1624136D02*
Y1624544D01*
Y1625914D02*
Y1626166D01*
X2047900Y1623086D02*
Y1623388D01*
Y1624224D02*
Y1624655D01*
Y1625892D02*
Y1626144D01*
X2048000Y1623086D02*
Y1623388D01*
Y1624311D02*
Y1624772D01*
Y1625817D02*
Y1626122D01*
X2048100Y1623086D02*
Y1623388D01*
Y1624411D02*
Y1624891D01*
Y1625739D02*
Y1626077D01*
X2048200Y1623086D02*
Y1623388D01*
Y1624531D02*
Y1625058D01*
Y1625639D02*
Y1626020D01*
X2048300Y1623086D02*
Y1623388D01*
Y1624653D02*
Y1625962D01*
X2048400Y1623086D02*
Y1623388D01*
Y1624787D02*
Y1625863D01*
X2048500Y1623086D02*
Y1623388D01*
Y1625029D02*
Y1625743D01*
X2048600Y1623086D02*
Y1623388D01*
X2049300Y1623568D02*
Y1623848D01*
Y1624595D02*
Y1624739D01*
X2049400Y1623415D02*
Y1623859D01*
Y1624583D02*
Y1625268D01*
X2049500Y1623275D02*
Y1623871D01*
Y1624572D02*
Y1625796D01*
X2049600Y1623205D02*
Y1623684D01*
Y1624564D02*
Y1626156D01*
X2049700Y1623147D02*
Y1623470D01*
Y1624664D02*
Y1624906D01*
Y1625244D02*
Y1626156D01*
X2049800Y1623090D02*
Y1623401D01*
Y1624764D02*
Y1624959D01*
Y1625835D02*
Y1626156D01*
X2049900Y1623073D02*
Y1623351D01*
Y1624802D02*
Y1625025D01*
Y1625854D02*
Y1626156D01*
X2050000Y1623061D02*
Y1623328D01*
Y1624830D02*
Y1625087D01*
Y1625854D02*
Y1626156D01*
X2050100Y1623048D02*
Y1623308D01*
Y1624859D02*
Y1625102D01*
Y1625854D02*
Y1626156D01*
X2050200Y1623050D02*
Y1623305D01*
Y1624865D02*
Y1625116D01*
Y1625854D02*
Y1626156D01*
X2050300Y1623067D02*
Y1623319D01*
Y1624851D02*
Y1625124D01*
Y1625854D02*
Y1626156D01*
X2050400Y1623083D02*
Y1623333D01*
Y1624837D02*
Y1625099D01*
Y1625854D02*
Y1626156D01*
X2050500Y1623103D02*
Y1623358D01*
Y1624813D02*
Y1625074D01*
Y1625854D02*
Y1626156D01*
X2050600Y1623123D02*
Y1623458D01*
Y1624738D02*
Y1625049D01*
Y1625854D02*
Y1626156D01*
X2050700Y1623186D02*
Y1623570D01*
Y1624645D02*
Y1624987D01*
Y1625854D02*
Y1626156D01*
X2050800Y1623264D02*
Y1623737D01*
Y1624478D02*
Y1624916D01*
Y1625854D02*
Y1626156D01*
X2050900Y1623364D02*
Y1624844D01*
Y1625854D02*
Y1626156D01*
X2051000Y1623494D02*
Y1624717D01*
X2051100Y1623669D02*
Y1624577D01*
X2051900Y1623086D02*
Y1623388D01*
X2052000Y1623086D02*
Y1623388D01*
X2052100Y1623086D02*
Y1623388D01*
X2053000Y1623768D02*
Y1623843D01*
X2053100Y1623485D02*
Y1623854D01*
Y1624589D02*
Y1625003D01*
X2053200Y1623345D02*
Y1623865D01*
Y1624578D02*
Y1625532D01*
X2053300Y1623233D02*
Y1623834D01*
Y1624567D02*
Y1626060D01*
X2053400Y1623176D02*
Y1623570D01*
Y1624614D02*
Y1626156D01*
X2053500Y1623119D02*
Y1623426D01*
Y1624714D02*
Y1624925D01*
Y1625560D02*
Y1626156D01*
X2053600Y1623079D02*
Y1623376D01*
Y1624787D02*
Y1624992D01*
Y1625854D02*
Y1626156D01*
X2053700Y1623067D02*
Y1623338D01*
Y1624816D02*
Y1625059D01*
Y1625854D02*
Y1626156D01*
X2053800Y1623054D02*
Y1623318D01*
Y1624845D02*
Y1625095D01*
Y1625854D02*
Y1626156D01*
X2053900Y1623042D02*
Y1623298D01*
Y1624872D02*
Y1625109D01*
Y1625854D02*
Y1626156D01*
X2054000Y1623058D02*
Y1623312D01*
Y1624858D02*
Y1625123D01*
Y1625854D02*
Y1626156D01*
X2054100Y1623075D02*
Y1623326D01*
Y1624844D02*
Y1625111D01*
Y1625854D02*
Y1626156D01*
X2054200Y1623093D02*
Y1623341D01*
Y1624829D02*
Y1625086D01*
Y1625854D02*
Y1626156D01*
X2054300Y1623113D02*
Y1623408D01*
Y1624775D02*
Y1625061D01*
Y1625854D02*
Y1626156D01*
X2054400Y1623149D02*
Y1623508D01*
Y1624700D02*
Y1625023D01*
Y1625854D02*
Y1626156D01*
X2054500Y1623224D02*
Y1623653D01*
Y1624561D02*
Y1624951D01*
Y1625854D02*
Y1626156D01*
X2054600Y1623314D02*
Y1623955D01*
Y1624259D02*
Y1624880D01*
Y1625854D02*
Y1626156D01*
X2054700Y1623414D02*
Y1624787D01*
Y1625854D02*
Y1626156D01*
X2054800Y1623582D02*
Y1624647D01*
X2054900Y1623925D02*
Y1624356D01*
X2055600Y1623086D02*
Y1625307D01*
X2055700Y1623086D02*
Y1625307D01*
X2055800Y1623086D02*
Y1625307D01*
X2055900Y1624753D02*
Y1624964D01*
X2056000Y1624873D02*
Y1625064D01*
X2056100Y1624992D02*
Y1625164D01*
X2056200Y1625026D02*
Y1625241D01*
X2056300Y1625055D02*
Y1625281D01*
X2056400Y1625084D02*
Y1625317D01*
X2056500Y1625083D02*
Y1625342D01*
X2056600Y1625058D02*
Y1625338D01*
X2056700Y1625010D02*
Y1625318D01*
X2056800Y1624939D02*
Y1625287D01*
X2056900Y1623086D02*
Y1625247D01*
X2057000Y1623086D02*
Y1625179D01*
X2057100Y1623086D02*
Y1625054D01*
X2057200Y1624380D02*
Y1624906D01*
X2057300Y1624778D02*
Y1625016D01*
X2057400Y1624907D02*
Y1625162D01*
X2057500Y1624982D02*
Y1625237D01*
X2057600Y1625050D02*
Y1625282D01*
X2057700Y1625070D02*
Y1625307D01*
X2057800Y1625090D02*
Y1625327D01*
X2057900Y1625082D02*
Y1625347D01*
X2058000Y1625062D02*
Y1625340D01*
X2058100Y1625021D02*
Y1625326D01*
X2058200Y1624888D02*
Y1625311D01*
X2058300Y1623086D02*
Y1625258D01*
X2058400Y1623086D02*
Y1625198D01*
X2058500Y1623086D02*
Y1625022D01*
X2059300Y1623086D02*
Y1625307D01*
X2059400Y1623086D02*
Y1625307D01*
X2059500Y1623086D02*
Y1625307D01*
X2059600Y1624652D02*
Y1624953D01*
X2059700Y1624813D02*
Y1625014D01*
X2059800Y1624933D02*
Y1625114D01*
X2059900Y1625012D02*
Y1625214D01*
X2060000Y1625041D02*
Y1625261D01*
X2060100Y1625069D02*
Y1625301D01*
X2060200Y1625095D02*
Y1625329D01*
X2060300Y1625070D02*
Y1625348D01*
X2060400Y1625043D02*
Y1625328D01*
X2060500Y1624977D02*
Y1625307D01*
X2060600Y1624840D02*
Y1625267D01*
X2060700Y1623086D02*
Y1625227D01*
X2060800Y1623086D02*
Y1625129D01*
X2060900Y1623086D02*
Y1624954D01*
X2061000Y1624711D02*
Y1624933D01*
X2061100Y1624845D02*
Y1625100D01*
X2061200Y1624945D02*
Y1625199D01*
X2061300Y1625020D02*
Y1625269D01*
X2061400Y1625060D02*
Y1625294D01*
X2061500Y1625080D02*
Y1625317D01*
X2061600Y1625092D02*
Y1625337D01*
X2061700Y1625072D02*
Y1625347D01*
X2061800Y1625052D02*
Y1625333D01*
X2061900Y1624955D02*
Y1625319D01*
X2062000Y1624792D02*
Y1625288D01*
X2062100Y1623086D02*
Y1625228D01*
X2062200Y1623086D02*
Y1625122D01*
X2062300Y1623086D02*
Y1624875D01*
*
G04 PC Custom Flashes*
G04 Layer Name PCB_#30857_ESP32-WROOM- - flashes*
%LPD*%
*
*
G04 PC Circuitry*
G04 Layer Name PCB_#30857_ESP32-WROOM- - circuitry*
%LPD*%
*
G54D10*
X1998380Y1632399D02*
X1999423Y1633442D01*
X1998659Y1634207*
X1997616Y1633164*
X1998380Y1632399*
X1998377Y1632403D02*
X1998384D01*
X1998277Y1632503D02*
X1998484D01*
X1998177Y1632603D02*
X1998584D01*
X1998077Y1632703D02*
X1998684D01*
X1997977Y1632803D02*
X1998784D01*
X1997877Y1632903D02*
X1998884D01*
X1997777Y1633003D02*
X1998984D01*
X1997677Y1633103D02*
X1999084D01*
X1997655Y1633203D02*
X1999184D01*
X1997755Y1633303D02*
X1999284D01*
X1997855Y1633403D02*
X1999384D01*
X1997955Y1633503D02*
X1999362D01*
X1998055Y1633603D02*
X1999262D01*
X1998155Y1633703D02*
X1999162D01*
X1998255Y1633803D02*
X1999062D01*
X1998355Y1633903D02*
X1998962D01*
X1998455Y1634003D02*
X1998862D01*
X1998555Y1634103D02*
X1998762D01*
X1998655Y1634203D02*
X1998662D01*
X1997704Y1633076D02*
Y1633252D01*
X1997804Y1632976D02*
Y1633352D01*
X1997904Y1632876D02*
Y1633452D01*
X1998004Y1632776D02*
Y1633552D01*
X1998104Y1632676D02*
Y1633652D01*
X1998204Y1632576D02*
Y1633752D01*
X1998304Y1632476D02*
Y1633852D01*
X1998404Y1632423D02*
Y1633952D01*
X1998504Y1632523D02*
Y1634052D01*
X1998604Y1632623D02*
Y1634152D01*
X1998704Y1632723D02*
Y1634162D01*
X1998804Y1632823D02*
Y1634062D01*
X1998904Y1632923D02*
Y1633962D01*
X1999004Y1633023D02*
Y1633862D01*
X1999104Y1633123D02*
Y1633762D01*
X1999204Y1633223D02*
Y1633662D01*
X1999304Y1633323D02*
Y1633562D01*
X1999404Y1633423D02*
Y1633462D01*
X1996849Y1633931D02*
X1997892Y1634973D01*
X1997128Y1635738*
X1996085Y1634695*
X1996849Y1633931*
X1996777Y1634003D02*
X1996922D01*
X1996677Y1634103D02*
X1997022D01*
X1996577Y1634203D02*
X1997122D01*
X1996477Y1634303D02*
X1997222D01*
X1996377Y1634403D02*
X1997322D01*
X1996277Y1634503D02*
X1997422D01*
X1996177Y1634603D02*
X1997522D01*
X1996093Y1634703D02*
X1997622D01*
X1996193Y1634803D02*
X1997722D01*
X1996293Y1634903D02*
X1997822D01*
X1996393Y1635003D02*
X1997862D01*
X1996493Y1635103D02*
X1997762D01*
X1996593Y1635203D02*
X1997662D01*
X1996693Y1635303D02*
X1997562D01*
X1996793Y1635403D02*
X1997462D01*
X1996893Y1635503D02*
X1997362D01*
X1996993Y1635603D02*
X1997262D01*
X1997093Y1635703D02*
X1997162D01*
X1996104Y1634676D02*
Y1634714D01*
X1996204Y1634576D02*
Y1634814D01*
X1996304Y1634476D02*
Y1634914D01*
X1996404Y1634376D02*
Y1635014D01*
X1996504Y1634276D02*
Y1635114D01*
X1996604Y1634176D02*
Y1635214D01*
X1996704Y1634076D02*
Y1635314D01*
X1996804Y1633976D02*
Y1635414D01*
X1996904Y1633985D02*
Y1635514D01*
X1997004Y1634085D02*
Y1635614D01*
X1997104Y1634185D02*
Y1635714D01*
X1997204Y1634285D02*
Y1635662D01*
X1997304Y1634385D02*
Y1635562D01*
X1997404Y1634485D02*
Y1635462D01*
X1997504Y1634585D02*
Y1635362D01*
X1997604Y1634685D02*
Y1635262D01*
X1997704Y1634785D02*
Y1635162D01*
X1997804Y1634885D02*
Y1635062D01*
X1995723Y1635845D02*
X1994680Y1636888D01*
X1993916Y1636123*
X1994959Y1635081*
X1995723Y1635845*
X1994936Y1635103D02*
X1994981D01*
X1994836Y1635203D02*
X1995081D01*
X1994736Y1635303D02*
X1995181D01*
X1994636Y1635403D02*
X1995281D01*
X1994536Y1635503D02*
X1995381D01*
X1994436Y1635603D02*
X1995481D01*
X1994336Y1635703D02*
X1995581D01*
X1994236Y1635803D02*
X1995681D01*
X1994136Y1635903D02*
X1995665D01*
X1994036Y1636003D02*
X1995565D01*
X1993936Y1636103D02*
X1995465D01*
X1993996Y1636203D02*
X1995365D01*
X1994096Y1636303D02*
X1995265D01*
X1994196Y1636403D02*
X1995165D01*
X1994296Y1636503D02*
X1995065D01*
X1994396Y1636603D02*
X1994965D01*
X1994496Y1636703D02*
X1994865D01*
X1994596Y1636803D02*
X1994765D01*
X1994004Y1636035D02*
Y1636212D01*
X1994104Y1635935D02*
Y1636312D01*
X1994204Y1635835D02*
Y1636412D01*
X1994304Y1635735D02*
Y1636512D01*
X1994404Y1635635D02*
Y1636612D01*
X1994504Y1635535D02*
Y1636712D01*
X1994604Y1635435D02*
Y1636812D01*
X1994704Y1635335D02*
Y1636864D01*
X1994804Y1635235D02*
Y1636764D01*
X1994904Y1635135D02*
Y1636664D01*
X1995004Y1635126D02*
Y1636564D01*
X1995104Y1635226D02*
Y1636464D01*
X1995204Y1635326D02*
Y1636364D01*
X1995304Y1635426D02*
Y1636264D01*
X1995404Y1635526D02*
Y1636164D01*
X1995504Y1635626D02*
Y1636064D01*
X1995604Y1635726D02*
Y1635964D01*
X1995704Y1635826D02*
Y1635864D01*
X1994192Y1634314D02*
X1993149Y1635357D01*
X1992385Y1634592*
X1993428Y1633549*
X1994192Y1634314*
X1993374Y1633603D02*
X1993481D01*
X1993274Y1633703D02*
X1993581D01*
X1993174Y1633803D02*
X1993681D01*
X1993074Y1633903D02*
X1993781D01*
X1992974Y1634003D02*
X1993881D01*
X1992874Y1634103D02*
X1993981D01*
X1992774Y1634203D02*
X1994081D01*
X1992674Y1634303D02*
X1994181D01*
X1992574Y1634403D02*
X1994103D01*
X1992474Y1634503D02*
X1994003D01*
X1992396Y1634603D02*
X1993903D01*
X1992496Y1634703D02*
X1993803D01*
X1992596Y1634803D02*
X1993703D01*
X1992696Y1634903D02*
X1993603D01*
X1992796Y1635003D02*
X1993503D01*
X1992896Y1635103D02*
X1993403D01*
X1992996Y1635203D02*
X1993303D01*
X1993096Y1635303D02*
X1993203D01*
X1992404Y1634573D02*
Y1634612D01*
X1992504Y1634473D02*
Y1634712D01*
X1992604Y1634373D02*
Y1634812D01*
X1992704Y1634273D02*
Y1634912D01*
X1992804Y1634173D02*
Y1635012D01*
X1992904Y1634073D02*
Y1635112D01*
X1993004Y1633973D02*
Y1635212D01*
X1993104Y1633873D02*
Y1635312D01*
X1993204Y1633773D02*
Y1635302D01*
X1993304Y1633673D02*
Y1635202D01*
X1993404Y1633573D02*
Y1635102D01*
X1993504Y1633626D02*
Y1635002D01*
X1993604Y1633726D02*
Y1634902D01*
X1993704Y1633826D02*
Y1634802D01*
X1993804Y1633926D02*
Y1634702D01*
X1993904Y1634026D02*
Y1634602D01*
X1994004Y1634126D02*
Y1634502D01*
X1994104Y1634226D02*
Y1634402D01*
X1991173Y1635295D02*
X1990130Y1636338D01*
X1989366Y1635573*
X1990409Y1634531*
X1991173Y1635295*
X1990336Y1634603D02*
X1990481D01*
X1990236Y1634703D02*
X1990581D01*
X1990136Y1634803D02*
X1990681D01*
X1990036Y1634903D02*
X1990781D01*
X1989936Y1635003D02*
X1990881D01*
X1989836Y1635103D02*
X1990981D01*
X1989736Y1635203D02*
X1991081D01*
X1989636Y1635303D02*
X1991165D01*
X1989536Y1635403D02*
X1991065D01*
X1989436Y1635503D02*
X1990965D01*
X1989396Y1635603D02*
X1990865D01*
X1989496Y1635703D02*
X1990765D01*
X1989596Y1635803D02*
X1990665D01*
X1989696Y1635903D02*
X1990565D01*
X1989796Y1636003D02*
X1990465D01*
X1989896Y1636103D02*
X1990365D01*
X1989996Y1636203D02*
X1990265D01*
X1990096Y1636303D02*
X1990165D01*
X1989404Y1635535D02*
Y1635612D01*
X1989504Y1635435D02*
Y1635712D01*
X1989604Y1635335D02*
Y1635812D01*
X1989704Y1635235D02*
Y1635912D01*
X1989804Y1635135D02*
Y1636012D01*
X1989904Y1635035D02*
Y1636112D01*
X1990004Y1634935D02*
Y1636212D01*
X1990104Y1634835D02*
Y1636312D01*
X1990204Y1634735D02*
Y1636264D01*
X1990304Y1634635D02*
Y1636164D01*
X1990404Y1634535D02*
Y1636064D01*
X1990504Y1634626D02*
Y1635964D01*
X1990604Y1634726D02*
Y1635864D01*
X1990704Y1634826D02*
Y1635764D01*
X1990804Y1634926D02*
Y1635664D01*
X1990904Y1635026D02*
Y1635564D01*
X1991004Y1635126D02*
Y1635464D01*
X1991104Y1635226D02*
Y1635364D01*
X1989642Y1633764D02*
X1988599Y1634807D01*
X1987835Y1634042*
X1988878Y1632999*
X1989642Y1633764*
X1988874Y1633003D02*
X1988881D01*
X1988774Y1633103D02*
X1988981D01*
X1988674Y1633203D02*
X1989081D01*
X1988574Y1633303D02*
X1989181D01*
X1988474Y1633403D02*
X1989281D01*
X1988374Y1633503D02*
X1989381D01*
X1988274Y1633603D02*
X1989481D01*
X1988174Y1633703D02*
X1989581D01*
X1988074Y1633803D02*
X1989603D01*
X1987974Y1633903D02*
X1989503D01*
X1987874Y1634003D02*
X1989403D01*
X1987896Y1634103D02*
X1989303D01*
X1987996Y1634203D02*
X1989203D01*
X1988096Y1634303D02*
X1989103D01*
X1988196Y1634403D02*
X1989003D01*
X1988296Y1634503D02*
X1988903D01*
X1988396Y1634603D02*
X1988803D01*
X1988496Y1634703D02*
X1988703D01*
X1988596Y1634803D02*
X1988603D01*
X1987904Y1633973D02*
Y1634112D01*
X1988004Y1633873D02*
Y1634212D01*
X1988104Y1633773D02*
Y1634312D01*
X1988204Y1633673D02*
Y1634412D01*
X1988304Y1633573D02*
Y1634512D01*
X1988404Y1633473D02*
Y1634612D01*
X1988504Y1633373D02*
Y1634712D01*
X1988604Y1633273D02*
Y1634802D01*
X1988704Y1633173D02*
Y1634702D01*
X1988804Y1633073D02*
Y1634602D01*
X1988904Y1633026D02*
Y1634502D01*
X1989004Y1633126D02*
Y1634402D01*
X1989104Y1633226D02*
Y1634302D01*
X1989204Y1633326D02*
Y1634202D01*
X1989304Y1633426D02*
Y1634102D01*
X1989404Y1633526D02*
Y1634002D01*
X1989504Y1633626D02*
Y1633902D01*
X1989604Y1633726D02*
Y1633802D01*
X2000130Y1634149D02*
X2001173Y1635192D01*
X2000409Y1635957*
X1999366Y1634914*
X2000130Y1634149*
X2000077Y1634203D02*
X2000184D01*
X1999977Y1634303D02*
X2000284D01*
X1999877Y1634403D02*
X2000384D01*
X1999777Y1634503D02*
X2000484D01*
X1999677Y1634603D02*
X2000584D01*
X1999577Y1634703D02*
X2000684D01*
X1999477Y1634803D02*
X2000784D01*
X1999377Y1634903D02*
X2000884D01*
X1999455Y1635003D02*
X2000984D01*
X1999555Y1635103D02*
X2001084D01*
X1999655Y1635203D02*
X2001162D01*
X1999755Y1635303D02*
X2001062D01*
X1999855Y1635403D02*
X2000962D01*
X1999955Y1635503D02*
X2000862D01*
X2000055Y1635603D02*
X2000762D01*
X2000155Y1635703D02*
X2000662D01*
X2000255Y1635803D02*
X2000562D01*
X2000355Y1635903D02*
X2000462D01*
X1999404Y1634876D02*
Y1634952D01*
X1999504Y1634776D02*
Y1635052D01*
X1999604Y1634676D02*
Y1635152D01*
X1999704Y1634576D02*
Y1635252D01*
X1999804Y1634476D02*
Y1635352D01*
X1999904Y1634376D02*
Y1635452D01*
X2000004Y1634276D02*
Y1635552D01*
X2000104Y1634176D02*
Y1635652D01*
X2000204Y1634223D02*
Y1635752D01*
X2000304Y1634323D02*
Y1635852D01*
X2000404Y1634423D02*
Y1635952D01*
X2000504Y1634523D02*
Y1635862D01*
X2000604Y1634623D02*
Y1635762D01*
X2000704Y1634723D02*
Y1635662D01*
X2000804Y1634823D02*
Y1635562D01*
X2000904Y1634923D02*
Y1635462D01*
X2001004Y1635023D02*
Y1635362D01*
X2001104Y1635123D02*
Y1635262D01*
X1998599Y1635681D02*
X1999642Y1636723D01*
X1998878Y1637488*
X1997835Y1636445*
X1998599Y1635681*
X1998577Y1635703D02*
X1998622D01*
X1998477Y1635803D02*
X1998722D01*
X1998377Y1635903D02*
X1998822D01*
X1998277Y1636003D02*
X1998922D01*
X1998177Y1636103D02*
X1999022D01*
X1998077Y1636203D02*
X1999122D01*
X1997977Y1636303D02*
X1999222D01*
X1997877Y1636403D02*
X1999322D01*
X1997893Y1636503D02*
X1999422D01*
X1997993Y1636603D02*
X1999522D01*
X1998093Y1636703D02*
X1999622D01*
X1998193Y1636803D02*
X1999562D01*
X1998293Y1636903D02*
X1999462D01*
X1998393Y1637003D02*
X1999362D01*
X1998493Y1637103D02*
X1999262D01*
X1998593Y1637203D02*
X1999162D01*
X1998693Y1637303D02*
X1999062D01*
X1998793Y1637403D02*
X1998962D01*
X1997904Y1636376D02*
Y1636514D01*
X1998004Y1636276D02*
Y1636614D01*
X1998104Y1636176D02*
Y1636714D01*
X1998204Y1636076D02*
Y1636814D01*
X1998304Y1635976D02*
Y1636914D01*
X1998404Y1635876D02*
Y1637014D01*
X1998504Y1635776D02*
Y1637114D01*
X1998604Y1635685D02*
Y1637214D01*
X1998704Y1635785D02*
Y1637314D01*
X1998804Y1635885D02*
Y1637414D01*
X1998904Y1635985D02*
Y1637462D01*
X1999004Y1636085D02*
Y1637362D01*
X1999104Y1636185D02*
Y1637262D01*
X1999204Y1636285D02*
Y1637162D01*
X1999304Y1636385D02*
Y1637062D01*
X1999404Y1636485D02*
Y1636962D01*
X1999504Y1636585D02*
Y1636862D01*
X1999604Y1636685D02*
Y1636762D01*
X1968504Y1675019D02*
X1968507D01*
X2039370D02*
X2039373D01*
X2039370Y1574803D02*
X2039373D01*
X2039370Y1675019D02*
X2039373D01*
G54D14*
X1993504Y1639319D03*
Y1643319D03*
X1981304Y1639319D03*
Y1643319D03*
G54D36*
X2022835Y1616121D03*
Y1609034D03*
X2028740D03*
Y1616121D03*
G54D44*
X1968504Y1675197D02*
X2039370D01*
Y1574803*
X1968504*
Y1675197*
G54D48*
X2004995Y1619339D02*
Y1622302D01*
X2002032*
Y1619339*
X2004995*
X2002212D02*
Y1622302D01*
X2002512Y1619339D02*
Y1622302D01*
X2002812Y1619339D02*
Y1622302D01*
X2003112Y1619339D02*
Y1622302D01*
X2003412Y1619339D02*
Y1622302D01*
X2003712Y1619339D02*
Y1622302D01*
X2004012Y1619339D02*
Y1622302D01*
X2004312Y1619339D02*
Y1622302D01*
X2004612Y1619339D02*
Y1622302D01*
X2004912Y1619339D02*
Y1622302D01*
X2004995Y1613827D02*
Y1616771D01*
X2002032*
Y1613827*
X2004995*
X2002212D02*
Y1616771D01*
X2002512Y1613827D02*
Y1616771D01*
X2002812Y1613827D02*
Y1616771D01*
X2003112Y1613827D02*
Y1616771D01*
X2003412Y1613827D02*
Y1616771D01*
X2003712Y1613827D02*
Y1616771D01*
X2004012Y1613827D02*
Y1616771D01*
X2004312Y1613827D02*
Y1616771D01*
X2004612Y1613827D02*
Y1616771D01*
X2004912Y1613827D02*
Y1616771D01*
X2004995Y1608335D02*
Y1611259D01*
X2002032*
Y1608335*
X2004995*
X2002212D02*
Y1611259D01*
X2002512Y1608335D02*
Y1611259D01*
X2002812Y1608335D02*
Y1611259D01*
X2003112Y1608335D02*
Y1611259D01*
X2003412Y1608335D02*
Y1611259D01*
X2003712Y1608335D02*
Y1611259D01*
X2004012Y1608335D02*
Y1611259D01*
X2004312Y1608335D02*
Y1611259D01*
X2004612Y1608335D02*
Y1611259D01*
X2004912Y1608335D02*
Y1611259D01*
X1999484Y1608335D02*
Y1611279D01*
X1996540*
Y1608335*
X1999484*
X1996812D02*
Y1611279D01*
X1997112Y1608335D02*
Y1611279D01*
X1997412Y1608335D02*
Y1611279D01*
X1997712Y1608335D02*
Y1611279D01*
X1998012Y1608335D02*
Y1611279D01*
X1998312Y1608335D02*
Y1611279D01*
X1998612Y1608335D02*
Y1611279D01*
X1998912Y1608335D02*
Y1611279D01*
X1999212Y1608335D02*
Y1611279D01*
X1993972Y1608335D02*
Y1611259D01*
X1991028*
Y1608335*
X1993972*
X1991112D02*
Y1611259D01*
X1991412Y1608335D02*
Y1611259D01*
X1991712Y1608335D02*
Y1611259D01*
X1992012Y1608335D02*
Y1611259D01*
X1992312Y1608335D02*
Y1611259D01*
X1992612Y1608335D02*
Y1611259D01*
X1992912Y1608335D02*
Y1611259D01*
X1993212Y1608335D02*
Y1611259D01*
X1993512Y1608335D02*
Y1611259D01*
X1993812Y1608335D02*
Y1611259D01*
X1993972Y1613827D02*
Y1616771D01*
X1991028*
Y1613827*
X1993972*
X1991112D02*
Y1616771D01*
X1991412Y1613827D02*
Y1616771D01*
X1991712Y1613827D02*
Y1616771D01*
X1992012Y1613827D02*
Y1616771D01*
X1992312Y1613827D02*
Y1616771D01*
X1992612Y1613827D02*
Y1616771D01*
X1992912Y1613827D02*
Y1616771D01*
X1993212Y1613827D02*
Y1616771D01*
X1993512Y1613827D02*
Y1616771D01*
X1993812Y1613827D02*
Y1616771D01*
X1993972Y1619339D02*
Y1622282D01*
X1991028*
Y1619339*
X1993972*
X1991112D02*
Y1622282D01*
X1991412Y1619339D02*
Y1622282D01*
X1991712Y1619339D02*
Y1622282D01*
X1992012Y1619339D02*
Y1622282D01*
X1992312Y1619339D02*
Y1622282D01*
X1992612Y1619339D02*
Y1622282D01*
X1992912Y1619339D02*
Y1622282D01*
X1993212Y1619339D02*
Y1622282D01*
X1993512Y1619339D02*
Y1622282D01*
X1993812Y1619339D02*
Y1622282D01*
X1999484Y1619359D02*
Y1622302D01*
X1996540*
Y1619359*
X1999484*
X1996812D02*
Y1622302D01*
X1997112Y1619359D02*
Y1622302D01*
X1997412Y1619359D02*
Y1622302D01*
X1997712Y1619359D02*
Y1622302D01*
X1998012Y1619359D02*
Y1622302D01*
X1998312Y1619359D02*
Y1622302D01*
X1998612Y1619359D02*
Y1622302D01*
X1998912Y1619359D02*
Y1622302D01*
X1999212Y1619359D02*
Y1622302D01*
G54D109*
X1968504Y1685889D02*
X1993664D01*
X1968504D02*
X1973504Y1686889D01*
Y1684889*
X1968504Y1685889*
X2039370D02*
X2014210D01*
X2039370D02*
X2034370Y1684889D01*
Y1686889*
X2039370Y1685889*
X1968504Y1677019D02*
Y1687889D01*
X2039370Y1677019D02*
Y1687889D01*
X2054344Y1574803D02*
Y1620036D01*
Y1574803D02*
X2053344Y1579803D01*
X2055344*
X2054344Y1574803*
Y1675019D02*
Y1629786D01*
Y1675019D02*
X2055344Y1670019D01*
X2053344*
X2054344Y1675019*
X2041370Y1574803D02*
X2056344D01*
X2041370Y1675019D02*
X2056344D01*
G54D115*
X1998012Y1615319D03*
G54D133*
X2016504Y1647819D02*
X1973128D01*
Y1645819*
X2034708Y1647819D02*
X2025504D01*
X2034708D02*
Y1579335D01*
X1973141Y1634819D02*
Y1579335D01*
X2034708Y1579334D02*
X1973141D01*
G54D174*
X2006969Y1625161D03*
X2005591D03*
X2004213D03*
X2002835D03*
X2001457D03*
X2000079D03*
X1998701D03*
X1997323D03*
X1995945D03*
X1994567D03*
X1993189D03*
X1991811D03*
X1990433D03*
X1989055D03*
Y1605476D03*
X1990433D03*
X1991811D03*
X1993189D03*
X1994567D03*
X1995945D03*
X1997323D03*
X1998701D03*
X2000079D03*
X2001457D03*
X2002835D03*
X2004213D03*
X2005591D03*
X2006969D03*
G54D175*
X1988169Y1621519D03*
Y1620141D03*
Y1618764D03*
Y1617386D03*
Y1616008D03*
Y1614630D03*
Y1613252D03*
Y1611874D03*
Y1610496D03*
Y1609118D03*
X2007854D03*
Y1610496D03*
Y1611874D03*
Y1613252D03*
Y1614630D03*
Y1616008D03*
Y1617386D03*
Y1618764D03*
Y1620141D03*
Y1621519D03*
G54D186*
X2013614Y1584551D03*
G54D187*
Y1589551D03*
Y1594551D03*
Y1599551D03*
X1986014D03*
Y1594551D03*
Y1589551D03*
Y1584551D03*
G54D188*
X2022821Y1621319D03*
X2024987D03*
X2005571Y1631319D03*
X2007737D03*
Y1639319D03*
X2005571D03*
X1982606Y1616108D03*
X1980441D03*
X2028687Y1603819D03*
X2026521D03*
X2013921Y1613119D03*
X2016087D03*
X2014921Y1621819D03*
X2017087D03*
X2013421Y1603619D03*
X2015587D03*
X2017287Y1618019D03*
X2015121D03*
G54D189*
X2000504Y1640486D03*
Y1642651D03*
X1997004Y1640486D03*
Y1642651D03*
X1977504Y1586401D03*
Y1584236D03*
X2015254Y1627151D03*
Y1624986D03*
X2020254Y1624985D03*
Y1627150D03*
X2012304Y1628236D03*
Y1630401D03*
X2005574Y1634236D03*
Y1636401D03*
X2017754Y1624986D03*
Y1627151D03*
X2015504Y1609401D03*
Y1607236D03*
G54D190*
X1977254Y1640241D03*
Y1642997D03*
X0Y0D02*
M02*
