%
T1C.007F0S0
X199276Y158971
X199276Y159453
X199313Y160032
X199205Y160166
X198513Y160194
X198313Y160507
X19825Y160669
X198125Y160794
X1981Y160969
X198224Y161094
X197963Y161244
X198027Y161807
X197813Y16186
X197867Y162039
X197742Y162181
X197974Y162324
X197849Y162467
X197992Y162627
X197938Y162806
X19776Y162859
X19792Y163252
X198384Y163305
X199275Y163657
X199575Y164407
X199875Y164282
X19965Y163672
X201356Y162493
X20152Y161992
X20172Y161992
X20134Y161902
X20141Y161502
X20158Y161502
X201625Y161132
X2014Y161112
X20114Y160802
X201162Y160594
X201375Y160582
X20155Y160582
X200043Y160273
X20043Y160262
X199757Y16022
X199971Y160113
X200463Y160094
X200524Y159934
X199825Y159769
X200703Y159702
X199613Y159544
X200375Y159394
X200785Y159101
X200116Y159062
X2005Y158782
X203175Y160532
X203197Y16082
X203207Y161072
X2032Y161302
X203202Y161528
X203207Y161772
X20195Y161782
X202Y162007
X2032Y162007
X201875Y162182
X2021Y162182
X203434Y163154
T2C.008F0S0
X200825Y160257
X2011Y161487
X1984Y161601
X2011Y161922
T3C.00984F0S0
X197046Y157666
X197766Y157672
X197488Y157672
X197625Y157957
X197875Y157957
X197375Y157982
X1977Y158232
X197375Y158257
X197525Y158457
X197375Y158832
X197372Y159345
X19925Y161255
X198088Y161444
X19925Y161805
X198313Y162344
X198488Y162482
X197375Y162832
X197575Y163432
X197369Y163505
X198063Y163555
X197738Y163594
X197375Y164318
X19835Y164432
X19885Y164432
X1991Y164432
X1986Y164432
X19775Y164507
X198075Y164582
X19735Y164682
X19875Y164682
X1985Y164682
X19925Y164682
X1976Y164707
X199Y164707
X197875Y164732
X19825Y164757
X197725Y164932
X19846Y164932
X19882Y164932
X19916Y164932
X19715Y164932
X19806Y164932
X197425Y164932
X199725Y164932
X200025Y164932
X20035Y164932
X19945Y164932
X201075Y164932
X200675Y164932
X201575Y164932
X201325Y164857
X200875Y164782
X201775Y164782
X20055Y164707
X2003Y164682
X200025Y164682
X199525Y164657
X201575Y164632
X2013Y164607
X20105Y164607
X1998Y164557
X20075Y164557
X20005Y164432
X2003Y164432
X20055Y164407
X2018Y164207
X200375Y164182
X201225Y164157
X2015Y164157
X20095Y164132
X2003Y163932
X20125Y163907
X201825Y163907
X201525Y163882
X201Y163857
X2003Y163682
X2008Y163682
X201225Y163657
X20165Y163657
X201Y163532
X201425Y163482
X200325Y163432
X2008Y163332
X20165Y163307
X20105Y163282
X2013Y163257
X200325Y163182
X2018Y163082
X2015Y163082
X201025Y163032
X200075Y16208
X199525Y16208
X200075Y16183
X1998Y161805
X199525Y161805
X20035Y161805
X199525Y16153
X200075Y16153
X201775Y161257
X199525Y161255
X20035Y161255
X1998Y161255
X200075Y161255
X200075Y16098
X199525Y16098
X2018Y160882
X201775Y160457
X199619Y159232
X199488Y159032
X199775Y158957
X200275Y158869
X199625Y158769
X2Y158757
X199363Y158719
X203475Y157682
X203175Y157682
X203725Y157682
X203325Y157882
X203025Y157882
X203175Y158344
X2034Y158368
X202513Y158769
X202163Y158769
X202825Y158857
X202075Y159207
X202438Y159219
X203175Y159219
X202888Y159232
X2021Y160107
X202375Y160107
X2029Y160132
X20265Y160132
X20185Y160207
X2031Y160307
X20234Y160342
X202075Y160357
X202475Y160567
X202225Y160567
X20193Y160662
X20195Y161082
X202875Y161957
X203025Y162157
X2027Y162157
X20319Y162492
X20282Y162502
X202275Y162532
X20255Y162582
X20301Y162672
X20317Y162862
X20265Y162982
X2021Y163082
X2029Y163232
X2023Y163257
X202Y163332
X203125Y163432
X202525Y163457
X202175Y163507
X20335Y163582
X2019Y163582
X20275Y163632
X202375Y163682
X2021Y163757
X203421Y163796
X202625Y163882
X203075Y163932
X20235Y163957
X202075Y164007
X20285Y164057
X203225Y164157
X2026Y164182
X202325Y164207
X2034Y164305
X20285Y164322
X20205Y164332
X2031Y164382
X20255Y164457
X20225Y164482
X2033Y164532
X203Y164632
X202425Y164682
X2027Y164682
X20345Y164757
X203Y164932
X203275Y164932
X202425Y164932
X203625Y164932
X2027Y164932
X20195Y164957
T4C.01F095S3
X198425Y163882
X199075Y163882
X199075Y164132
X198425Y164132
X200875Y162782
T5C.02165F197S55
X198148Y15748
X198648Y15748
X199148Y15748
X19685Y158071
X19685Y158571
X19685Y159071
X19685Y159571
X19685Y160071
X19685Y160571
X19685Y161071
X19685Y161571
X19685Y162071
X19685Y162571
X19685Y163071
X19685Y163571
X19685Y164071
X19685Y164571
X199648Y15748
X200648Y15748
X201148Y15748
X200148Y15748
X201648Y15748
X202148Y15748
X202648Y15748
X203938Y158071
X203937Y158571
X203937Y159071
X203937Y159571
X203937Y160071
X203937Y160571
X203937Y161071
X203937Y161571
X203937Y162071
X203937Y162571
X203937Y163071
X203937Y163571
X203937Y164071
X203937Y164571
M30
