*
*
G04 PADS 9.5 Build Number: 522968 generated Gerber (RS-274-X) file*
G04 PC Version=2.1*
*
%IN "PCB_#30857_ESP32-WROOM-"*%
*
%MOIN*%
*
%FSLAX35Y35*%
*
*
*
*
G04 PC Standard Apertures*
*
*
G04 Thermal Relief Aperture macro.*
%AMTER*
1,1,$1,0,0*
1,0,$1-$2,0,0*
21,0,$3,$4,0,0,45*
21,0,$3,$4,0,0,135*
%
*
*
G04 Annular Aperture macro.*
%AMANN*
1,1,$1,0,0*
1,0,$2,0,0*
%
*
*
G04 Odd Aperture macro.*
%AMODD*
1,1,$1,0,0*
1,0,$1-0.005,0,0*
%
*
*
G04 PC Custom Aperture Macros*
*
*
*
*
*
*
G04 PC Aperture Table*
*
%ADD010C,0.001*%
%ADD044C,0.01*%
%ADD109C,0.005*%
*
*
*
*
G04 PC Circuitry*
G04 Layer Name PCB_#30857_ESP32-WROOM- - circuitry*
%LPD*%
*
G54D10*
G01X2062334Y1624639D02*
X2062291Y1624940D01*
X2062167Y1625188*
X2061965Y1625309*
X2061671Y1625351*
X2061457Y1625309*
X2061290Y1625267*
X2061127Y1625145*
X2060998Y1624930*
X2060910Y1624933*
X2060825Y1625105*
X2060825D02*
X2060704Y1625225D01*
X2060494Y1625309*
X2060287Y1625351*
X2060122Y1625310*
X2059912Y1625225*
X2059651Y1624965*
X2059566Y1625000*
Y1625307*
X2059264*
Y1623086*
X2059566*
Y1624509*
X2059567Y1624521*
X2059612Y1624700*
X2059622Y1624720*
X2059845Y1624988*
X2059870Y1625004*
X2060182Y1625093*
X2060208*
X2060387Y1625049*
X2060403Y1625042*
X2060536Y1624953*
X2060553Y1624933*
X2060643Y1624755*
X2060648Y1624732*
Y1623086*
X2060950*
Y1624375*
Y1624382*
X2060995Y1624695*
X2061004Y1624718*
X2061138Y1624896*
X2061148Y1624906*
X2061327Y1625040*
X2061347Y1625049*
X2061570Y1625094*
X2061590*
X2061813Y1625049*
X2061843Y1625030*
X2061977Y1624852*
X2061985Y1624837*
X2062029Y1624704*
X2062029D02*
X2062032Y1624688D01*
Y1623086*
X2062334*
Y1624639*
X2058584D02*
X2058541Y1624940D01*
X2058417Y1625188*
X2058215Y1625309*
X2057921Y1625351*
X2057707Y1625309*
X2057540Y1625267*
X2057377Y1625145*
X2057248Y1624930*
X2057160Y1624933*
X2057075Y1625105*
X2057075D02*
X2056954Y1625225D01*
X2056744Y1625309*
X2056537Y1625351*
X2056372Y1625310*
X2056162Y1625225*
X2055901Y1624965*
X2055816Y1625000*
Y1625307*
X2055514*
Y1623086*
X2055816*
Y1624509*
X2055817Y1624521*
X2055862Y1624700*
X2055872Y1624720*
X2056095Y1624988*
X2056120Y1625004*
X2056432Y1625093*
X2056458*
X2056637Y1625049*
X2056653Y1625042*
X2056786Y1624953*
X2056803Y1624933*
X2056893Y1624755*
X2056898Y1624732*
Y1623086*
X2057200*
Y1624375*
Y1624382*
X2057245Y1624695*
X2057254Y1624718*
X2057388Y1624896*
X2057398Y1624906*
X2057577Y1625040*
X2057597Y1625049*
X2057820Y1625094*
X2057840*
X2058063Y1625049*
X2058093Y1625030*
X2058227Y1624852*
X2058235Y1624837*
X2058279Y1624704*
X2058279D02*
X2058282Y1624688D01*
Y1623086*
X2058584*
Y1624639*
X2054923Y1624152D02*
X2054880Y1624535D01*
X2054669Y1624830*
X2054371Y1625043*
X2054033Y1625128*
X2053741Y1625086*
X2053483Y1624914*
X2053405Y1624956*
X2053406Y1624963*
X2053540Y1625812*
X2053589Y1625854*
X2054744*
Y1626156*
X2053318*
X2053023Y1624597*
X2053347Y1624561*
X2053554Y1624768*
X2053575Y1624780*
X2053888Y1624870*
X2053909Y1624871*
X2054221Y1624826*
X2054244Y1624817*
X2054423Y1624683*
X2054436Y1624669*
X2054569Y1624446*
X2054576Y1624427*
X2054621Y1624114*
Y1624100*
X2054576Y1623788*
X2054569Y1623769*
X2054436Y1623546*
X2054428Y1623536*
X2054249Y1623358*
X2054221Y1623344*
X2053909Y1623299*
X2053892*
X2053669Y1623344*
X2053656Y1623348*
X2053477Y1623438*
X2053455Y1623460*
X2053366Y1623639*
X2053363Y1623645*
X2053287Y1623875*
X2052982Y1623841*
X2053055Y1623548*
X2053266Y1623252*
X2053561Y1623084*
X2053901Y1623042*
X2054160Y1623085*
X2054372Y1623127*
X2054538Y1623252*
X2054710Y1623424*
X2054880Y1623721*
X2054923Y1624152*
X2052200Y1623388D02*
X2051898D01*
Y1623086*
X2052200*
Y1623388*
X2051173Y1624152D02*
X2051130Y1624535D01*
X2050919Y1624830*
X2050621Y1625043*
X2050283Y1625128*
X2049991Y1625086*
X2049733Y1624914*
X2049655Y1624956*
X2049656Y1624963*
X2049790Y1625812*
X2049839Y1625854*
X2050994*
Y1626156*
X2049568*
X2049273Y1624597*
X2049597Y1624561*
X2049804Y1624768*
X2049825Y1624780*
X2050138Y1624870*
X2050159Y1624871*
X2050471Y1624826*
X2050494Y1624817*
X2050673Y1624683*
X2050686Y1624669*
X2050819Y1624446*
X2050826Y1624427*
X2050871Y1624114*
Y1624100*
X2050826Y1623788*
X2050819Y1623769*
X2050686Y1623546*
X2050678Y1623536*
X2050499Y1623358*
X2050471Y1623344*
X2050159Y1623299*
X2050142*
X2049919Y1623344*
X2049906Y1623348*
X2049727Y1623438*
X2049705Y1623460*
X2049616Y1623639*
X2049613Y1623645*
X2049537Y1623875*
X2049232Y1623841*
X2049305Y1623548*
X2049516Y1623252*
X2049811Y1623084*
X2050151Y1623042*
X2050410Y1623085*
X2050622Y1623127*
X2050788Y1623252*
X2050960Y1623424*
X2051130Y1623721*
X2051173Y1624152*
X2048628Y1623388D02*
X2047116D01*
X2047077Y1623469*
X2047255Y1623692*
X2047264Y1623701*
X2047442Y1623834*
X2047708Y1624056*
X2048062Y1624366*
X2048282Y1624629*
X2048411Y1624802*
X2048497Y1625016*
X2048583Y1625360*
X2048541Y1625694*
X2048333Y1625943*
X2048035Y1626114*
X2047649Y1626200*
X2047266Y1626157*
X2046972Y1625989*
X2046760Y1625693*
X2046687Y1625401*
X2046987Y1625367*
X2047022Y1625546*
X2047031Y1625566*
X2047165Y1625744*
X2047175Y1625754*
X2047354Y1625888*
X2047375Y1625898*
X2047643Y1625942*
X2047661*
X2047885Y1625897*
X2047905Y1625888*
X2048083Y1625754*
X2048089Y1625750*
X2048223Y1625616*
X2048236Y1625590*
X2048281Y1625367*
Y1625348*
X2048236Y1625124*
X2048230Y1625108*
X2048096Y1624885*
X2048091Y1624878*
X2047823Y1624566*
X2047819Y1624561*
X2047416Y1624203*
X2047107Y1623938*
X2047107D02*
X2046758Y1623502D01*
X2046673Y1623290*
X2046639Y1623086*
X2048628*
Y1623388*
X2012552Y1685617D02*
X2012509Y1685918D01*
X2012385Y1686166*
X2012183Y1686287*
X2011889Y1686329*
X2011675Y1686286*
X2011508Y1686244*
X2011345Y1686122*
X2011216Y1685908*
X2011128Y1685911*
X2011043Y1686082*
X2010922Y1686203*
X2010712Y1686287*
X2010505Y1686328*
X2010505D02*
X2010340Y1686287D01*
X2010130Y1686203*
X2009869Y1685943*
X2009784Y1685978*
Y1686285*
X2009482*
Y1684064*
X2009784*
Y1685487*
X2009785Y1685499*
X2009830Y1685678*
X2009840Y1685697*
X2010063Y1685965*
X2010088Y1685981*
X2010400Y1686071*
X2010426*
X2010605Y1686026*
X2010621Y1686020*
X2010754Y1685930*
X2010771Y1685911*
X2010861Y1685732*
X2010866Y1685710*
Y1684064*
X2011168*
Y1685353*
Y1685360*
X2011213Y1685673*
X2011222Y1685695*
X2011356Y1685874*
X2011366Y1685884*
X2011545Y1686018*
X2011565Y1686027*
X2011788Y1686072*
X2011808*
X2012031Y1686027*
X2012061Y1686008*
X2012195Y1685829*
X2012203Y1685815*
X2012247Y1685681*
X2012250Y1685665*
Y1684064*
X2012552*
Y1685617*
X2008802D02*
X2008759Y1685918D01*
X2008635Y1686166*
X2008433Y1686287*
X2008139Y1686329*
X2007925Y1686286*
X2007758Y1686244*
X2007595Y1686122*
X2007466Y1685908*
X2007378Y1685911*
X2007293Y1686082*
X2007172Y1686203*
X2006962Y1686287*
X2006755Y1686328*
X2006755D02*
X2006590Y1686287D01*
X2006380Y1686203*
X2006119Y1685943*
X2006034Y1685978*
Y1686285*
X2005732*
Y1684064*
X2006034*
Y1685487*
X2006035Y1685499*
X2006080Y1685678*
X2006090Y1685697*
X2006313Y1685965*
X2006338Y1685981*
X2006650Y1686071*
X2006676*
X2006855Y1686026*
X2006871Y1686020*
X2007004Y1685930*
X2007021Y1685911*
X2007111Y1685732*
X2007116Y1685710*
Y1684064*
X2007418*
Y1685353*
Y1685360*
X2007463Y1685673*
X2007472Y1685695*
X2007606Y1685874*
X2007616Y1685884*
X2007795Y1686018*
X2007815Y1686027*
X2008038Y1686072*
X2008058*
X2008281Y1686027*
X2008311Y1686008*
X2008445Y1685829*
X2008453Y1685815*
X2008497Y1685681*
X2008500Y1685665*
Y1684064*
X2008802*
Y1685617*
X2005141Y1686016D02*
X2005054Y1686320D01*
X2004879Y1686802*
X2004753Y1686969*
X2004590Y1687092*
X2004163Y1687177*
X2003867Y1687135*
X2003616Y1687010*
X2003449Y1686800*
X2003319Y1686498*
X2003232Y1686104*
X2003187Y1685574*
Y1685181*
X2003275Y1684830*
X2003362Y1684525*
X2003487Y1684316*
X2003783Y1684105*
X2004166Y1684020*
X2004462Y1684062*
X2004712Y1684187*
X2004880Y1684397*
X2005009Y1684699*
X2005097Y1685093*
X2005141Y1685578*
Y1686016*
X2004839Y1685933D02*
Y1685219D01*
Y1685211*
X2004794Y1684943*
Y1684941*
X2004749Y1684718*
X2004745Y1684706*
X2004655Y1684527*
X2004642Y1684510*
X2004419Y1684332*
X2004397Y1684322*
X2004174Y1684277*
X2004154*
X2003931Y1684322*
X2003910Y1684332*
X2003687Y1684510*
X2003673Y1684527*
X2003584Y1684706*
X2003579Y1684718*
X2003535Y1684941*
Y1684943*
X2003490Y1685211*
X2003489Y1685219*
Y1685933*
X2003490Y1685940*
X2003534Y1686253*
X2003535Y1686256*
X2003579Y1686479*
X2003584Y1686491*
X2003673Y1686670*
X2003687Y1686687*
X2003910Y1686865*
X2003931Y1686875*
X2004154Y1686920*
X2004172*
X2004440Y1686875*
X2004471Y1686857*
X2004650Y1686634*
X2004652Y1686631*
X2004742Y1686497*
X2004749Y1686479*
X2004794Y1686256*
Y1686253*
X2004839Y1685940*
Y1685933*
X2002418Y1684365D02*
X2002116D01*
Y1684064*
X2002418*
Y1684365*
X2001390Y1684953D02*
X2001348Y1685205D01*
X2001264Y1685414*
X2001099Y1685580*
X2000838Y1685710*
X2000835Y1685798*
X2001053Y1685928*
X2001177Y1686052*
X2001260Y1686219*
X2001301Y1686383*
X2001259Y1686716*
X2001050Y1686967*
X2000798Y1687135*
X2000414Y1687178*
X2000030Y1687135*
X1999778Y1686967*
X1999569Y1686716*
X1999527Y1686426*
X1999569Y1686218*
X1999652Y1686052*
X1999776Y1685928*
X1999993Y1685798*
X1999993D02*
X1999984Y1685707D01*
X1999727Y1685622*
X1999565Y1685460*
X1999481Y1685207*
X1999438Y1684953*
X1999524Y1684568*
X1999692Y1684273*
X2000029Y1684062*
X2000414Y1684019*
X2000799Y1684062*
X2001136Y1684273*
X2001305Y1684568*
X2001390Y1684953*
X2000998Y1686368D02*
X2000954Y1686189D01*
X2000947Y1686173*
X2000858Y1686039*
X2000858D02*
X2000838Y1686023D01*
X2000660Y1685933*
X2000647Y1685929*
X2000424Y1685884*
X2000404*
X2000181Y1685929*
X2000169Y1685933*
X1999990Y1686023*
X1999971Y1686039*
X1999971D02*
X1999882Y1686173D01*
X1999874Y1686191*
X1999829Y1686415*
X1999830Y1686437*
X1999830D02*
X1999875Y1686615D01*
X1999882Y1686631*
X1999971Y1686765*
X1999990Y1686782*
X2000169Y1686871*
X2000181Y1686875*
X2000404Y1686920*
X2000424*
X2000647Y1686875*
X2000660Y1686871*
X2000838Y1686782*
X2000861Y1686759*
X2000950Y1686581*
X2000954Y1686570*
X2000998Y1686392*
Y1686368*
X2001089Y1684951D02*
Y1684943D01*
X2001044Y1684675*
X2001035Y1684653*
X2000901Y1684475*
X2000891Y1684465*
X2000712Y1684331*
X2000690Y1684321*
X2000422Y1684277*
X2000414Y1684276*
X2000236*
X2000208Y1684285*
X2000077Y1684372*
X1999901Y1684460*
X1999882Y1684477*
X1999792Y1684611*
X1999784Y1684632*
X1999740Y1684944*
X1999739Y1684951*
X1999740Y1684961*
X1999785Y1685184*
X1999791Y1685200*
X1999925Y1685423*
X1999938Y1685438*
X2000116Y1685572*
X2000138Y1685581*
X2000406Y1685625*
X2000422*
X2000690Y1685581*
X2000712Y1685572*
X2000891Y1685438*
X2000904Y1685423*
X2001037Y1685200*
X2001044Y1685184*
X2001088Y1684961*
X2001089Y1684951*
X1998311Y1687178D02*
X1998121D01*
X1998002Y1686979*
X1997994Y1686969*
X1997771Y1686746*
X1997763Y1686740*
X1997496Y1686561*
X1997493Y1686560*
X1997205Y1686395*
Y1686103*
X1997575Y1686289*
X1997929Y1686554*
X1998009Y1686514*
Y1684064*
X1998311*
Y1687178*
X1997300Y1686151D02*
Y1686449D01*
X1997400Y1686201D02*
Y1686507D01*
X1997500Y1686251D02*
Y1686564D01*
X1997600Y1686307D02*
Y1686631D01*
X1997700Y1686382D02*
Y1686698D01*
X1997800Y1686457D02*
Y1686775D01*
X1997900Y1686532D02*
Y1686875D01*
X1998000Y1686542D02*
Y1686976D01*
X1998100Y1684064D02*
Y1687143D01*
X1998200Y1684064D02*
Y1687178D01*
X1998300Y1684064D02*
Y1687178D01*
X1999500Y1684675D02*
Y1685265D01*
X1999600Y1684434D02*
Y1685495D01*
Y1686156D02*
Y1686753D01*
X1999700Y1684268D02*
Y1685595D01*
Y1686004D02*
Y1686873D01*
X1999800Y1684205D02*
Y1684599D01*
Y1685215D02*
Y1685646D01*
Y1685914D02*
Y1686982D01*
X1999900Y1684143D02*
Y1684460D01*
Y1685382D02*
Y1685679D01*
Y1685854D02*
Y1686146D01*
Y1686658D02*
Y1687048D01*
X2000000Y1684080D02*
Y1684410D01*
Y1685484D02*
Y1685717D01*
Y1685793D02*
Y1686018D01*
Y1686787D02*
Y1687115D01*
X2000100Y1684054D02*
Y1684356D01*
Y1685559D02*
Y1685968D01*
Y1686837D02*
Y1687143D01*
X2000200Y1684043D02*
Y1684290D01*
Y1685591D02*
Y1685925D01*
Y1686879D02*
Y1687154D01*
X2000300Y1684032D02*
Y1684276D01*
Y1685608D02*
Y1685905D01*
Y1686899D02*
Y1687165D01*
X2000400Y1684021D02*
Y1684276D01*
Y1685624D02*
Y1685885D01*
Y1686919D02*
Y1687176D01*
X2000500Y1684029D02*
Y1684290D01*
Y1685613D02*
Y1685899D01*
Y1686905D02*
Y1687168D01*
X2000600Y1684040D02*
Y1684306D01*
Y1685596D02*
Y1685919D01*
Y1686885D02*
Y1687157D01*
X2000700Y1684051D02*
Y1684324D01*
Y1685578D02*
Y1685953D01*
Y1686851D02*
Y1687146D01*
X2000800Y1684063D02*
Y1684397D01*
Y1685506D02*
Y1686003D01*
Y1686801D02*
Y1687134D01*
X2000900Y1684125D02*
Y1684474D01*
Y1685428D02*
Y1685679D01*
Y1685837D02*
Y1686103D01*
Y1686681D02*
Y1687067D01*
X2001000Y1684188D02*
Y1684607D01*
Y1685262D02*
Y1685629D01*
Y1685897D02*
Y1687001D01*
X2001100Y1684250D02*
Y1685579D01*
Y1685976D02*
Y1686907D01*
X2001200Y1684385D02*
Y1685479D01*
Y1686099D02*
Y1686787D01*
X2001300Y1684560D02*
Y1685325D01*
Y1686379D02*
Y1686390D01*
X2002200Y1684064D02*
Y1684365D01*
X2002300Y1684064D02*
Y1684365D01*
X2002400Y1684064D02*
Y1684365D01*
X2003200Y1685130D02*
Y1685725D01*
X2003300Y1684743D02*
Y1686412D01*
X2003400Y1684462D02*
Y1686687D01*
X2003500Y1684307D02*
Y1685150D01*
Y1686012D02*
Y1686865D01*
X2003600Y1684236D02*
Y1684673D01*
Y1686524D02*
Y1686990D01*
X2003700Y1684164D02*
Y1684500D01*
Y1686697D02*
Y1687052D01*
X2003800Y1684101D02*
Y1684420D01*
Y1686777D02*
Y1687102D01*
X2003900Y1684079D02*
Y1684340D01*
Y1686857D02*
Y1687140D01*
X2004000Y1684057D02*
Y1684308D01*
Y1686889D02*
Y1687154D01*
X2004100Y1684035D02*
Y1684288D01*
Y1686909D02*
Y1687168D01*
X2004200Y1684025D02*
Y1684282D01*
Y1686916D02*
Y1687170D01*
X2004300Y1684039D02*
Y1684302D01*
Y1686899D02*
Y1687150D01*
X2004400Y1684053D02*
Y1684322D01*
Y1686882D02*
Y1687130D01*
X2004500Y1684081D02*
Y1684397D01*
Y1686821D02*
Y1687110D01*
X2004600Y1684131D02*
Y1684477D01*
Y1686696D02*
Y1687084D01*
X2004700Y1684181D02*
Y1684616D01*
Y1686559D02*
Y1687009D01*
X2004800Y1684297D02*
Y1684980D01*
Y1686211D02*
Y1686907D01*
X2004900Y1684444D02*
Y1686743D01*
X2005000Y1684677D02*
Y1686468D01*
X2005100Y1685128D02*
Y1686159D01*
X2005800Y1684064D02*
Y1686285D01*
X2005900Y1684064D02*
Y1686285D01*
X2006000Y1684064D02*
Y1686285D01*
X2006100Y1685709D02*
Y1685931D01*
X2006200Y1685829D02*
Y1686023D01*
X2006300Y1685949D02*
Y1686123D01*
X2006400Y1685999D02*
Y1686211D01*
X2006500Y1686028D02*
Y1686251D01*
X2006600Y1686056D02*
Y1686290D01*
X2006700Y1686065D02*
Y1686315D01*
X2006800Y1686040D02*
Y1686319D01*
X2006900Y1686000D02*
Y1686299D01*
X2007000Y1685933D02*
Y1686272D01*
X2007100Y1685754D02*
Y1686232D01*
X2007200Y1684064D02*
Y1686175D01*
X2007300Y1684064D02*
Y1686068D01*
X2007400Y1684064D02*
Y1685889D01*
X2007500Y1685732D02*
Y1685964D01*
X2007600Y1685866D02*
Y1686126D01*
X2007700Y1685947D02*
Y1686201D01*
X2007800Y1686021D02*
Y1686255D01*
X2007900Y1686044D02*
Y1686280D01*
X2008000Y1686064D02*
Y1686301D01*
X2008100Y1686063D02*
Y1686321D01*
X2008200Y1686043D02*
Y1686320D01*
X2008300Y1686019D02*
Y1686306D01*
X2008400Y1685890D02*
Y1686292D01*
X2008500Y1684064D02*
Y1686247D01*
X2008600Y1684064D02*
Y1686187D01*
X2008700Y1684064D02*
Y1686036D01*
X2008800Y1684064D02*
Y1685629D01*
X2009500Y1684064D02*
Y1686285D01*
X2009600Y1684064D02*
Y1686285D01*
X2009700Y1684064D02*
Y1686285D01*
X2009800Y1685558D02*
Y1685941D01*
X2009900Y1685769D02*
Y1685973D01*
X2010000Y1685889D02*
Y1686073D01*
X2010100Y1685985D02*
Y1686173D01*
X2010200Y1686013D02*
Y1686231D01*
X2010300Y1686042D02*
Y1686271D01*
X2010400Y1686071D02*
Y1686302D01*
X2010500Y1686053D02*
Y1686327D01*
X2010600Y1686028D02*
Y1686309D01*
X2010700Y1685967D02*
Y1686289D01*
X2010800Y1685854D02*
Y1686252D01*
X2010900Y1684064D02*
Y1686212D01*
X2011000Y1684064D02*
Y1686125D01*
X2011100Y1684064D02*
Y1685968D01*
X2011200Y1685582D02*
Y1685891D01*
X2011300Y1685799D02*
Y1686048D01*
X2011400Y1685909D02*
Y1686164D01*
X2011500Y1685984D02*
Y1686239D01*
X2011600Y1686034D02*
Y1686268D01*
X2011700Y1686054D02*
Y1686291D01*
X2011800Y1686073D02*
Y1686311D01*
X2011900Y1686053D02*
Y1686327D01*
X2012000Y1686033D02*
Y1686313D01*
X2012100Y1685956D02*
Y1686299D01*
X2012200Y1685822D02*
Y1686277D01*
X2012300Y1684064D02*
Y1686217D01*
X2012400Y1684064D02*
Y1686136D01*
X2012500Y1684064D02*
Y1685936D01*
X2046700Y1623086D02*
Y1623357D01*
Y1625399D02*
Y1625452D01*
X2046800Y1623086D02*
Y1623554D01*
Y1625388D02*
Y1625749D01*
X2046900Y1623086D02*
Y1623679D01*
Y1625377D02*
Y1625889D01*
X2047000Y1623086D02*
Y1623804D01*
Y1625435D02*
Y1626005D01*
X2047100Y1623086D02*
Y1623390D01*
Y1623498D02*
Y1623929D01*
Y1625658D02*
Y1626062D01*
X2047200Y1623086D02*
Y1623388D01*
Y1623623D02*
Y1624018D01*
Y1625773D02*
Y1626120D01*
X2047300Y1623086D02*
Y1623388D01*
Y1623728D02*
Y1624104D01*
Y1625848D02*
Y1626161D01*
X2047400Y1623086D02*
Y1623388D01*
Y1623803D02*
Y1624189D01*
Y1625902D02*
Y1626172D01*
X2047500Y1623086D02*
Y1623388D01*
Y1623882D02*
Y1624278D01*
Y1625918D02*
Y1626183D01*
X2047600Y1623086D02*
Y1623388D01*
Y1623966D02*
Y1624367D01*
Y1625935D02*
Y1626194D01*
X2047700Y1623086D02*
Y1623388D01*
Y1624049D02*
Y1624456D01*
Y1625934D02*
Y1626188D01*
X2047800Y1623086D02*
Y1623388D01*
Y1624136D02*
Y1624544D01*
Y1625914D02*
Y1626166D01*
X2047900Y1623086D02*
Y1623388D01*
Y1624224D02*
Y1624655D01*
Y1625892D02*
Y1626144D01*
X2048000Y1623086D02*
Y1623388D01*
Y1624311D02*
Y1624772D01*
Y1625817D02*
Y1626122D01*
X2048100Y1623086D02*
Y1623388D01*
Y1624411D02*
Y1624891D01*
Y1625739D02*
Y1626077D01*
X2048200Y1623086D02*
Y1623388D01*
Y1624531D02*
Y1625058D01*
Y1625639D02*
Y1626020D01*
X2048300Y1623086D02*
Y1623388D01*
Y1624653D02*
Y1625962D01*
X2048400Y1623086D02*
Y1623388D01*
Y1624787D02*
Y1625863D01*
X2048500Y1623086D02*
Y1623388D01*
Y1625029D02*
Y1625743D01*
X2048600Y1623086D02*
Y1623388D01*
X2049300Y1623568D02*
Y1623848D01*
Y1624595D02*
Y1624739D01*
X2049400Y1623415D02*
Y1623859D01*
Y1624583D02*
Y1625268D01*
X2049500Y1623275D02*
Y1623871D01*
Y1624572D02*
Y1625796D01*
X2049600Y1623205D02*
Y1623684D01*
Y1624564D02*
Y1626156D01*
X2049700Y1623147D02*
Y1623470D01*
Y1624664D02*
Y1624906D01*
Y1625244D02*
Y1626156D01*
X2049800Y1623090D02*
Y1623401D01*
Y1624764D02*
Y1624959D01*
Y1625835D02*
Y1626156D01*
X2049900Y1623073D02*
Y1623351D01*
Y1624802D02*
Y1625025D01*
Y1625854D02*
Y1626156D01*
X2050000Y1623061D02*
Y1623328D01*
Y1624830D02*
Y1625087D01*
Y1625854D02*
Y1626156D01*
X2050100Y1623048D02*
Y1623308D01*
Y1624859D02*
Y1625102D01*
Y1625854D02*
Y1626156D01*
X2050200Y1623050D02*
Y1623305D01*
Y1624865D02*
Y1625116D01*
Y1625854D02*
Y1626156D01*
X2050300Y1623067D02*
Y1623319D01*
Y1624851D02*
Y1625124D01*
Y1625854D02*
Y1626156D01*
X2050400Y1623083D02*
Y1623333D01*
Y1624837D02*
Y1625099D01*
Y1625854D02*
Y1626156D01*
X2050500Y1623103D02*
Y1623358D01*
Y1624813D02*
Y1625074D01*
Y1625854D02*
Y1626156D01*
X2050600Y1623123D02*
Y1623458D01*
Y1624738D02*
Y1625049D01*
Y1625854D02*
Y1626156D01*
X2050700Y1623186D02*
Y1623570D01*
Y1624645D02*
Y1624987D01*
Y1625854D02*
Y1626156D01*
X2050800Y1623264D02*
Y1623737D01*
Y1624478D02*
Y1624916D01*
Y1625854D02*
Y1626156D01*
X2050900Y1623364D02*
Y1624844D01*
Y1625854D02*
Y1626156D01*
X2051000Y1623494D02*
Y1624717D01*
X2051100Y1623669D02*
Y1624577D01*
X2051900Y1623086D02*
Y1623388D01*
X2052000Y1623086D02*
Y1623388D01*
X2052100Y1623086D02*
Y1623388D01*
X2053000Y1623768D02*
Y1623843D01*
X2053100Y1623485D02*
Y1623854D01*
Y1624589D02*
Y1625003D01*
X2053200Y1623345D02*
Y1623865D01*
Y1624578D02*
Y1625532D01*
X2053300Y1623233D02*
Y1623834D01*
Y1624567D02*
Y1626060D01*
X2053400Y1623176D02*
Y1623570D01*
Y1624614D02*
Y1626156D01*
X2053500Y1623119D02*
Y1623426D01*
Y1624714D02*
Y1624925D01*
Y1625560D02*
Y1626156D01*
X2053600Y1623079D02*
Y1623376D01*
Y1624787D02*
Y1624992D01*
Y1625854D02*
Y1626156D01*
X2053700Y1623067D02*
Y1623338D01*
Y1624816D02*
Y1625059D01*
Y1625854D02*
Y1626156D01*
X2053800Y1623054D02*
Y1623318D01*
Y1624845D02*
Y1625095D01*
Y1625854D02*
Y1626156D01*
X2053900Y1623042D02*
Y1623298D01*
Y1624872D02*
Y1625109D01*
Y1625854D02*
Y1626156D01*
X2054000Y1623058D02*
Y1623312D01*
Y1624858D02*
Y1625123D01*
Y1625854D02*
Y1626156D01*
X2054100Y1623075D02*
Y1623326D01*
Y1624844D02*
Y1625111D01*
Y1625854D02*
Y1626156D01*
X2054200Y1623093D02*
Y1623341D01*
Y1624829D02*
Y1625086D01*
Y1625854D02*
Y1626156D01*
X2054300Y1623113D02*
Y1623408D01*
Y1624775D02*
Y1625061D01*
Y1625854D02*
Y1626156D01*
X2054400Y1623149D02*
Y1623508D01*
Y1624700D02*
Y1625023D01*
Y1625854D02*
Y1626156D01*
X2054500Y1623224D02*
Y1623653D01*
Y1624561D02*
Y1624951D01*
Y1625854D02*
Y1626156D01*
X2054600Y1623314D02*
Y1623955D01*
Y1624259D02*
Y1624880D01*
Y1625854D02*
Y1626156D01*
X2054700Y1623414D02*
Y1624787D01*
Y1625854D02*
Y1626156D01*
X2054800Y1623582D02*
Y1624647D01*
X2054900Y1623925D02*
Y1624356D01*
X2055600Y1623086D02*
Y1625307D01*
X2055700Y1623086D02*
Y1625307D01*
X2055800Y1623086D02*
Y1625307D01*
X2055900Y1624753D02*
Y1624964D01*
X2056000Y1624873D02*
Y1625064D01*
X2056100Y1624992D02*
Y1625164D01*
X2056200Y1625026D02*
Y1625241D01*
X2056300Y1625055D02*
Y1625281D01*
X2056400Y1625084D02*
Y1625317D01*
X2056500Y1625083D02*
Y1625342D01*
X2056600Y1625058D02*
Y1625338D01*
X2056700Y1625010D02*
Y1625318D01*
X2056800Y1624939D02*
Y1625287D01*
X2056900Y1623086D02*
Y1625247D01*
X2057000Y1623086D02*
Y1625179D01*
X2057100Y1623086D02*
Y1625054D01*
X2057200Y1624380D02*
Y1624906D01*
X2057300Y1624778D02*
Y1625016D01*
X2057400Y1624907D02*
Y1625162D01*
X2057500Y1624982D02*
Y1625237D01*
X2057600Y1625050D02*
Y1625282D01*
X2057700Y1625070D02*
Y1625307D01*
X2057800Y1625090D02*
Y1625327D01*
X2057900Y1625082D02*
Y1625347D01*
X2058000Y1625062D02*
Y1625340D01*
X2058100Y1625021D02*
Y1625326D01*
X2058200Y1624888D02*
Y1625311D01*
X2058300Y1623086D02*
Y1625258D01*
X2058400Y1623086D02*
Y1625198D01*
X2058500Y1623086D02*
Y1625022D01*
X2059300Y1623086D02*
Y1625307D01*
X2059400Y1623086D02*
Y1625307D01*
X2059500Y1623086D02*
Y1625307D01*
X2059600Y1624652D02*
Y1624953D01*
X2059700Y1624813D02*
Y1625014D01*
X2059800Y1624933D02*
Y1625114D01*
X2059900Y1625012D02*
Y1625214D01*
X2060000Y1625041D02*
Y1625261D01*
X2060100Y1625069D02*
Y1625301D01*
X2060200Y1625095D02*
Y1625329D01*
X2060300Y1625070D02*
Y1625348D01*
X2060400Y1625043D02*
Y1625328D01*
X2060500Y1624977D02*
Y1625307D01*
X2060600Y1624840D02*
Y1625267D01*
X2060700Y1623086D02*
Y1625227D01*
X2060800Y1623086D02*
Y1625129D01*
X2060900Y1623086D02*
Y1624954D01*
X2061000Y1624711D02*
Y1624933D01*
X2061100Y1624845D02*
Y1625100D01*
X2061200Y1624945D02*
Y1625199D01*
X2061300Y1625020D02*
Y1625269D01*
X2061400Y1625060D02*
Y1625294D01*
X2061500Y1625080D02*
Y1625317D01*
X2061600Y1625092D02*
Y1625337D01*
X2061700Y1625072D02*
Y1625347D01*
X2061800Y1625052D02*
Y1625333D01*
X2061900Y1624955D02*
Y1625319D01*
X2062000Y1624792D02*
Y1625288D01*
X2062100Y1623086D02*
Y1625228D01*
X2062200Y1623086D02*
Y1625122D01*
X2062300Y1623086D02*
Y1624875D01*
*
G04 PC Custom Flashes*
G04 Layer Name PCB_#30857_ESP32-WROOM- - flashes*
%LPD*%
*
*
G04 PC Circuitry*
G04 Layer Name PCB_#30857_ESP32-WROOM- - circuitry*
%LPD*%
*
G54D10*
X1968504Y1675019D02*
X1968507D01*
X2039370D02*
X2039373D01*
X2039370Y1574803D02*
X2039373D01*
X2039370Y1675019D02*
X2039373D01*
G54D44*
X2035370Y1641709D02*
X2043370Y1649709D01*
X2035370D02*
X2043370Y1641709D01*
X1964504Y1626709D02*
X1972504Y1634709D01*
X1964504D02*
X1972504Y1626709D01*
X1992476Y1570803D02*
X2000476Y1578803D01*
X1992476D02*
X2000476Y1570803D01*
X2035370Y1626709D02*
X2043370Y1634709D01*
X2035370D02*
X2043370Y1626709D01*
X1964504Y1621709D02*
X1972504Y1629709D01*
X1964504D02*
X1972504Y1621709D01*
X1997476Y1570803D02*
X2005476Y1578803D01*
X1997476D02*
X2005476Y1570803D01*
X2035370Y1621709D02*
X2043370Y1629709D01*
X2035370D02*
X2043370Y1621709D01*
X1964504Y1616709D02*
X1972504Y1624709D01*
X1964504D02*
X1972504Y1616709D01*
X2002476Y1570803D02*
X2010476Y1578803D01*
X2002476D02*
X2010476Y1570803D01*
X2035370Y1616709D02*
X2043370Y1624709D01*
X2035370D02*
X2043370Y1616709D01*
X1964504Y1611709D02*
X1972504Y1619709D01*
X1964504D02*
X1972504Y1611709D01*
X1977476Y1570803D02*
X1985476Y1578803D01*
X1977476D02*
X1985476Y1570803D01*
X2007476D02*
X2015476Y1578803D01*
X2007476D02*
X2015476Y1570803D01*
X1964504Y1606709D02*
X1972504Y1614709D01*
X1964504D02*
X1972504Y1606709D01*
X2012476Y1570803D02*
X2020476Y1578803D01*
X2012476D02*
X2020476Y1570803D01*
X2035370Y1606709D02*
X2043370Y1614709D01*
X2035370D02*
X2043370Y1606709D01*
X1964504Y1601709D02*
X1972504Y1609709D01*
X1964504D02*
X1972504Y1601709D01*
X2017476Y1570803D02*
X2025476Y1578803D01*
X2017476D02*
X2025476Y1570803D01*
X2035370Y1601709D02*
X2043370Y1609709D01*
X2035370D02*
X2043370Y1601709D01*
X1964504Y1596709D02*
X1972504Y1604709D01*
X1964504D02*
X1972504Y1596709D01*
X2022476Y1570803D02*
X2030476Y1578803D01*
X2022476D02*
X2030476Y1570803D01*
X1964504Y1641709D02*
X1972504Y1649709D01*
X1964504D02*
X1972504Y1641709D01*
X2035370Y1596709D02*
X2043370Y1604709D01*
X2035370D02*
X2043370Y1596709D01*
X1964504Y1591709D02*
X1972504Y1599709D01*
X1964504D02*
X1972504Y1591709D01*
X2035370D02*
X2043370Y1599709D01*
X2035370D02*
X2043370Y1591709D01*
X1964504Y1586709D02*
X1972504Y1594709D01*
X1964504D02*
X1972504Y1586709D01*
X2035370D02*
X2043370Y1594709D01*
X2035370D02*
X2043370Y1586709D01*
X1964504Y1581709D02*
X1972504Y1589709D01*
X1964504D02*
X1972504Y1581709D01*
X2035370D02*
X2043370Y1589709D01*
X2035370D02*
X2043370Y1581709D01*
X1964504Y1576709D02*
X1972504Y1584709D01*
X1964504D02*
X1972504Y1576709D01*
X2035384D02*
X2043384Y1584709D01*
X2035384D02*
X2043384Y1576709D01*
X1982476Y1570803D02*
X1990476Y1578803D01*
X1982476D02*
X1990476Y1570803D01*
X2035370Y1636709D02*
X2043370Y1644709D01*
X2035370D02*
X2043370Y1636709D01*
X1964504Y1631709D02*
X1972504Y1639709D01*
X1964504D02*
X1972504Y1631709D01*
X1987476Y1570803D02*
X1995476Y1578803D01*
X1987476D02*
X1995476Y1570803D01*
X2035370Y1631709D02*
X2043370Y1639709D01*
X2035370D02*
X2043370Y1631709D01*
X1964504Y1636709D02*
X1972504Y1644709D01*
X1964504D02*
X1972504Y1636709D01*
X2035370Y1611709D02*
X2043370Y1619709D01*
X2035370D02*
X2043370Y1611709D01*
X1966459Y1576662D02*
X1974459D01*
X1970459Y1572662D02*
Y1580662D01*
X1973004Y1582319D02*
X1981004D01*
X1977004Y1578319D02*
Y1586319D01*
X1973662Y1576724D02*
X1981662D01*
X1977662Y1572724D02*
Y1580724D01*
X1970880Y1576724D02*
X1978880D01*
X1974880Y1572724D02*
Y1580724D01*
X1969754Y1582569D02*
X1977754D01*
X1973754Y1578569D02*
Y1586569D01*
X1969754Y1579819D02*
X1977754D01*
X1973754Y1575819D02*
Y1583819D01*
X1972254Y1579569D02*
X1980254D01*
X1976254Y1575569D02*
Y1583569D01*
X1974754Y1579569D02*
X1982754D01*
X1978754Y1575569D02*
Y1583569D01*
X1971254Y1584569D02*
X1979254D01*
X1975254Y1580569D02*
Y1588569D01*
X2027754Y1583444D02*
X2035754D01*
X2031754Y1579444D02*
Y1587444D01*
X2027754Y1576819D02*
X2035754D01*
X2031754Y1572819D02*
Y1580819D01*
X2029254Y1578819D02*
X2037254D01*
X2033254Y1574819D02*
Y1582819D01*
X2026254Y1578819D02*
X2034254D01*
X2030254Y1574819D02*
Y1582819D01*
X2030004Y1583678D02*
X2038004D01*
X2034004Y1579678D02*
Y1587678D01*
X2033254Y1576819D02*
X2041254D01*
X2037254Y1572819D02*
Y1580819D01*
X2030754Y1576819D02*
X2038754D01*
X2034754Y1572819D02*
Y1580819D01*
X1969717Y1593447D02*
X1977717D01*
X1973717Y1589447D02*
Y1597447D01*
X1969754Y1588319D02*
X1977754D01*
X1973754Y1584319D02*
Y1592319D01*
X1989629Y1587194D02*
X1997629D01*
X1993629Y1583194D02*
Y1591194D01*
X1988759Y1585712D02*
X1996759D01*
Y1593712*
X1988759*
Y1585712*
X1992759Y1589712D02*
Y1593712D01*
X1988759Y1590528D02*
X1996759D01*
Y1598528*
X1988759*
Y1590528*
X1992759Y1594528D02*
Y1598528D01*
X1996004Y1587569D02*
X2004004D01*
X2000004Y1583569D02*
Y1591569D01*
X1992194Y1592319D02*
X2000194D01*
X1996194Y1588319D02*
Y1596319D01*
X1993754Y1589569D02*
X2001754D01*
X1997754Y1585569D02*
Y1593569D01*
X1990879Y1590319D02*
X1998879D01*
X1994879Y1586319D02*
Y1594319D01*
X1992254Y1587694D02*
X2000254D01*
X1996254Y1583694D02*
Y1591694D01*
X1998754Y1588694D02*
X2006754D01*
X2002754Y1584694D02*
Y1592694D01*
X1997164Y1586619D02*
X2005164D01*
Y1594619*
X1997164*
Y1586619*
X2001164Y1590619D02*
Y1594619D01*
X1999754Y1589939D02*
X2007754D01*
Y1597939*
X1999754*
Y1589939*
X2003754Y1593939D02*
Y1597939D01*
X2003854Y1587009D02*
X2011854D01*
Y1595009*
X2003854*
Y1587009*
X2007854Y1591009D02*
Y1595009D01*
X2001004Y1583819D02*
X2009004D01*
Y1591819*
X2001004*
Y1583819*
X2005004Y1587819D02*
Y1591819D01*
X2017629Y1587694D02*
X2025629D01*
X2021629Y1583694D02*
Y1591694D01*
X2016754Y1592069D02*
X2024754D01*
X2020754Y1588069D02*
Y1596069D01*
X2020379Y1592194D02*
X2028379D01*
X2024379Y1588194D02*
Y1596194D01*
X2024254Y1588569D02*
X2032254D01*
X2028254Y1584569D02*
Y1592569D01*
X2027754Y1592194D02*
X2035754D01*
X2031754Y1588194D02*
Y1596194D01*
X2021129Y1587694D02*
X2029129D01*
X2025129Y1583694D02*
Y1591694D01*
X2024879Y1592319D02*
X2032879D01*
X2028879Y1588319D02*
Y1596319D01*
X1981129Y1597944D02*
X1989129D01*
Y1605944*
X1981129*
Y1597944*
X1985129Y1601944D02*
Y1605944D01*
X1989129Y1596319D02*
X1997129D01*
Y1604319*
X1989129*
Y1596319*
X1993129Y1600319D02*
Y1604319D01*
X1988046Y1597662D02*
X1996046D01*
Y1605662*
X1988046*
Y1597662*
X1992046Y1601662D02*
Y1605662D01*
X1992129Y1591444D02*
X2000129D01*
Y1599444*
X1992129*
Y1591444*
X1996129Y1595444D02*
Y1599444D01*
X1995715Y1597127D02*
X2003715D01*
Y1605127*
X1995715*
Y1597127*
X1999715Y1601127D02*
Y1605127D01*
X1996428Y1598732D02*
X2004428D01*
Y1606732*
X1996428*
Y1598732*
X2000428Y1602732D02*
Y1606732D01*
X1994254Y1593694D02*
X2002254D01*
Y1601694*
X1994254*
Y1593694*
X1998254Y1597694D02*
Y1601694D01*
X1993574Y1598197D02*
X2001574D01*
Y1606197*
X1993574*
Y1598197*
X1997574Y1602197D02*
Y1606197D01*
X2008254Y1598569D02*
X2012254Y1602569D01*
X2008254Y1606569*
X2004254Y1602569*
X2008254Y1598569*
Y1602569D02*
Y1606569D01*
X2003027Y1593025D02*
X2011027D01*
Y1601025*
X2003027*
Y1593025*
X2007027Y1597025D02*
Y1601025D01*
X2001243Y1595343D02*
X2009243D01*
Y1603343*
X2001243*
Y1595343*
X2005243Y1599343D02*
Y1603343D01*
X2000304Y1598619D02*
X2008304D01*
Y1606619*
X2000304*
Y1598619*
X2004304Y1602619D02*
Y1606619D01*
X2000629Y1596944D02*
X2008629D01*
Y1604944*
X2000629*
Y1596944*
X2004629Y1600944D02*
Y1604944D01*
X2014504Y1602069D02*
X2022504D01*
X2018504Y1598069D02*
Y1606069D01*
X2017004Y1601069D02*
X2025004D01*
X2021004Y1597069D02*
Y1605069D01*
X2016754Y1603569D02*
X2024754D01*
X2020754Y1599569D02*
Y1607569D01*
X2013754Y1604569D02*
X2021754D01*
X2017754Y1600569D02*
Y1608569D01*
X2019404Y1603419D02*
X2027404D01*
X2023404Y1599419D02*
Y1607419D01*
X2027004Y1603069D02*
X2035004D01*
X2031004Y1599069D02*
Y1607069D01*
X2025004Y1601319D02*
X2033004D01*
X2029004Y1597319D02*
Y1605319D01*
X2022504Y1601319D02*
X2030504D01*
X2026504Y1597319D02*
Y1605319D01*
X2019754Y1601069D02*
X2027754D01*
X2023754Y1597069D02*
Y1605069D01*
X1976879Y1614444D02*
X1984879D01*
X1980879Y1610444D02*
Y1618444D01*
X1978504Y1602694D02*
X1986504D01*
Y1610694*
X1978504*
Y1602694*
X1982504Y1606694D02*
Y1610694D01*
X1977004Y1605694D02*
X1985004D01*
Y1613694*
X1977004*
Y1605694*
X1981004Y1609694D02*
Y1613694D01*
X1979129Y1601069D02*
X1987129D01*
Y1609069*
X1979129*
Y1601069*
X1983129Y1605069D02*
Y1609069D01*
X1978237Y1606936D02*
X1986237D01*
Y1614936*
X1978237*
Y1606936*
X1982237Y1610936D02*
Y1614936D01*
X1975629Y1608444D02*
X1983629D01*
Y1616444*
X1975629*
Y1608444*
X1979629Y1612444D02*
Y1616444D01*
X1977254Y1603944D02*
X1985254D01*
Y1611944*
X1977254*
Y1603944*
X1981254Y1607944D02*
Y1611944D01*
X1988504Y1612553D02*
X1996504D01*
X1992504Y1608553D02*
Y1616553D01*
X1996754Y1612553D02*
X2004754D01*
X2000754Y1608553D02*
Y1616553D01*
X1999504Y1612553D02*
X2007504D01*
X2003504Y1608553D02*
Y1616553D01*
X1996754Y1609803D02*
X2004754D01*
X2000754Y1605803D02*
Y1613803D01*
X1991254Y1612553D02*
X1999254D01*
X1995254Y1608553D02*
Y1616553D01*
X1991254Y1609803D02*
X1999254D01*
X1995254Y1605803D02*
Y1613803D01*
X1994004Y1612553D02*
X2002004D01*
X1998004Y1608553D02*
Y1616553D01*
X2007404Y1604019D02*
X2015404D01*
Y1612019*
X2007404*
Y1604019*
X2011404Y1608019D02*
Y1612019D01*
X2007624Y1601943D02*
X2015624D01*
Y1609943*
X2007624*
Y1601943*
X2011624Y1605943D02*
Y1609943D01*
X2011504Y1601819D02*
X2019504D01*
Y1609819*
X2011504*
Y1601819*
X2015504Y1605819D02*
Y1609819D01*
X2009754Y1601819D02*
X2017754D01*
Y1609819*
X2009754*
Y1601819*
X2013754Y1605819D02*
Y1609819D01*
X2012254Y1607319D02*
X2020254D01*
Y1615319*
X2012254*
Y1607319*
X2016254Y1611319D02*
Y1615319D01*
X2018254Y1605669D02*
X2026254D01*
X2022254Y1601669D02*
Y1609669D01*
X2014004Y1608819D02*
X2022004D01*
X2018004Y1604819D02*
Y1612819D01*
X2015504Y1610819D02*
X2023504D01*
X2019504Y1606819D02*
Y1614819D01*
X2013754Y1612569D02*
X2021754D01*
X2017754Y1608569D02*
Y1616569D01*
X2015304Y1606619D02*
X2023304D01*
X2019304Y1602619D02*
Y1610619D01*
X2010004Y1607119D02*
X2018004D01*
Y1615119*
X2010004*
Y1607119*
X2014004Y1611119D02*
Y1615119D01*
X2020754Y1605669D02*
X2028754D01*
X2024754Y1601669D02*
Y1609669D01*
X2027754Y1601319D02*
X2035754D01*
Y1609319*
X2027754*
Y1601319*
X2031754Y1605319D02*
Y1609319D01*
X2027972Y1604195D02*
X2035972D01*
Y1612195*
X2027972*
Y1604195*
X2031972Y1608195D02*
Y1612195D01*
X2028066Y1606723D02*
X2036066D01*
Y1614723*
X2028066*
Y1606723*
X2032066Y1610723D02*
Y1614723D01*
X2027996Y1609016D02*
X2035996D01*
Y1617016*
X2027996*
Y1609016*
X2031996Y1613016D02*
Y1617016D01*
X1979129Y1623444D02*
X1987129D01*
X1983129Y1619444D02*
Y1627444D01*
X1974491Y1620668D02*
X1982491D01*
Y1628668*
X1974491*
Y1620668*
X1978491Y1624668D02*
Y1628668D01*
X1974670Y1616388D02*
X1982670D01*
Y1624388*
X1974670*
Y1616388*
X1978670Y1620388D02*
Y1624388D01*
X1973421Y1617815D02*
X1981421D01*
Y1625815*
X1973421*
Y1617815*
X1977421Y1621815D02*
Y1625815D01*
X1975740Y1619241D02*
X1983740D01*
Y1627241*
X1975740*
Y1619241*
X1979740Y1623241D02*
Y1627241D01*
X1974135Y1614604D02*
X1982135D01*
Y1622604*
X1974135*
Y1614604*
X1978135Y1618604D02*
Y1622604D01*
X1976275Y1614069D02*
X1984275D01*
Y1622069*
X1976275*
Y1614069*
X1980275Y1618069D02*
Y1622069D01*
X1984004Y1612008D02*
X1988004Y1616008D01*
X1984004Y1620008*
X1980004Y1616008*
X1984004Y1612008*
Y1616008D02*
Y1620008D01*
X1988504Y1618053D02*
X1996504D01*
X1992504Y1614053D02*
Y1622053D01*
X1996754Y1615303D02*
X2004754D01*
X2000754Y1611303D02*
Y1619303D01*
X1999504Y1618053D02*
X2007504D01*
X2003504Y1614053D02*
Y1622053D01*
X1996754Y1620803D02*
X2004754D01*
X2000754Y1616803D02*
Y1624803D01*
X1994004Y1618053D02*
X2002004D01*
X1998004Y1614053D02*
Y1622053D01*
X1991254Y1615303D02*
X1999254D01*
X1995254Y1611303D02*
Y1619303D01*
X1996754Y1618303D02*
X2004754D01*
X2000754Y1614303D02*
Y1622303D01*
X1991254Y1620803D02*
X1999254D01*
X1995254Y1616803D02*
Y1624803D01*
X1991254Y1618053D02*
X1999254D01*
X1995254Y1614053D02*
Y1622053D01*
X2011004Y1610869D02*
X2015004Y1614869D01*
X2011004Y1618869*
X2007004Y1614869*
X2011004Y1610869*
Y1614869D02*
Y1618869D01*
Y1615219D02*
X2015004Y1619219D01*
X2011004Y1623219*
X2007004Y1619219*
X2011004Y1615219*
Y1619219D02*
Y1623219D01*
X2009404Y1615019D02*
X2017404D01*
Y1623019*
X2009404*
Y1615019*
X2013404Y1619019D02*
Y1623019D01*
X2016004Y1616069D02*
X2024004D01*
Y1624069*
X2016004*
Y1616069*
X2020004Y1620069D02*
Y1624069D01*
X2014754Y1617819D02*
X2022754D01*
Y1625819*
X2014754*
Y1617819*
X2018754Y1621819D02*
Y1625819D01*
X2017004Y1617819D02*
X2025004D01*
Y1625819*
X2017004*
Y1617819*
X2021004Y1621819D02*
Y1625819D01*
X2010104Y1611019D02*
X2018104D01*
Y1619019*
X2010104*
Y1611019*
X2014104Y1615019D02*
Y1619019D01*
X2011804Y1611019D02*
X2019804D01*
Y1619019*
X2011804*
Y1611019*
X2015804Y1615019D02*
Y1619019D01*
X2015504Y1613819D02*
X2023504D01*
Y1621819*
X2015504*
Y1613819*
X2019504Y1617819D02*
Y1621819D01*
X2011204Y1615919D02*
X2019204D01*
Y1623919*
X2011204*
Y1615919*
X2015204Y1619919D02*
Y1623919D01*
X2013204Y1615919D02*
X2021204D01*
Y1623919*
X2013204*
Y1615919*
X2017204Y1619919D02*
Y1623919D01*
X2026254Y1621569D02*
X2034254D01*
X2030254Y1617569D02*
Y1625569D01*
X2023004Y1621569D02*
X2031004D01*
X2027004Y1617569D02*
Y1625569D01*
X2028004Y1616069D02*
X2036004D01*
Y1624069*
X2028004*
Y1616069*
X2032004Y1620069D02*
Y1624069D01*
X2024754Y1619569D02*
X2032754D01*
X2028754Y1615569D02*
Y1623569D01*
X2028020Y1611285D02*
X2036020D01*
Y1619285*
X2028020*
Y1611285*
X2032020Y1615285D02*
Y1619285D01*
X2028066Y1613718D02*
X2036066D01*
Y1621718*
X2028066*
Y1613718*
X2032066Y1617718D02*
Y1621718D01*
X1971754Y1634319D02*
X1979754D01*
X1975754Y1630319D02*
Y1638319D01*
X1969754Y1628319D02*
X1977754D01*
X1973754Y1624319D02*
Y1632319D01*
X1975383Y1624057D02*
X1983383D01*
Y1632057*
X1975383*
Y1624057*
X1979383Y1628057D02*
Y1632057D01*
X1973600Y1624592D02*
X1981600D01*
Y1632592*
X1973600*
Y1624592*
X1977600Y1628592D02*
Y1632592D01*
X1975918Y1622273D02*
X1983918D01*
Y1630273*
X1975918*
Y1622273*
X1979918Y1626273D02*
Y1630273D01*
X1975205Y1628516D02*
X1983205D01*
Y1636516*
X1975205*
Y1628516*
X1979205Y1632516D02*
Y1636516D01*
X1980879Y1624819D02*
X1988879D01*
X1984879Y1620819D02*
Y1628819D01*
X1979842Y1629051D02*
X1987842D01*
Y1637051*
X1979842*
Y1629051*
X1983842Y1633051D02*
Y1637051D01*
X1999254Y1634319D02*
X2007254D01*
X2003254Y1630319D02*
Y1638319D01*
X1999254Y1631819D02*
X2007254D01*
X2003254Y1627819D02*
Y1635819D01*
X2004754Y1623819D02*
X2012754D01*
X2004754Y1631819*
X2012754*
X2004754Y1623819*
X2009564Y1620933D02*
X2017564D01*
Y1628933*
X2009564*
Y1620933*
X2013564Y1624933D02*
Y1628933D01*
X2006254Y1630319D02*
X2014254D01*
X2010254Y1626319D02*
Y1634319D01*
X2009004Y1632569D02*
X2017004D01*
X2013004Y1628569D02*
Y1636569D01*
X2004004Y1633319D02*
X2012004D01*
X2008004Y1629319D02*
Y1637319D01*
X2006504Y1632819D02*
X2014504D01*
X2010504Y1628819D02*
Y1636819D01*
X2017004Y1630819D02*
X2025004D01*
X2021004Y1626819D02*
Y1634819D01*
X2018754Y1625319D02*
X2026754D01*
X2022754Y1621319D02*
Y1629319D01*
X2019004Y1632569D02*
X2027004D01*
X2023004Y1628569D02*
Y1636569D01*
X2012504Y1633069D02*
X2020504D01*
X2016504Y1629069D02*
Y1637069D01*
X2016004Y1633319D02*
X2024004D01*
X2020004Y1629319D02*
Y1637319D01*
X2014004Y1630819D02*
X2022004D01*
X2018004Y1626819D02*
Y1634819D01*
X2011004Y1630819D02*
X2019004D01*
X2015004Y1626819D02*
Y1634819D01*
X2021254Y1634569D02*
X2029254D01*
X2025254Y1630569D02*
Y1638569D01*
X2027254Y1634319D02*
X2035254D01*
X2031254Y1630319D02*
Y1638319D01*
X2025004Y1632319D02*
X2033004D01*
X2029004Y1628319D02*
Y1636319D01*
X2022504Y1629819D02*
X2030504D01*
X2026504Y1625819D02*
Y1633819D01*
X2021504Y1625819D02*
X2029504D01*
X2025504Y1621819D02*
Y1629819D01*
X2027904Y1624919D02*
X2035904D01*
X2031904Y1620919D02*
Y1628919D01*
X2024204Y1625019D02*
X2032204D01*
X2028204Y1621019D02*
Y1629019D01*
X2027704Y1628619D02*
X2035704D01*
X2031704Y1624619D02*
Y1632619D01*
X2026104Y1626719D02*
X2034104D01*
X2030104Y1622719D02*
Y1630719D01*
X2030344Y1627539D02*
X2038344D01*
Y1635539*
X2030344*
Y1627539*
X2034344Y1631539D02*
Y1635539D01*
X1969694Y1635049D02*
X1977694D01*
X1973694Y1631049D02*
Y1639049D01*
X1973379Y1635944D02*
X1981379D01*
X1977379Y1631944D02*
Y1639944D01*
X1976629Y1635553D02*
X1984629D01*
X1980629Y1631553D02*
Y1639553D01*
X1969754Y1643178D02*
X1977754D01*
X1973754Y1639178D02*
Y1647178D01*
X1979504Y1644319D02*
X1987504D01*
X1983504Y1640319D02*
Y1648319D01*
X1980254Y1634819D02*
X1988254D01*
X1980254Y1642819*
X1988254*
X1980254Y1634819*
Y1637319D02*
X1988254D01*
X1980254Y1645319*
X1988254*
X1980254Y1637319*
X1986754D02*
X1994754D01*
X1986754Y1645319*
X1994754*
X1986754Y1637319*
Y1634819D02*
X1994754D01*
X1986754Y1642819*
X1994754*
X1986754Y1634819*
X1984504Y1644319D02*
X1992504D01*
X1988504Y1640319D02*
Y1648319D01*
X1987004Y1644319D02*
X1995004D01*
X1991004Y1640319D02*
Y1648319D01*
X1982004Y1644319D02*
X1990004D01*
X1986004Y1640319D02*
Y1648319D01*
X1988754Y1632569D02*
X1996754D01*
Y1640569*
X1988754*
Y1632569*
X1992754Y1636569D02*
Y1640569D01*
X1999004Y1639319D02*
X2007004D01*
X2003004Y1635319D02*
Y1643319D01*
X1999004Y1636819D02*
X2007004D01*
X2003004Y1632819D02*
Y1640819D01*
X1991754Y1640069D02*
X1999754D01*
Y1648069*
X1991754*
Y1640069*
X1995754Y1644069D02*
Y1648069D01*
X1996504Y1644319D02*
X2004504D01*
X2000504Y1640319D02*
Y1648319D01*
X1999004Y1644319D02*
X2007004D01*
X2003004Y1640319D02*
Y1648319D01*
X1992504Y1632719D02*
X2000504D01*
Y1640719*
X1992504*
Y1632719*
X1996504Y1636719D02*
Y1640719D01*
X1994754Y1638819D02*
X2002754D01*
Y1646819*
X1994754*
Y1638819*
X1998754Y1642819D02*
Y1646819D01*
X2008254Y1636569D02*
X2016254D01*
X2012254Y1632569D02*
Y1640569D01*
X2008504Y1639069D02*
X2016504D01*
X2012504Y1635069D02*
Y1643069D01*
X2006004Y1638569D02*
X2014004D01*
X2010004Y1634569D02*
Y1642569D01*
X2008254Y1641569D02*
X2016254D01*
X2012254Y1637569D02*
Y1645569D01*
X2005504Y1641319D02*
X2013504D01*
X2009504Y1637319D02*
Y1645319D01*
X2004004Y1636819D02*
X2012004D01*
X2008004Y1632819D02*
Y1640819D01*
X2006004Y1635319D02*
X2014004D01*
X2010004Y1631319D02*
Y1639319D01*
X2001504Y1644069D02*
X2009504D01*
X2005504Y1640069D02*
Y1648069D01*
X1999754Y1641819D02*
X2007754D01*
X2003754Y1637819D02*
Y1645819D01*
X2017004Y1637569D02*
X2025004D01*
X2021004Y1633569D02*
Y1641569D01*
X2017754Y1635069D02*
X2025754D01*
X2021754Y1631069D02*
Y1639069D01*
X2019504Y1639569D02*
X2027504D01*
X2023504Y1635569D02*
Y1643569D01*
X2019254Y1642069D02*
X2027254D01*
X2023254Y1638069D02*
Y1646069D01*
X2014254Y1639069D02*
X2022254D01*
X2018254Y1635069D02*
Y1643069D01*
X2015004Y1635819D02*
X2023004D01*
X2019004Y1631819D02*
Y1639819D01*
X2016754Y1640069D02*
X2024754D01*
X2020754Y1636069D02*
Y1644069D01*
X2012504Y1636569D02*
X2020504D01*
X2016504Y1632569D02*
Y1640569D01*
X2011254Y1638819D02*
X2019254D01*
X2015254Y1634819D02*
Y1642819D01*
X2010254Y1634819D02*
X2018254D01*
X2014254Y1630819D02*
Y1638819D01*
X2016504Y1643319D02*
X2024504D01*
X2020504Y1639319D02*
Y1647319D01*
X2014004Y1642069D02*
X2022004D01*
X2018004Y1638069D02*
Y1646069D01*
X2011004Y1641569D02*
X2019004D01*
X2015004Y1637569D02*
Y1645569D01*
X2023504Y1636319D02*
X2031504D01*
X2027504Y1632319D02*
Y1640319D01*
X2019754Y1636819D02*
X2027754D01*
X2023754Y1632819D02*
Y1640819D01*
X2022254Y1638819D02*
X2030254D01*
X2026254Y1634819D02*
Y1642819D01*
X2024504Y1640569D02*
X2032504D01*
X2028504Y1636569D02*
Y1644569D01*
X2022004Y1641819D02*
X2030004D01*
X2026004Y1637819D02*
Y1645819D01*
X2024504Y1643219D02*
X2032504D01*
X2028504Y1639219D02*
Y1647219D01*
X2029504Y1635819D02*
X2037504D01*
X2033504Y1631819D02*
Y1639819D01*
X2028254Y1641569D02*
X2036254D01*
X2032254Y1637569D02*
Y1645569D01*
X2027004Y1643819D02*
X2035004D01*
X2031004Y1639819D02*
Y1647819D01*
X2021504Y1644569D02*
X2029504D01*
X2025504Y1640569D02*
Y1648569D01*
X2026754Y1639319D02*
X2034754D01*
X2030754Y1635319D02*
Y1643319D01*
X2030214Y1637959D02*
X2038214D01*
X2034214Y1633959D02*
Y1641959D01*
X2030004Y1643053D02*
X2038004D01*
X2034004Y1639053D02*
Y1647053D01*
X1967504Y1649319D02*
X1975504D01*
X1971504Y1645319D02*
Y1653319D01*
X1969504Y1646819D02*
X1977504D01*
X1973504Y1642819D02*
Y1650819D01*
X1970254Y1649319D02*
X1978254D01*
X1974254Y1645319D02*
Y1653319D01*
X1973254Y1649319D02*
X1981254D01*
X1977254Y1645319D02*
Y1653319D01*
X1976604Y1649319D02*
X1984604D01*
X1980604Y1645319D02*
Y1653319D01*
X1976754Y1645819D02*
X1984754D01*
X1980754Y1641819D02*
Y1649819D01*
X1978504Y1647569D02*
X1986504D01*
X1982504Y1643569D02*
Y1651569D01*
X1973504Y1645069D02*
X1981504D01*
X1977504Y1641069D02*
Y1649069D01*
X1974754Y1647319D02*
X1982754D01*
X1978754Y1643319D02*
Y1651319D01*
X1972004Y1647069D02*
X1980004D01*
X1976004Y1643069D02*
Y1651069D01*
X1983504Y1646819D02*
X1991504D01*
X1987504Y1642819D02*
Y1650819D01*
X1980604Y1649319D02*
X1988604D01*
X1984604Y1645319D02*
Y1653319D01*
X1984204Y1649319D02*
X1992204D01*
X1988204Y1645319D02*
Y1653319D01*
X1987604Y1649319D02*
X1995604D01*
X1991604Y1645319D02*
Y1653319D01*
X1986004Y1647069D02*
X1994004D01*
X1990004Y1643069D02*
Y1651069D01*
X1981004Y1646819D02*
X1989004D01*
X1985004Y1642819D02*
Y1650819D01*
X1988504Y1646819D02*
X1996504D01*
X1992504Y1642819D02*
Y1650819D01*
X1993254Y1649319D02*
X2001254D01*
X1997254Y1645319D02*
Y1653319D01*
X1996254Y1649319D02*
X2004254D01*
X2000254Y1645319D02*
Y1653319D01*
X1999504Y1649319D02*
X2007504D01*
X2003504Y1645319D02*
Y1653319D01*
X1994004Y1645569D02*
X2002004D01*
X1998004Y1641569D02*
Y1649569D01*
X1990504Y1649319D02*
X1998504D01*
X1994504Y1645319D02*
Y1653319D01*
X1999004Y1646819D02*
X2007004D01*
X2003004Y1642819D02*
Y1650819D01*
X1996254Y1646819D02*
X2004254D01*
X2000254Y1642819D02*
Y1650819D01*
X1991254Y1646569D02*
X1999254D01*
X1995254Y1642569D02*
Y1650569D01*
X2004754Y1647819D02*
X2012754D01*
X2008754Y1643819D02*
Y1651819D01*
X2006754Y1649319D02*
X2014754D01*
X2010754Y1645319D02*
Y1653319D01*
X2009254Y1648569D02*
X2017254D01*
X2013254Y1644569D02*
Y1652569D01*
X2009004Y1646069D02*
X2017004D01*
X2013004Y1642069D02*
Y1650069D01*
X2006504Y1646069D02*
X2014504D01*
X2010504Y1642069D02*
Y1650069D01*
X2003504Y1645569D02*
X2011504D01*
X2007504Y1641569D02*
Y1649569D01*
X2002754Y1649319D02*
X2010754D01*
X2006754Y1645319D02*
Y1653319D01*
X2001504Y1647069D02*
X2009504D01*
X2005504Y1643069D02*
Y1651069D01*
X2018504Y1644819D02*
X2026504D01*
X2022504Y1640819D02*
Y1648819D01*
X2011754Y1649319D02*
X2019754D01*
X2015754Y1645319D02*
Y1653319D01*
X2015504Y1649569D02*
X2023504D01*
X2019504Y1645569D02*
Y1653569D01*
X2013754Y1647819D02*
X2021754D01*
X2017754Y1643819D02*
Y1651819D01*
X2011754Y1646319D02*
X2019754D01*
X2015754Y1642319D02*
Y1650319D01*
X2026004Y1649319D02*
X2034004D01*
X2030004Y1645319D02*
Y1653319D01*
X2023004Y1649319D02*
X2031004D01*
X2027004Y1645319D02*
Y1653319D01*
X2020254Y1649319D02*
X2028254D01*
X2024254Y1645319D02*
Y1653319D01*
X2020254Y1646819D02*
X2028254D01*
X2024254Y1642819D02*
Y1650819D01*
X2026004Y1646319D02*
X2034004D01*
X2030004Y1642319D02*
Y1650319D01*
X2028754Y1649319D02*
X2036754D01*
X2032754Y1645319D02*
Y1653319D01*
X2029004Y1645319D02*
X2037004D01*
X2033004Y1641319D02*
Y1649319D01*
X2023004Y1646819D02*
X2031004D01*
X2027004Y1642819D02*
Y1650819D01*
X2032254Y1649319D02*
X2040254D01*
X2036254Y1645319D02*
Y1653319D01*
X2030504Y1647569D02*
X2038504D01*
X2034504Y1643569D02*
Y1651569D01*
X1968504Y1675197D02*
X2039370D01*
Y1574803*
X1968504*
Y1675197*
X2218504Y1718803D02*
X2476504D01*
X2218504Y1694803D02*
X2476504D01*
X2218504Y1670803D02*
X2476504D01*
X2218504Y1646803D02*
X2476504D01*
X2218504Y1622803D02*
X2476504D01*
X2218504Y1598803D02*
X2476504D01*
X2218504Y1574803D02*
X2476504D01*
X2218504Y1718803D02*
Y1574803D01*
X2302504Y1718803D02*
Y1574803D01*
X2338504Y1718803D02*
Y1574803D01*
X2374504Y1718803D02*
Y1574803D01*
X2428504Y1718803D02*
Y1574803D01*
X2476504Y1718803D02*
Y1574803D01*
X2254004Y1707553D02*
X2253458Y1708303D01*
X2252640Y1708678*
X2251549*
X2250731Y1708303*
X2250186Y1707553*
Y1706803*
X2250458Y1706053*
X2250731Y1705678*
X2251277Y1705303*
X2252913Y1704553*
X2253458Y1704178*
X2253731Y1703803*
X2254004Y1703053*
Y1701928*
X2253458Y1701178*
X2252640Y1700803*
X2251549*
X2250731Y1701178*
X2250186Y1701928*
X2256458Y1708678D02*
Y1700803D01*
X2262731Y1708678D02*
X2258913Y1700803D01*
Y1708678D02*
X2262731D01*
X2258913Y1700803D02*
X2262731D01*
X2265186Y1708678D02*
Y1700803D01*
Y1708678D02*
X2268731D01*
X2265186Y1704928D02*
X2267368D01*
X2265186Y1700803D02*
X2268731D01*
X2312368Y1708678D02*
X2311822Y1708303D01*
X2311277Y1707553*
X2311004Y1706803*
X2310731Y1705678*
Y1703803*
X2311004Y1702678*
X2311277Y1701928*
X2311822Y1701178*
X2312368Y1700803*
X2313458*
X2314004Y1701178*
X2314549Y1701928*
X2314822Y1702678*
X2315095Y1703803*
Y1705678*
X2314822Y1706803*
X2314549Y1707553*
X2314004Y1708303*
X2313458Y1708678*
X2312368*
X2313186Y1702303D02*
X2314822Y1700053D01*
X2319458Y1708678D02*
Y1700803D01*
X2317549Y1708678D02*
X2321368D01*
X2323822D02*
X2326004Y1704928D01*
Y1700803*
X2328186Y1708678D02*
X2326004Y1704928D01*
X2350549Y1707553D02*
X2350004Y1708303D01*
X2349186Y1708678*
X2348095*
X2347277Y1708303*
X2346731Y1707553*
Y1706803*
X2347004Y1706053*
X2347277Y1705678*
X2347822Y1705303*
X2349458Y1704553*
X2350004Y1704178*
X2350277Y1703803*
X2350549Y1703053*
Y1701928*
X2350004Y1701178*
X2349186Y1700803*
X2348095*
X2347277Y1701178*
X2346731Y1701928*
X2353004Y1708678D02*
X2355186Y1704928D01*
Y1700803*
X2357368Y1708678D02*
X2355186Y1704928D01*
X2359822Y1708678D02*
Y1700803D01*
Y1708678D02*
X2362004Y1700803D01*
X2364186Y1708678D02*
X2362004Y1700803D01*
X2364186Y1708678D02*
Y1700803D01*
X2386004Y1708678D02*
Y1700803D01*
Y1708678D02*
X2388458D01*
X2389277Y1708303*
X2389549Y1707928*
X2389822Y1707178*
Y1706053*
X2389549Y1705303*
X2389277Y1704928*
X2388458Y1704553*
X2386004*
X2392277Y1708678D02*
Y1700803D01*
X2395549*
X2400186Y1708678D02*
X2398004Y1700803D01*
X2400186Y1708678D02*
X2402368Y1700803D01*
X2398822Y1703428D02*
X2401549D01*
X2406731Y1708678D02*
Y1700803D01*
X2404822Y1708678D02*
X2408640D01*
X2411095D02*
Y1700803D01*
Y1708678D02*
X2414640D01*
X2411095Y1704928D02*
X2413277D01*
X2411095Y1700803D02*
X2414640D01*
X2417095Y1708678D02*
Y1700803D01*
Y1708678D02*
X2419004D01*
X2419822Y1708303*
X2420368Y1707553*
X2420640Y1706803*
X2420913Y1705678*
Y1703803*
X2420640Y1702678*
X2420368Y1701928*
X2419822Y1701178*
X2419004Y1700803*
X2417095*
X2445186Y1708678D02*
Y1700803D01*
X2443277Y1708678D02*
X2447095D01*
X2451186D02*
X2450640Y1708303D01*
X2450095Y1707553*
X2449822Y1706803*
X2449549Y1705678*
Y1703803*
X2449822Y1702678*
X2450095Y1701928*
X2450640Y1701178*
X2451186Y1700803*
X2452277*
X2452822Y1701178*
X2453368Y1701928*
X2453640Y1702678*
X2453913Y1703803*
Y1705678*
X2453640Y1706803*
X2453368Y1707553*
X2452822Y1708303*
X2452277Y1708678*
X2451186*
X2456368D02*
Y1700803D01*
X2459640*
X2226140Y1684678D02*
X2225322Y1684303D01*
X2224777Y1683178*
X2224504Y1681303*
Y1680178*
X2224777Y1678303*
X2225322Y1677178*
X2226140Y1676803*
X2226686*
X2227504Y1677178*
X2228049Y1678303*
X2228322Y1680178*
Y1681303*
X2228049Y1683178*
X2227504Y1684303*
X2226686Y1684678*
X2226140*
X2231049Y1677553D02*
X2230777Y1677178D01*
X2231049Y1676803*
X2231322Y1677178*
X2231049Y1677553*
X2234049Y1682803D02*
Y1683178D01*
X2234322Y1683928*
X2234595Y1684303*
X2235140Y1684678*
X2236231*
X2236777Y1684303*
X2237049Y1683928*
X2237322Y1683178*
Y1682428*
X2237049Y1681678*
X2236504Y1680553*
X2233777Y1676803*
X2237595*
X2243595Y1684678D02*
X2240868D01*
X2240595Y1681303*
X2240868Y1681678*
X2241686Y1682053*
X2242504*
X2243322Y1681678*
X2243868Y1680928*
X2244140Y1679803*
X2243868Y1679053*
X2243595Y1677928*
X2243049Y1677178*
X2242231Y1676803*
X2241413*
X2240595Y1677178*
X2240322Y1677553*
X2240049Y1678303*
X2312504Y1683178D02*
X2313049Y1683553D01*
X2313868Y1684678*
Y1676803*
X2317686Y1684678D02*
X2316868Y1684303D01*
X2316595Y1683553*
Y1682803*
X2316868Y1682053*
X2317413Y1681678*
X2318504Y1681303*
X2319322Y1680928*
X2319868Y1680178*
X2320140Y1679428*
Y1678303*
X2319868Y1677553*
X2319595Y1677178*
X2318777Y1676803*
X2317686*
X2316868Y1677178*
X2316595Y1677553*
X2316322Y1678303*
Y1679428*
X2316595Y1680178*
X2317140Y1680928*
X2317958Y1681303*
X2319049Y1681678*
X2319595Y1682053*
X2319868Y1682803*
Y1683553*
X2319595Y1684303*
X2318777Y1684678*
X2317686*
X2323958D02*
X2323140Y1684303D01*
X2322868Y1683553*
Y1682803*
X2323140Y1682053*
X2323686Y1681678*
X2324777Y1681303*
X2325595Y1680928*
X2326140Y1680178*
X2326413Y1679428*
Y1678303*
X2326140Y1677553*
X2325868Y1677178*
X2325049Y1676803*
X2323958*
X2323140Y1677178*
X2322868Y1677553*
X2322595Y1678303*
Y1679428*
X2322868Y1680178*
X2323413Y1680928*
X2324231Y1681303*
X2325322Y1681678*
X2325868Y1682053*
X2326140Y1682803*
Y1683553*
X2325868Y1684303*
X2325049Y1684678*
X2323958*
X2350504Y1682803D02*
X2362504D01*
X2356504Y1676803D02*
Y1688803D01*
X2383140Y1684678D02*
X2385322Y1680928D01*
Y1676803*
X2387504Y1684678D02*
X2385322Y1680928D01*
X2389958Y1684678D02*
Y1676803D01*
Y1684678D02*
X2393504D01*
X2389958Y1680928D02*
X2392140D01*
X2389958Y1676803D02*
X2393504D01*
X2399777Y1683553D02*
X2399231Y1684303D01*
X2398413Y1684678*
X2397322*
X2396504Y1684303*
X2395958Y1683553*
Y1682803*
X2396231Y1682053*
X2396504Y1681678*
X2397049Y1681303*
X2398686Y1680553*
X2399231Y1680178*
X2399504Y1679803*
X2399777Y1679053*
Y1677928*
X2399231Y1677178*
X2398413Y1676803*
X2397322*
X2396504Y1677178*
X2395958Y1677928*
X2436322Y1683553D02*
Y1676803D01*
X2433868Y1680178D02*
X2438777D01*
X2446140Y1686178D02*
X2441231Y1674178D01*
X2448595Y1680178D02*
X2453504D01*
X2456231Y1682803D02*
Y1683178D01*
X2456504Y1683928*
X2456777Y1684303*
X2457322Y1684678*
X2458413*
X2458958Y1684303*
X2459231Y1683928*
X2459504Y1683178*
Y1682428*
X2459231Y1681678*
X2458686Y1680553*
X2455958Y1676803*
X2459777*
X2462504Y1677553D02*
X2462231Y1677178D01*
X2462504Y1676803*
X2462777Y1677178*
X2462504Y1677553*
X2466868Y1684678D02*
X2466049Y1684303D01*
X2465504Y1683178*
X2465231Y1681303*
Y1680178*
X2465504Y1678303*
X2466049Y1677178*
X2466868Y1676803*
X2467413*
X2468231Y1677178*
X2468777Y1678303*
X2469049Y1680178*
Y1681303*
X2468777Y1683178*
X2468231Y1684303*
X2467413Y1684678*
X2466868*
X2226140Y1660678D02*
X2225322Y1660303D01*
X2224777Y1659178*
X2224504Y1657303*
Y1656178*
X2224777Y1654303*
X2225322Y1653178*
X2226140Y1652803*
X2226686*
X2227504Y1653178*
X2228049Y1654303*
X2228322Y1656178*
Y1657303*
X2228049Y1659178*
X2227504Y1660303*
X2226686Y1660678*
X2226140*
X2231049Y1653553D02*
X2230777Y1653178D01*
X2231049Y1652803*
X2231322Y1653178*
X2231049Y1653553*
X2237322Y1660678D02*
X2234595D01*
X2234322Y1657303*
X2234595Y1657678*
X2235413Y1658053*
X2236231*
X2237049Y1657678*
X2237595Y1656928*
X2237868Y1655803*
X2237595Y1655053*
X2237322Y1653928*
X2236777Y1653178*
X2235958Y1652803*
X2235140*
X2234322Y1653178*
X2234049Y1653553*
X2233777Y1654303*
X2243868Y1660678D02*
X2241140D01*
X2240868Y1657303*
X2241140Y1657678*
X2241958Y1658053*
X2242777*
X2243595Y1657678*
X2244140Y1656928*
X2244413Y1655803*
X2244140Y1655053*
X2243868Y1653928*
X2243322Y1653178*
X2242504Y1652803*
X2241686*
X2240868Y1653178*
X2240595Y1653553*
X2240322Y1654303*
X2314958Y1660678D02*
X2317958D01*
X2316322Y1657678*
X2317140*
X2317686Y1657303*
X2317958Y1656928*
X2318231Y1655803*
Y1655053*
X2317958Y1653928*
X2317413Y1653178*
X2316595Y1652803*
X2315777*
X2314958Y1653178*
X2314686Y1653553*
X2314413Y1654303*
X2322049Y1660678D02*
X2321231Y1660303D01*
X2320958Y1659553*
Y1658803*
X2321231Y1658053*
X2321777Y1657678*
X2322868Y1657303*
X2323686Y1656928*
X2324231Y1656178*
X2324504Y1655428*
Y1654303*
X2324231Y1653553*
X2323958Y1653178*
X2323140Y1652803*
X2322049*
X2321231Y1653178*
X2320958Y1653553*
X2320686Y1654303*
Y1655428*
X2320958Y1656178*
X2321504Y1656928*
X2322322Y1657303*
X2323413Y1657678*
X2323958Y1658053*
X2324231Y1658803*
Y1659553*
X2323958Y1660303*
X2323140Y1660678*
X2322049*
X2350504Y1652803D02*
X2362504Y1664803D01*
X2350504D02*
X2362504Y1652803D01*
X2383140Y1660678D02*
X2385322Y1656928D01*
Y1652803*
X2387504Y1660678D02*
X2385322Y1656928D01*
X2389958Y1660678D02*
Y1652803D01*
Y1660678D02*
X2393504D01*
X2389958Y1656928D02*
X2392140D01*
X2389958Y1652803D02*
X2393504D01*
X2399777Y1659553D02*
X2399231Y1660303D01*
X2398413Y1660678*
X2397322*
X2396504Y1660303*
X2395958Y1659553*
Y1658803*
X2396231Y1658053*
X2396504Y1657678*
X2397049Y1657303*
X2398686Y1656553*
X2399231Y1656178*
X2399504Y1655803*
X2399777Y1655053*
Y1653928*
X2399231Y1653178*
X2398413Y1652803*
X2397322*
X2396504Y1653178*
X2395958Y1653928*
X2440958Y1659553D02*
Y1652803D01*
X2438504Y1656178D02*
X2443413D01*
X2450777Y1662178D02*
X2445868Y1650178D01*
X2453231Y1656178D02*
X2458140D01*
X2461140Y1660678D02*
X2464140D01*
X2462504Y1657678*
X2463322*
X2463868Y1657303*
X2464140Y1656928*
X2464413Y1655803*
Y1655053*
X2464140Y1653928*
X2463595Y1653178*
X2462777Y1652803*
X2461958*
X2461140Y1653178*
X2460868Y1653553*
X2460595Y1654303*
X2226140Y1636678D02*
X2225322Y1636303D01*
X2224777Y1635178*
X2224504Y1633303*
Y1632178*
X2224777Y1630303*
X2225322Y1629178*
X2226140Y1628803*
X2226686*
X2227504Y1629178*
X2228049Y1630303*
X2228322Y1632178*
Y1633303*
X2228049Y1635178*
X2227504Y1636303*
X2226686Y1636678*
X2226140*
X2231049Y1629553D02*
X2230777Y1629178D01*
X2231049Y1628803*
X2231322Y1629178*
X2231049Y1629553*
X2233777Y1635178D02*
X2234322Y1635553D01*
X2235140Y1636678*
Y1628803*
X2241413Y1636678D02*
X2238686Y1628803D01*
X2237595Y1636678D02*
X2241413D01*
X2247686D02*
X2244958Y1628803D01*
X2243868Y1636678D02*
X2247686D01*
X2251504D02*
X2250686Y1636303D01*
X2250413Y1635553*
Y1634803*
X2250686Y1634053*
X2251231Y1633678*
X2252322Y1633303*
X2253140Y1632928*
X2253686Y1632178*
X2253958Y1631428*
Y1630303*
X2253686Y1629553*
X2253413Y1629178*
X2252595Y1628803*
X2251504*
X2250686Y1629178*
X2250413Y1629553*
X2250140Y1630303*
Y1631428*
X2250413Y1632178*
X2250958Y1632928*
X2251777Y1633303*
X2252868Y1633678*
X2253413Y1634053*
X2253686Y1634803*
Y1635553*
X2253413Y1636303*
X2252595Y1636678*
X2251504*
X2317822Y1635553D02*
X2317549Y1636303D01*
X2316731Y1636678*
X2316186*
X2315368Y1636303*
X2314822Y1635178*
X2314549Y1633303*
Y1631428*
X2314822Y1629928*
X2315368Y1629178*
X2316186Y1628803*
X2316458*
X2317277Y1629178*
X2317822Y1629928*
X2318095Y1631053*
Y1631428*
X2317822Y1632553*
X2317277Y1633303*
X2316458Y1633678*
X2316186*
X2315368Y1633303*
X2314822Y1632553*
X2314549Y1631428*
X2321095Y1636678D02*
X2324095D01*
X2322458Y1633678*
X2323277*
X2323822Y1633303*
X2324095Y1632928*
X2324368Y1631803*
Y1631053*
X2324095Y1629928*
X2323549Y1629178*
X2322731Y1628803*
X2321913*
X2321095Y1629178*
X2320822Y1629553*
X2320549Y1630303*
X2350504Y1628803D02*
X2362504D01*
Y1640803*
X2350504*
Y1628803*
X2356504Y1634803D02*
Y1640803D01*
X2383140Y1636678D02*
X2385322Y1632928D01*
Y1628803*
X2387504Y1636678D02*
X2385322Y1632928D01*
X2389958Y1636678D02*
Y1628803D01*
Y1636678D02*
X2393504D01*
X2389958Y1632928D02*
X2392140D01*
X2389958Y1628803D02*
X2393504D01*
X2399777Y1635553D02*
X2399231Y1636303D01*
X2398413Y1636678*
X2397322*
X2396504Y1636303*
X2395958Y1635553*
Y1634803*
X2396231Y1634053*
X2396504Y1633678*
X2397049Y1633303*
X2398686Y1632553*
X2399231Y1632178*
X2399504Y1631803*
X2399777Y1631053*
Y1629928*
X2399231Y1629178*
X2398413Y1628803*
X2397322*
X2396504Y1629178*
X2395958Y1629928*
X2440958Y1635553D02*
Y1628803D01*
X2438504Y1632178D02*
X2443413D01*
X2450777Y1638178D02*
X2445868Y1626178D01*
X2453231Y1632178D02*
X2458140D01*
X2461140Y1636678D02*
X2464140D01*
X2462504Y1633678*
X2463322*
X2463868Y1633303*
X2464140Y1632928*
X2464413Y1631803*
Y1631053*
X2464140Y1629928*
X2463595Y1629178*
X2462777Y1628803*
X2461958*
X2461140Y1629178*
X2460868Y1629553*
X2460595Y1630303*
X2226140Y1612678D02*
X2225322Y1612303D01*
X2224777Y1611178*
X2224504Y1609303*
Y1608178*
X2224777Y1606303*
X2225322Y1605178*
X2226140Y1604803*
X2226686*
X2227504Y1605178*
X2228049Y1606303*
X2228322Y1608178*
Y1609303*
X2228049Y1611178*
X2227504Y1612303*
X2226686Y1612678*
X2226140*
X2231049Y1605553D02*
X2230777Y1605178D01*
X2231049Y1604803*
X2231322Y1605178*
X2231049Y1605553*
X2234049Y1610803D02*
Y1611178D01*
X2234322Y1611928*
X2234595Y1612303*
X2235140Y1612678*
X2236231*
X2236777Y1612303*
X2237049Y1611928*
X2237322Y1611178*
Y1610428*
X2237049Y1609678*
X2236504Y1608553*
X2233777Y1604803*
X2237595*
X2241686Y1612678D02*
X2240868Y1612303D01*
X2240322Y1611178*
X2240049Y1609303*
Y1608178*
X2240322Y1606303*
X2240868Y1605178*
X2241686Y1604803*
X2242231*
X2243049Y1605178*
X2243595Y1606303*
X2243868Y1608178*
Y1609303*
X2243595Y1611178*
X2243049Y1612303*
X2242231Y1612678*
X2241686*
X2246868D02*
X2249868D01*
X2248231Y1609678*
X2249049*
X2249595Y1609303*
X2249868Y1608928*
X2250140Y1607803*
Y1607053*
X2249868Y1605928*
X2249322Y1605178*
X2248504Y1604803*
X2247686*
X2246868Y1605178*
X2246595Y1605553*
X2246322Y1606303*
X2252868Y1610803D02*
Y1611178D01*
X2253140Y1611928*
X2253413Y1612303*
X2253958Y1612678*
X2255049*
X2255595Y1612303*
X2255868Y1611928*
X2256140Y1611178*
Y1610428*
X2255868Y1609678*
X2255322Y1608553*
X2252595Y1604803*
X2256413*
X2320140Y1612678D02*
X2317413Y1607428D01*
X2321504*
X2320140Y1612678D02*
Y1604803D01*
X2356504D02*
X2362504Y1610803D01*
X2356504Y1616803*
X2350504Y1610803*
X2356504Y1604803*
Y1610803D02*
Y1616803D01*
X2383140Y1612678D02*
X2385322Y1608928D01*
Y1604803*
X2387504Y1612678D02*
X2385322Y1608928D01*
X2389958Y1612678D02*
Y1604803D01*
Y1612678D02*
X2393504D01*
X2389958Y1608928D02*
X2392140D01*
X2389958Y1604803D02*
X2393504D01*
X2399777Y1611553D02*
X2399231Y1612303D01*
X2398413Y1612678*
X2397322*
X2396504Y1612303*
X2395958Y1611553*
Y1610803*
X2396231Y1610053*
X2396504Y1609678*
X2397049Y1609303*
X2398686Y1608553*
X2399231Y1608178*
X2399504Y1607803*
X2399777Y1607053*
Y1605928*
X2399231Y1605178*
X2398413Y1604803*
X2397322*
X2396504Y1605178*
X2395958Y1605928*
X2440958Y1611553D02*
Y1604803D01*
X2438504Y1608178D02*
X2443413D01*
X2450777Y1614178D02*
X2445868Y1602178D01*
X2453231Y1608178D02*
X2458140D01*
X2461140Y1612678D02*
X2464140D01*
X2462504Y1609678*
X2463322*
X2463868Y1609303*
X2464140Y1608928*
X2464413Y1607803*
Y1607053*
X2464140Y1605928*
X2463595Y1605178*
X2462777Y1604803*
X2461958*
X2461140Y1605178*
X2460868Y1605553*
X2460595Y1606303*
X2226140Y1588678D02*
X2225322Y1588303D01*
X2224777Y1587178*
X2224504Y1585303*
Y1584178*
X2224777Y1582303*
X2225322Y1581178*
X2226140Y1580803*
X2226686*
X2227504Y1581178*
X2228049Y1582303*
X2228322Y1584178*
Y1585303*
X2228049Y1587178*
X2227504Y1588303*
X2226686Y1588678*
X2226140*
X2231049Y1581553D02*
X2230777Y1581178D01*
X2231049Y1580803*
X2231322Y1581178*
X2231049Y1581553*
X2234049Y1586803D02*
Y1587178D01*
X2234322Y1587928*
X2234595Y1588303*
X2235140Y1588678*
X2236231*
X2236777Y1588303*
X2237049Y1587928*
X2237322Y1587178*
Y1586428*
X2237049Y1585678*
X2236504Y1584553*
X2233777Y1580803*
X2237595*
X2243595Y1588678D02*
X2240868D01*
X2240595Y1585303*
X2240868Y1585678*
X2241686Y1586053*
X2242504*
X2243322Y1585678*
X2243868Y1584928*
X2244140Y1583803*
X2243868Y1583053*
X2243595Y1581928*
X2243049Y1581178*
X2242231Y1580803*
X2241413*
X2240595Y1581178*
X2240322Y1581553*
X2240049Y1582303*
X2249322Y1588678D02*
X2246595Y1583428D01*
X2250686*
X2249322Y1588678D02*
Y1580803D01*
X2320958Y1588678D02*
X2318231D01*
X2317958Y1585303*
X2318231Y1585678*
X2319049Y1586053*
X2319868*
X2320686Y1585678*
X2321231Y1584928*
X2321504Y1583803*
X2321231Y1583053*
X2320958Y1581928*
X2320413Y1581178*
X2319595Y1580803*
X2318777*
X2317958Y1581178*
X2317686Y1581553*
X2317413Y1582303*
X2350504Y1580803D02*
X2362504D01*
X2350504Y1592803*
X2362504*
X2350504Y1580803*
X2383140Y1588678D02*
X2385322Y1584928D01*
Y1580803*
X2387504Y1588678D02*
X2385322Y1584928D01*
X2389958Y1588678D02*
Y1580803D01*
Y1588678D02*
X2393504D01*
X2389958Y1584928D02*
X2392140D01*
X2389958Y1580803D02*
X2393504D01*
X2399777Y1587553D02*
X2399231Y1588303D01*
X2398413Y1588678*
X2397322*
X2396504Y1588303*
X2395958Y1587553*
Y1586803*
X2396231Y1586053*
X2396504Y1585678*
X2397049Y1585303*
X2398686Y1584553*
X2399231Y1584178*
X2399504Y1583803*
X2399777Y1583053*
Y1581928*
X2399231Y1581178*
X2398413Y1580803*
X2397322*
X2396504Y1581178*
X2395958Y1581928*
X2440958Y1587553D02*
Y1580803D01*
X2438504Y1584178D02*
X2443413D01*
X2450777Y1590178D02*
X2445868Y1578178D01*
X2453231Y1584178D02*
X2458140D01*
X2461140Y1588678D02*
X2464140D01*
X2462504Y1585678*
X2463322*
X2463868Y1585303*
X2464140Y1584928*
X2464413Y1583803*
Y1583053*
X2464140Y1581928*
X2463595Y1581178*
X2462777Y1580803*
X2461958*
X2461140Y1581178*
X2460868Y1581553*
X2460595Y1582303*
G54D109*
X1968504Y1685889D02*
X1993664D01*
X1968504D02*
X1973504Y1686889D01*
Y1684889*
X1968504Y1685889*
X2039370D02*
X2014210D01*
X2039370D02*
X2034370Y1684889D01*
Y1686889*
X2039370Y1685889*
X1968504Y1677019D02*
Y1687889D01*
X2039370Y1677019D02*
Y1687889D01*
X2054344Y1574803D02*
Y1620036D01*
Y1574803D02*
X2053344Y1579803D01*
X2055344*
X2054344Y1574803*
Y1675019D02*
Y1629786D01*
Y1675019D02*
X2055344Y1670019D01*
X2053344*
X2054344Y1675019*
X2041370Y1574803D02*
X2056344D01*
X2041370Y1675019D02*
X2056344D01*
X0Y0D02*
M02*
